<?xml version="1.0" encoding="utf-8"?>
<!-- Generator: Adobe Illustrator 23.0.5, SVG Export Plug-In . SVG Version: 6.00 Build 0)  -->
<svg version="1.1" id="Layer_1" xmlns="http://www.w3.org/2000/svg" xmlns:xlink="http://www.w3.org/1999/xlink" x="0px" y="0px"
	 viewBox="0 0 55 82.3" style="enable-background:new 0 0 55 82.3;" xml:space="preserve">
<style type="text/css">
	.st0{display:none;}
	.st1{display:inline;}
	.st2{fill:#F98828;}
	.st3{display:inline;fill:#FFFFFF;}
</style>
<g class="st0">
	<g class="st1">
		<path d="M9.2,39.5c1.7-0.1,3.3-0.1,4.9-0.2c0-0.1,0-0.1,0-0.2c-0.2,0-0.3-0.1-0.5-0.1c-1.1,0-2.3,0-3.4-0.1
			C9,38.8,8.1,38.1,7.8,37c0-0.1-0.1-0.2-0.1-0.3C7.6,33.9,5.8,32,4,30.1c-1.7-1.7-3-3.6-3.7-5.9c-1.1-4-0.7-7.9,1.5-11.4
			c2-3.2,4.8-5.3,8.4-6.3c4.7-1.3,8.9-0.3,12.7,2.5c2.4,1.8,4.3,4.1,5.1,7c1.3,4.6,0.6,8.8-2.6,12.5c-0.4,0.4-0.6,1-0.9,1.5
			c-0.5,0.7-1,1.4-1.6,2.1c-0.8,1-1.2,2.1-1.3,3.4c0,0.3,0,0.6-0.1,0.9c-0.1,0.8-0.4,1.4-1.3,1.7c-0.2,0.1-0.4,0.2-0.8,0.5
			c0.5,0.1,0.8,0.2,1.2,0.3c-0.4,0.7-1,0.7-1.5,0.8c-2.9,0.6-5.8,0.6-8.7,0.6C9.7,40.2,9.5,40,9.2,39.5z M11.3,26c0,0-0.1,0-0.1,0.1
			c-0.4-0.6-0.8-1.2-1.2-1.7c-0.3-0.6-0.7-0.6-1.3-0.4c-0.7,0.3-1.5,0.5-2.2,0.6c-0.4,0-0.8-0.2-1.2-0.4c0.2-0.4,0.3-0.8,0.6-1
			c1.6-1.3,3.4-2,5.4-2c1.2,0,2.5,0.1,3.7,0.2c2,0.2,4,0.5,5.9,1.3c1,0.4,2,0.6,3-0.3c0,0,0.1,0,0.2,0c-0.1,1.5-1.3,1.8-2.5,2.2
			c0.9,0.5,1.6-0.2,2.4-0.4c-0.4,1-1.4,1.3-2.5,0.9c-0.9-0.3-1.8-0.6-2.8-0.9c-0.4-0.2-0.8-0.2-1,0.4c-0.6,1.5-1.3,3.1-1.6,4.7
			c-0.4,2.5-0.4,5-0.5,7.6c0,0.7,0.1,1.4,0.1,2.1c0.3,0,0.6,0,0.7,0c-0.1-0.2-0.3-0.4-0.3-0.6c0.1-1.3,0.1-2.6,0.2-3.9
			c0.2-2,0.2-4.1,0.8-6c0.8-2.5,1.3-2.4,3.3-2.1c2.5,0.4,4.3-0.6,4.7-3.2c0-0.1,0.1-0.3,0.2-0.4c0.9-1.1,0.7-2.2,0.2-3.4
			c-0.1-0.2-0.3-0.3-0.6-0.6c0,1.2,0.6,2.1,0.1,3.3c-0.2-0.3-0.3-0.4-0.4-0.6c-0.5-0.8-1-0.9-1.5-0.1c-0.4,0.6-1,0.4-1.4-0.1
			c0.4-0.3,0.8-0.6,1-1s0.1-1,0.2-1.5c1.3-0.3,1.6-0.7,1.5-1.9c0-1.2-0.7-2.4-1.4-2.6c0,0.4,0,0.8,0,1.2c-0.3-0.3-0.4-0.7-0.7-1
			s-0.6-0.6-0.9-0.9c-0.2-0.2-0.5-0.2-0.7-0.3c-0.1,0.3-0.1,0.5-0.2,0.8c0,0-0.1,0-0.1,0.1c-0.3-0.9-0.9-1.4-1.7-1.7
			c-0.5-0.3-1-0.5-1.5-0.8c-0.3-0.1-0.6-0.2-0.9-0.3c0,0.3,0,0.6-0.1,0.9c0,0,0,0-0.1,0.1c-0.1-0.2-0.2-0.4-0.3-0.6
			c-0.5-1.2-1.4-1.7-2.7-1.7c-2.3-0.1-4.8,2.1-5.5,3.6c-1-0.5-1.6-0.3-2.4,0.5c-0.5,0.6-0.7,1.2-0.7,2c0,0.2-0.1,0.5-0.2,0.7
			c-0.8,0.7-1.1,1.6-0.6,2.5c0.2,0.3,0.6,0.5,0.9,0.8c0.1,0.1,0.3,0.1,0.4,0.2c0.2,0.6,0.7,0.9,1.4,0.8c-0.6,0.7-1.2,1.4-1.8,2.1
			c0-0.3,0-0.6,0-0.8c0-0.6-0.3-0.9-0.9-1c-0.6,0-0.9,0.3-0.9,0.9c0,0.7,0.1,1.4,0.4,2c0.9,1.7,2.8,2.4,4.6,1.9
			c1.1-0.3,2-0.5,2.9,0.6c0.4,0.5,0.8,0.9,0.8,1.6c0,0.8,0,1.6,0.3,2.2c0.7,1.9,1.2,3.8,1.1,5.8c0,0.3,0.1,0.6,0.1,1
			c0.1,0,0.2,0,0.2,0c0-0.2,0.1-0.4,0.1-0.6c0.1-1.6,0-3.2-0.4-4.8c-0.5-1.9-0.9-3.9-1.4-5.8c0-0.1,0-0.1,0-0.2
			c-0.2-0.7-0.3-1.5-0.5-2.2c-0.1-0.4-0.3-0.9-0.8-0.6c-0.1,0.1-0.1,0.7,0.1,1C10.6,24.8,11,25.4,11.3,26z M15.9,23.7
			c-0.2-0.1-0.5-0.3-0.8-0.4c-0.5-0.2-1.1-0.3-1.6-0.4c-0.2,0-0.6-0.2-0.7,0c-0.1,0.1-0.1,0.5-0.1,0.7c0.1,0.8,0.3,1.5,0.3,2.3
			c0,2.6,0.1,5.1,0.6,7.7c0.3,1.4,0.3,2.8,0.5,4.3c0,0.2,0.3,0.4,0.5,0.6c0.2-0.2,0.4-0.3,0.6-0.5c0.1-0.2,0.1-0.4,0.1-0.6
			c0-1.6,0-3.1-0.2-4.6c-0.4-2.4-0.3-4.8,0.3-7.1C15.6,24.9,15.7,24.4,15.9,23.7z M15.3,30.6c0.1,0,0.1,0,0.2,0
			c0-0.4,0.1-0.8,0.1-1.1c0-1.3,0.4-2.6,0.9-3.8c0.2-0.5,0.5-1,0.6-1.5c0.1-0.2-0.1-0.4-0.1-0.6c-0.2,0.1-0.4,0.1-0.5,0.3
			c-0.2,0.3-0.3,0.6-0.5,0.9C15.3,26.6,15.1,28.6,15.3,30.6z M12.5,27.9c0.1,0,0.1,0,0.2,0c0.1-1.5,0-3.1-0.6-4.5
			c-0.1-0.1-0.2-0.3-0.3-0.4c-0.1-0.1-0.4-0.2-0.5-0.2s-0.2,0.3-0.2,0.5s0.1,0.4,0.2,0.5c0.3,0.9,0.6,1.8,0.9,2.8
			C12.5,27,12.5,27.5,12.5,27.9z M19.5,11.4c0.1-0.3,0.1-0.4,0.1-0.5c-0.1-0.8-1.3-2.1-2.1-2.1c-0.1,0-0.3,0.1-0.3,0.1
			c0,0.2,0,0.4,0.1,0.5c0.4,0.5,0.9,1,1.4,1.4C19,10.9,19.2,11.1,19.5,11.4z"/>
		<path d="M19.1,54.9c-0.1,0.4-0.2,0.8-0.2,1.2c0.1,0,0.1,0.1,0.2,0.1c0.2-0.2,0.3-0.4,0.4-0.7c0.2-0.5,0.5-1.1,0.7-1.6
			c0.2-0.4,0.4-0.5,0.8-0.4c2.3,0.9,4.6,1.8,6.8,2.8c0.6,0.2,1,0.7,1.5,1.1c0.1,0,0.1-0.1,0.2-0.1c-0.1-0.2-0.2-0.5-0.4-0.6
			c-1-0.7-2-1.4-3.1-1.9c-1.4-0.7-2.8-1.1-4.2-1.7c-0.8-0.3-0.8-0.5-0.5-1.2c0.3-0.6,0.6-1.3,0.8-1.9c0.2-0.6,0.6-0.8,1.2-0.6
			c2,0.7,4.1,1.4,6.1,2.2c0.8,0.3,1.3,1.1,1.7,2c0.8,1.7,0.3,2.9-0.5,4.4c-2.7,4.8-5.4,9.6-8.1,14.5c-0.2,0.3-0.4,0.7-0.5,1.1
			c-0.2,1-0.8,1.3-1.7,1.2c-1.5-0.1-3-0.1-4.5-0.1c-2.5,0-5.1,0.1-7.6,0.1c-0.2,0-0.4,0-0.7,0c0.1-0.6,0.1-1.2,0.2-1.7
			c1,0.3,1.9,0.6,2.9,0.7c0.9,0.1,1.9,0,2.8,0c0-0.1,0-0.2,0-0.2c-0.3-0.1-0.5-0.1-0.8-0.2c-1.2-0.2-2.4-0.4-3.6-0.6
			c-0.8-0.2-1.2-0.8-1.3-1.7c0.5,0,0.7,0.2,0.7,0.7c0,0.2,0.2,0.5,0.4,0.6c1.2,0.4,2.4,0.5,3.6,0.3c0-0.1,0-0.1,0-0.2
			c-1.2-0.2-2.3-0.5-3.5-0.7c0-0.1,0-0.1,0-0.2c0.4,0,0.8,0,1.2,0c2.5,0,4.8-1.5,5.6-3.9c0.8-2.3,0.6-4.7-0.2-7
			c-0.2-0.6-0.2-1,0.3-1.5c0.4-0.4,0.7-0.9,1.1-1.3c0.2-0.2,0.8-0.3,1-0.2c2.4,1.3,4.8,2.6,7.2,4c0.1,0,0.1,0.1,0.2,0.2
			c0.2,0,0.3,0,0.5,0c-0.1-0.2,0-0.4-0.2-0.5c-0.9-0.6-1.7-1.3-2.7-1.8c-1.6-0.8-3.1-1.6-4.7-2.4c-0.7-0.3-0.8-0.5-0.4-1.2
			c0.2-0.4,0.4-0.7,0.5-1.1c0-0.1,0.1-0.2,0.1-0.2C19,54.8,19.1,54.9,19.1,54.9z M22.1,51.8c0.1,0,0.2,0.1,0.2,0.1
			c0.1-0.2,0.3-0.4,0.4-0.6c0.2-0.3,0.4-0.5,0.6-0.8c0.1-0.2,0.3-0.4,0.3-0.6c0-0.1-0.3-0.3-0.4-0.3c-0.2,0.1-0.6,0.2-0.7,0.4
			C22.4,50.6,22.3,51.2,22.1,51.8z"/>
		<path d="M14.2,68.8c0.4-0.5,0.7-0.9,1.2-1.5c-0.8,2.7-3.7,4.3-6.2,3.3c-0.3-0.1-0.5-0.5-0.8-0.9c-0.1-0.2-0.2-0.5-0.3-0.7
			c-1.7-2.1-3.4-4.3-5.1-6.4c-1.5-1.9-2.9-4-4.3-5.9c-1-1.4-0.9-2.4,0.4-3.6c1.1-1,2.9-2,3.9-2.1c0,0.2,0.1,0.5,0.2,0.8
			c0.6-0.2,1.1-0.4,1.6-0.6c1-0.4,1.9-0.2,2.7,0.6c2.2,2.3,4.5,4.6,6.6,7c1.3,1.6,1.8,3.6,1.7,5.7c-0.1,1.3-0.7,2.4-1.4,3.5
			c-0.1,0.2-0.2,0.4-0.3,0.6C14,68.7,14.1,68.7,14.2,68.8z M3.7,54c-0.8,0.3-1,0.7-0.4,1.5c1.6,1.8,3.2,3.6,4.8,5.4
			c0.7,0.8,1.7,1.3,2.1,2.2c0.1,0.1,0.4,0.1,0.7,0.2c0.1-0.2,0.2-0.5,0.2-0.7c-0.1-0.3-0.4-0.5-0.6-0.7c-1-1.2-2-2.4-3-3.6
			C7.3,58,6.9,58,6.7,57.8c-0.6-0.7-1.1-1.5-1.7-2.2C4.6,55,4.2,54.5,3.7,54z M12.1,63.8c-0.3-0.2-0.5-0.5-0.5-0.5
			c-0.2,0.1-0.4,0.3-0.5,0.5c0,0.1,0.2,0.4,0.3,0.4C11.7,64.2,11.8,64,12.1,63.8z"/>
		<path d="M31.1,52.6c-0.6-1.3-1.8-1.8-3-2.2c-1.6-0.6-3.3-1.1-4.9-1.7c-0.3-0.1-0.6-0.2-0.9-0.4c0-0.1,0-0.1,0.1-0.2
			c0.9,0.1,1.7,0.3,2.5,0.4c0-0.1,0-0.2,0.1-0.2c-0.1-0.1-0.3-0.2-0.4-0.2c-0.4-0.1-0.9-0.2-1.3-0.4c-1.2-0.3-1.3-0.5-1.1-1.7
			c0.1-0.6,0.2-1.1,0.3-1.6c0.1-0.2,0.4-0.6,0.6-0.6c0.6,0,1.3,0.2,1.9,0.4c0.2,0,0.3,0,0.5,0c0-0.2,0-0.4,0-0.5
			c-0.1-0.1-0.3-0.2-0.4-0.3c-0.2-0.1-0.5-0.1-0.7-0.1c-1.9-0.2-1.7-0.3-1.2-2.1c0-0.2,0.4-0.4,0.6-0.4c0.6,0,1.2,0.2,1.8,0.3
			c0.2,0,0.3-0.1,0.5-0.1c-0.1-0.1-0.2-0.3-0.4-0.4c-0.5-0.1-1-0.2-1.5-0.4c-0.5-0.1-0.8-0.4-0.7-0.9c0.1-0.8,0.2-1.6,0.3-2.5
			c0.8,0.3,1.4,0.5,2,0.8c0.2,0.1,0.4,0,0.5,0c0.2-0.1,0.4-0.2,0.6-0.3c0.8-0.2,0.9,0,0.8,0.8c-0.2,2.1-0.4,4.3-0.6,6.4
			c-0.1,1,0.6,1.9,1.7,2.1c0.8,0.2,1.7,0.2,2.5,0.4c0.3,0.1,0.6,0.2,0.8,0.5C33.3,48.9,32.8,51.5,31.1,52.6z"/>
		<path d="M29.8,41.2c-0.2-0.1-0.4-0.3-0.6-0.4c-0.6-0.4-1-0.8-0.9-1.6c0.3-1.3,0.5-2.6,0.8-3.9c0.1-0.3,0.3-0.6,0.5-0.8
			c0.4-0.5,0.8-1,1.6-0.8s1.4,0.6,1.6,1.4c0.1,0.4,0.2,0.8,0.2,1.2c-0.1,2.9-0.3,5.8-0.5,8.7c0,0.3,0,0.6-0.2,0.9
			c-0.1,0.2-0.4,0.5-0.6,0.4c-1.1-0.2-2.2-0.4-3.2-0.7c-0.6-0.2-0.8-0.8-0.8-1.4c0-0.8,0.2-1.7,0.3-2.5c0.1-0.7,0.2-0.8,0.9-0.5
			c0.3,0.1,0.6,0.1,0.8,0.2C29.8,41.4,29.8,41.3,29.8,41.2z"/>
		<path d="M-4.4,35.1c1.6,0.1,2.6,0.8,3.2,1.9c0.5,0.9,0.9,1.8,1.1,2.7c0.4,1.3,0.6,2.7,0.8,4.1c0.1,0.4,0.1,0.7-0.3,0.9
			c-1.2,0.5-2.5,0.9-3.7,1.4c-0.6,0.2-1,0-1.1-0.7c-0.4-2.6-0.9-5.2-1.3-7.7c-0.1-0.9-0.2-1.7,0.6-2.3C-4.8,35.2-4.5,35.2-4.4,35.1z
			 M-4.1,36.4c0.6,1.3,1.3,2.6,1.8,4c0.4,1.4,0.6,2.9,0.9,4.4C-0.6,43.3-2.1,37.9-4.1,36.4z"/>
		<path d="M24.2,31.6c0.1,0.2,0.1,0.4,0.2,0.6h0.1c0-0.2,0.1-0.3,0.1-0.5c0.2-0.6,0.3-1.3,0.6-1.9c0.3-0.9,0.9-1.2,1.8-1.1
			c0.7,0.1,1.2,0.5,1.2,1.4c0,1.9-0.1,3.8-0.2,5.7c0,0.2-0.3,0.6-0.5,0.6c-1.1,0.1-2.3,0.1-3.2-0.7c-0.2-0.2-0.5-0.6-0.5-0.8
			c0-1.1,0.2-2.3,0.3-3.4C24.1,31.6,24.2,31.6,24.2,31.6z"/>
		<path d="M-1.9,51.8C-2.4,50.5-3,49.2-3.5,48c-0.3-0.6-0.2-1,0.5-1.1c0.4-0.1,0.8-0.3,1.1-0.3c0.3-0.1,0.7,0,1.1,0
			c0.1-0.3,1.4-1.2,1.8-1.1c0.1,0,0.3,0.2,0.4,0.3c0.5,1.3,1,2.6,1.5,3.9c0.1,0.2-0.1,0.5-0.3,0.6c-1.2,0.7-2.3,1.4-3.5,2.1
			c-0.5,0.3-0.7,0-0.9-0.4C-1.8,51.8-1.9,51.8-1.9,51.8z"/>
		<path d="M11.4,41.9c-0.5-0.1-0.9-0.2-1.4-0.4c-0.2-0.1-0.3-0.3-0.5-0.5c0.2-0.1,0.4-0.2,0.6-0.2c1.4-0.1,2.7,0,4.1-0.1
			c1.9-0.2,3.9-0.5,5.8-0.8c0.2,0,0.4,0,0.8,0c-0.4,0.7-0.9,0.9-1.4,1c-1.8,0.3-3.6,0.5-5.4,0.8c-0.3,0-0.5,0.1-0.8,0.2
			c0,0.1,0,0.1,0,0.2c0.2,0,0.4,0.1,0.7,0.1c2-0.3,3.9-0.6,5.9-0.8c0.3,0,0.6-0.1,0.9-0.1c0,0.1,0.1,0.2,0.1,0.2
			C20.5,41.7,20.3,42,20,42c-1.5,0.3-3,0.6-4.6,0.8c-1.5,0.2-3,0.2-4.6,0.3c-0.2,0-0.4,0-0.6,0C10,43,9.8,42.8,9.6,42.7
			c0.2-0.1,0.4-0.3,0.6-0.4c0.4-0.1,0.8-0.1,1.2-0.1C11.4,42,11.4,42,11.4,41.9z"/>
		<path d="M9.8,49.2c0.4-0.1,0.6-0.1,0.9-0.2c2.9-0.3,5.7-0.6,8.6-0.8c0.3,0,0.5-0.1,0.8-0.2c0.2,0,0.5,0,0.7,0
			c-0.1,0.2-0.1,0.5-0.3,0.7c-0.6,0.8-1.4,1.3-2.4,1.4c-1.9,0.1-3.9,0.3-5.8,0.4C11.3,50.6,10.6,50.1,9.8,49.2z"/>
		<path d="M11.4,46.6c-0.5,0-0.9,0-1.4,0c-0.2,0-0.5-0.3-0.5-0.4c0-0.2,0.2-0.5,0.4-0.6c0.3-0.2,0.7-0.2,1-0.3
			c2.7-0.3,5.4-0.7,8.1-1c0.3,0,0.6-0.1,0.9-0.1c0.6-0.1,0.7,0.4,0.8,0.8c0.1,0.5-0.2,0.6-0.6,0.7c-2,0.3-4,0.5-6.1,0.7
			C13.1,46.6,12.3,46.6,11.4,46.6C11.4,46.7,11.4,46.7,11.4,46.6z"/>
		<path d="M10.4,44.9c-0.1,0-0.3,0-0.4,0c-0.2-0.1-0.4-0.3-0.6-0.4c0.2-0.2,0.3-0.6,0.5-0.7c0.9-0.2,1.9-0.2,2.8-0.4
			c2.4-0.3,4.8-0.7,7.1-1c0.1,0,0.1,0,0.2,0c0.3,0.1,0.6,0.2,0.9,0.3c-0.2,0.3-0.4,0.7-0.7,0.7c-1.8,0.4-3.7,0.7-5.6,1
			C13.3,44.8,11.8,44.9,10.4,44.9C10.4,45,10.4,45,10.4,44.9z"/>
		<path d="M12.3,51.4c2-0.2,4-0.3,6-0.1c-0.4,1.7-1.3,2.4-2.9,2.5C13.9,53.8,12.8,53,12.3,51.4z"/>
		<path d="M11.1,48.4c-0.3,0-0.9,0-1.4-0.2c-0.2,0-0.4-0.3-0.5-0.5c0.2-0.1,0.4-0.3,0.6-0.3c2.3-0.2,4.6-0.3,6.9-0.5
			c1.1-0.1,2.2-0.3,3.2-0.4c0.2,0,0.5,0.2,0.7,0.3c-0.2,0.2-0.4,0.6-0.6,0.6c-1.1,0.2-2.2,0.4-3.4,0.5
			C14.9,48.1,13.1,48.2,11.1,48.4z"/>
		<path d="M6.9,25C6,25.5,4.5,24.9,4,23.9C5,24.3,5.9,24.7,6.9,25z"/>
		<path d="M6.9,19.9c0-0.5-0.1-1-0.1-1.5c0.1,0,0.1,0,0.2,0c0,0.5,0.1,1,0.1,1.5C7.1,19.9,7,19.9,6.9,19.9z"/>
	</g>
	<g class="st1">
		<path d="M68.8,41c0-0.3,0-0.7,0-1c0-4.2,0-8.4,0-12.7c0-0.3,0-0.6,0-0.8c0-0.2,0.1-0.3,0.3-0.3c0.2,0,0.4,0,0.5,0c1.5,0,3,0,4.5,0
			c0.8,0,0.8,0,0.8,0.9c0,0.1,0,0.2,0,0.3c0,7.7,0,15.3,0,23c0,1.3,0.1,1.2-1.2,1.2c-1.5,0-2.9,0-4.4,0c-0.5,0-0.8-0.2-1-0.6
			c-1.8-2.8-3.7-5.5-5.5-8.3c-1.3-1.9-2.5-3.8-3.8-5.6c-0.1-0.2-0.2-0.3-0.4-0.5c-0.3,0.2-0.2,0.5-0.2,0.7c0,4.3,0,8.7,0,13
			c0,1.5,0.2,1.3-1.3,1.3c-1.3,0-2.7,0-4,0c-0.2,0-0.4,0-0.6,0c-0.1,0-0.2-0.1-0.2-0.2c0-0.2,0-0.5,0-0.7c0-7.8,0-15.6,0-23.4
			c0-0.1,0-0.2,0-0.3c0-0.7,0-0.7,0.7-0.7c1.7,0,3.3,0,4.9,0c0.4,0,0.6,0.1,0.8,0.4c0.8,1.2,1.7,2.4,2.5,3.7
			c2.2,3.3,4.5,6.6,6.7,9.9c0.2,0.3,0.4,0.6,0.7,1C68.7,41,68.7,41,68.8,41z"/>
		<path d="M84.3,36.5c0,0.4,0,0.8,0,1.1c0,4.3,0,8.6,0,12.9c0,1,0,0.9-0.9,0.9c-1.6,0-3.1,0-4.7,0c-0.4,0-0.5-0.1-0.5-0.5
			c0-0.2,0-0.5,0-0.7c0-7.7,0-15.3,0-23c0-1.3-0.1-1.2,1.2-1.2c1.4,0,2.7,0,4.1,0c1,0,0.8-0.1,1.4,0.7c1.8,2.6,3.6,5.3,5.3,7.9
			c1.3,1.9,2.6,3.9,3.9,5.8c0.1,0.2,0.2,0.3,0.4,0.5c0.3-0.2,0.2-0.4,0.2-0.7c0-4.3,0-8.7,0-13c0-1.5-0.2-1.3,1.3-1.3
			c1.4,0,2.9,0,4.3,0c0.6,0,0.6,0,0.6,0.7c0,0.2,0,0.4,0,0.5c0,7.7,0,15.3,0,23c0,1.3,0.1,1.2-1.2,1.2c-1.5,0-3,0-4.5,0
			c-0.4,0-0.7-0.1-0.9-0.5c-0.8-1.1-1.5-2.3-2.3-3.4c-2.4-3.5-4.7-7-7.1-10.5C84.8,36.9,84.7,36.7,84.3,36.5z"/>
		<path d="M126.6,30.3c0-0.3-0.1-0.7-0.1-1c-0.1-1.5-1.6-3.2-3.7-3.2c-5.1,0-10.1,0-15.2,0c-1.8,0-3.7,1.6-3.7,3.5
			c0,0.3,0,0.6,0,0.8c0,2.8,0,5.5,0,8.3s0,5.5,0,8.3c0,0.4,0,0.8,0,1.2c0,0.6,0.3,1.2,0.6,1.7c0.8,1.1,1.8,1.7,3.2,1.6
			c5,0,9.9,0,14.9,0c0.1,0,0.3,0,0.4,0c1.7-0.1,3.1-1.4,3.4-3c0.1-0.4,0.1-0.8,0.1-1.2C126.6,41.7,126.6,36,126.6,30.3z M120.4,45.4
			c0,0.5-0.3,0.8-0.8,0.8c-0.2,0-0.4,0-0.6,0c-2.4,0-4.9,0-7.3,0c-1.1,0-1.5-0.2-1.5-1.6c0-4,0-7.9,0-11.8c0-1.4,0.2-1.5,1.5-1.5
			c2.4,0,4.9,0,7.3,0h0.1c1.1,0,1.3,0.2,1.3,1.3c0,2.1,0,4.1,0,6.2c0,1.9,0,3.9,0,5.9C120.4,44.9,120.4,45.2,120.4,45.4z"/>
		<path d="M181.7,51c-2.7-8.3-5.5-16.6-8.2-24.9c-0.3,0-0.6,0-0.8,0c-2.8,0-5.5,0-8.3,0c-1,0-0.9-0.1-1.2,0.8c-1,3.1-2,6.2-3.1,9.3
			c-1.6,4.9-3.2,9.7-4.8,14.5c-0.1,0.2-0.2,0.4,0,0.6c0.2,0,0.3,0,0.5,0c1.7,0,3.4,0,5.1,0c0.1,0,0.1,0,0.2,0c0.5,0,0.5,0,0.7-0.5
			c0.1-0.2,0.1-0.3,0.2-0.5c0.3-1,0.7-2.1,1-3.1c0.3-0.7,0.1-0.7,0.9-0.7c3,0,6.1,0,9.1,0c0.6,0,0.6,0,0.8,0.6
			c0.4,1.2,0.8,2.4,1.3,3.7c0.2,0.5,0.2,0.5,0.7,0.6c1.5,0,3,0,4.5,0h1.3C181.7,51.3,181.7,51.1,181.7,51z M165.1,41.3
			c1.1-3.3,2.2-6.6,3.4-9.9c1.2,3.3,2.4,6.6,3.4,9.9C170.8,41.5,165.9,41.5,165.1,41.3z"/>
		<path d="M215.9,38.9c0-3.8,0-7.6,0-11.4c0-0.3,0-0.6,0-0.8c0-0.4,0.1-0.4,0.4-0.5c0.2,0,0.5,0,0.7,0c6.2,0,12.4,0,18.7,0
			c1.3,0,1.2-0.1,1.2,1.2c0,1.2,0,2.4,0,3.6c0,0.4-0.1,0.4-0.4,0.5c-0.3,0-0.6,0-0.8,0c-4.1,0-8.2,0-12.3,0c-0.3,0-0.6,0-0.8,0
			c-0.4,0-0.4,0.1-0.4,0.4c0,0.9,0,1.9,0,2.8c0,0.4,0,0.8,0,1.3c0,0.2,0.1,0.3,0.3,0.3c0.3,0,0.6,0,0.8,0c2.9,0,5.9,0,8.8,0
			c0.2,0,0.4,0,0.5,0c0.8,0,0.8,0,0.8,0.8c0,1.3,0,2.7,0,4c0,0.4-0.1,0.5-0.5,0.5c-1.2,0-2.4,0-3.6,0c-2,0-4.1,0-6.1,0
			c-0.2,0-0.5,0-0.7,0c-0.3,0-0.4,0.2-0.4,0.4c0,0.3,0,0.6,0,0.8c0,1,0,2,0,3c0,0.5,0.1,0.5,0.6,0.5c0.2,0,0.5,0,0.7,0
			c4.1,0,8.2,0,12.3,0c1.5,0,1.3-0.2,1.3,1.3c0,1.2,0,2.3,0,3.5c0,0.4-0.1,0.4-0.4,0.4c-0.2,0-0.4,0-0.6,0c-6.3,0-12.6,0-18.9,0
			c-1.2,0-1,0.1-1-1.1C215.9,46.5,215.9,42.7,215.9,38.9z"/>
		<path d="M128.5,26.1c0.5,0,1,0,1.6,0c1.4,0,2.8,0,4.2,0c0.6,0,0.6,0,0.7,0.5c0.8,2.4,1.7,4.9,2.5,7.3c1.3,3.9,2.6,7.7,3.9,11.6
			c0.1,0.2,0,0.4,0.3,0.6c0.2,0,0.2-0.2,0.3-0.4c0.1-0.1,0.1-0.3,0.1-0.4c1.6-4.8,3.2-9.6,4.9-14.4c0.5-1.4,1-2.8,1.5-4.3
			c0.2-0.6,0.2-0.6,0.8-0.6c1.8,0,3.6,0,5.3,0c0.1,0,0.3,0,0.4,0c0.1,0.3,0,0.6-0.1,0.8c-1.4,4.4-2.9,8.7-4.3,13.1
			c-1.1,3.3-2.2,6.6-3.3,9.9c-0.1,0.2-0.2,0.5-0.2,0.7c-0.3,0.8-0.3,0.7-0.9,0.7c-2.9,0-5.8,0-8.7,0c-0.5,0-0.6,0-0.7-0.5
			c-0.9-2.5-1.7-5.1-2.5-7.7c-1.3-3.8-2.5-7.7-3.8-11.5c-0.5-1.6-1-3.1-1.5-4.7C128.5,26.8,128.3,26.5,128.5,26.1z"/>
		<path d="M202.8,26.1c3.4,0,6.8,0,10.2,0c0.2,0,0.5,0,0.7,0c0.4,0,0.4,0.1,0.5,0.4c0,0.4,0,0.7,0,1.1c0,1.1,0,2.2,0,3.3
			c0,0.4-0.1,0.5-0.5,0.5c-2.1,0-4.1,0-6.2,0c-0.5,0-1-0.2-1.3,0.1c-0.4,0.3-0.2,0.9-0.2,1.4c0,5.8,0,11.7,0,17.5
			c0,1.2,0.1,1.1-1.1,1.1c-1.5,0-3.1,0-4.6,0c-0.4,0-0.5-0.1-0.5-0.5c0-0.3,0-0.6,0-0.8c0-5.8,0-11.7,0-17.5c0-0.3,0-0.6,0-0.8
			c0-0.4-0.1-0.5-0.5-0.5c-0.6,0-1.2,0-1.8,0c-1.7,0-3.4,0-5,0c-0.2,0-0.4,0-0.5,0c-0.3,0-0.4-0.2-0.4-0.4c0-0.1,0-0.3,0-0.4
			c0-1.3,0-2.6,0-3.9c0-0.4,0.1-0.5,0.5-0.5c0.9,0,1.7,0,2.6,0C197.3,26.1,200,26.1,202.8,26.1z"/>
		<path d="M49.1,38.8c0,3.9,0,7.8,0,11.7c0,1,0,0.9-0.9,0.9c-1.5,0-2.9,0-4.4,0c-0.2,0-0.4,0-0.5,0c-0.2,0-0.3-0.1-0.3-0.3
			s0-0.5,0-0.7c0-7.8,0-15.5,0-23.3c0-1.1-0.1-1,1-1c1.4,0,2.9,0,4.3,0c0.2,0,0.4,0,0.5,0c0.2,0,0.3,0.1,0.3,0.3c0,0.3,0,0.6,0,0.8
			C49.1,31.1,49.1,35,49.1,38.8z"/>
		<path d="M189.7,38.9c0,3.9,0,7.8,0,11.6c0,1,0,0.9-0.9,0.9c-1.6,0-3.1,0-4.7,0c-0.4,0-0.5-0.1-0.5-0.5c0-0.2,0-0.5,0-0.7
			c0-7.7,0-15.3,0-23c0-1.4-0.2-1.2,1.2-1.2s2.7,0,4.1,0c0.2,0,0.4,0,0.5,0c0.2,0,0.3,0.1,0.3,0.3c0,0.3,0,0.6,0,0.8
			C189.7,31.2,189.7,35.1,189.7,38.9z"/>
		<path d="M196.8,59.5c0,0.9,0,1.9,0,2.8c0,0.3,0,0.6,0,0.8c0,0.4-0.1,0.5-0.5,0.4c-0.1,0-0.2,0-0.3,0s-0.2-0.1-0.2-0.2
			c0-0.1,0-0.2,0-0.3c0-1.8,0-3.6,0-5.3c0-0.2,0-0.4,0.1-0.5c0.3-0.1,0.7-0.1,1,0c0.2,0.1,0.3,0.3,0.3,0.5c0.4,1,0.8,1.9,1.2,2.9
			c0,0.1,0.1,0.2,0.1,0.3c0,0,0.1,0.1,0.2,0.1c0.1,0,0.1,0,0.1-0.1c0-0.9,0-1.9,0-2.8c0-0.2,0-0.4,0-0.6c0-0.1,0.1-0.2,0.2-0.2
			c0.2-0.1,0.5-0.1,0.7,0c0.1,0,0.1,0.2,0.1,0.2c0,1.9,0,3.8,0,5.8c0,0.2-0.1,0.3-0.3,0.3s-0.4,0-0.6,0c-0.2,0-0.3-0.1-0.3-0.2
			c-0.1-0.3-0.2-0.5-0.3-0.8c-0.4-1-0.8-2.1-1.3-3.1C197,59.4,196.9,59.5,196.8,59.5z"/>
		<path d="M95.2,63.5c-0.2,0.1-0.5,0.1-0.7,0.1c-0.3,0-0.4-0.1-0.5-0.4c-0.4-1-0.8-2-1.2-3c-0.1-0.2-0.2-0.4-0.3-0.7
			c-0.3,0.1-0.2,0.3-0.2,0.4c0,1,0,1.9,0,2.9c0,0.7,0,0.8-0.8,0.7c-0.2,0-0.2-0.1-0.2-0.3c0-0.3,0-0.6,0-0.9c0-1.6,0-3.1,0-4.7
			c0-0.4,0.1-0.5,0.5-0.5c0.1,0,0.3,0,0.4,0c0.2,0,0.4,0.1,0.5,0.3c0.2,0.5,0.4,1,0.6,1.6c0.3,0.7,0.6,1.3,0.8,2
			c0.3-0.1,0.2-0.3,0.2-0.5c0-1,0-1.9,0-2.9c0-0.4,0.1-0.5,0.5-0.5c0.1,0,0.2,0,0.3,0c0.2,0,0.2,0.1,0.2,0.3c0,0.1,0,0.3,0,0.4
			c0,1.7,0,3.4,0,5.1C95.3,63.1,95.3,63.3,95.2,63.5z"/>
		<path d="M102,58.3c0,0.2,0,0.5,0,0.7s0,0.4-0.3,0.4c-0.4,0.1-0.6,0-0.7-0.3c-0.1-0.2-0.1-0.4-0.2-0.6c-0.4-0.8-1.6-0.8-2-0.1
			c-0.2,0.4-0.3,0.8-0.4,1.2c-0.1,0.7-0.1,1.3,0.2,2c0.2,0.6,0.5,1,1.2,1.1s1.1-0.2,1.4-0.9c0.1-0.2,0.1-0.3,0.1-0.5
			c0-0.1-0.1-0.2-0.2-0.2c-0.2,0-0.4,0-0.6,0c-0.4,0-0.5-0.1-0.5-0.6c0-0.3,0.1-0.4,0.4-0.4c0.5,0,1.1,0,1.6,0
			c0.3,0,0.4,0.1,0.4,0.4c0,0.6-0.1,1.3-0.4,1.8c-0.4,0.9-1.1,1.3-2.1,1.3c-0.9,0-1.6-0.5-2-1.3c-0.3-0.5-0.4-1.1-0.4-1.6
			c-0.1-0.7,0-1.4,0.2-2.1c0.2-0.6,0.5-1.1,1-1.4c0.7-0.4,1.4-0.5,2.1,0c0.2,0.1,0.3,0.1,0.4-0.1c0.1-0.3,0.4-0.1,0.7-0.1
			c0.1,0,0.2,0.1,0.2,0.2C102,57.7,102,58,102,58.3L102,58.3z"/>
		<path d="M139.8,61.3c-0.2-0.2-0.1-0.3,0.2-0.5c0.1,0,0.2-0.1,0.3-0.1c0.8-0.4,1.1-1.1,1-2.1c-0.1-0.8-0.7-1.3-1.5-1.4
			c-0.2,0-0.3,0-0.5-0.1c-0.6,0-1.2,0-1.8,0c-0.4,0-0.5,0-0.5,0.5c0,1.8,0,3.6,0,5.4c0,0.1,0,0.1,0,0.2c0,0.1,0.1,0.3,0.3,0.3
			c0.1,0,0.2,0,0.3,0c0.4,0,0.5-0.1,0.5-0.5c0-0.6,0-1.1,0-1.7c0-0.2,0-0.4,0.2-0.4c0.1,0,0.3,0.1,0.3,0.2c0.4,0.6,0.7,1.1,1.1,1.7
			c0.5,0.7,0.5,0.7,1.3,0.7c0.1,0,0.1-0.1,0.2-0.1c0.1-0.2-0.1-0.3-0.2-0.5C140.6,62.4,140.2,61.8,139.8,61.3z M139.6,59.9
			c-0.4,0.1-0.8,0.1-1.1,0.1c-0.4,0-0.5-0.1-0.5-0.5c0-0.2,0-0.5,0-0.7c0-0.9,0-0.8,0.9-0.8c0.1,0,0.3,0,0.4,0
			c0.7,0.1,1,0.5,0.9,1.2C140.1,59.6,140,59.8,139.6,59.9z"/>
		<path d="M128,58.4c-0.4-0.9-1.1-1.4-2.1-1.5c-1,0-1.7,0.5-2.1,1.4c-0.5,1.3-0.5,2.6,0,3.9c0.4,0.9,1.1,1.4,2.1,1.4s1.7-0.5,2-1.4
			c0.3-0.6,0.4-1.3,0.4-2.2C128.4,59.7,128.3,59.1,128,58.4z M127.1,61.9c-0.2,0.6-0.6,0.8-1.2,0.8c-0.6,0-0.9-0.3-1.1-0.8
			c-0.4-1.1-0.4-2.1,0-3.1c0.2-0.4,0.5-0.8,1-0.8c0.6-0.1,1.1,0.2,1.3,0.8c0.2,0.5,0.3,1,0.3,1.5C127.4,60.8,127.2,61.4,127.1,61.9z
			"/>
		<path d="M180.4,58.5c-0.4-1-1.2-1.5-2.2-1.5s-1.7,0.5-2.1,1.5c-0.3,0.6-0.3,1.3-0.3,2c0,0.5,0.1,1.1,0.3,1.7
			c0.4,1,1.2,1.5,2.1,1.6c1,0,1.8-0.5,2.2-1.5C180.8,61,180.8,59.7,180.4,58.5z M179.3,61.9c-0.2,0.5-0.6,0.8-1.1,0.8
			c-0.6,0-1-0.2-1.1-0.8c-0.4-1.1-0.4-2.2,0-3.2c0.2-0.5,0.6-0.8,1.1-0.7c0.6,0,0.9,0.3,1.1,0.8c0.2,0.5,0.3,1,0.3,1.6
			C179.6,60.8,179.6,61.4,179.3,61.9z"/>
		<path d="M58.5,60.3c0-0.9,0-1.9,0-2.8c0-0.3,0.1-0.4,0.4-0.4c0.1,0,0.1,0,0.2,0c0.2,0,0.4,0.1,0.4,0.4c0,0.6,0,1.2,0,1.8
			c0,0.5,0,0.5,0.5,0.5c1.8,0,1.5,0.3,1.5-1.5c0-0.2,0-0.5,0-0.7s0-0.4,0.2-0.4c0.2-0.1,0.5-0.1,0.7,0c0.1,0.1,0.1,0.2,0.1,0.4
			c0,1.3,0,2.5,0,3.8c0,0.6,0,1.2,0,1.8c0,0.3-0.1,0.4-0.5,0.4c-0.1,0-0.1,0-0.2,0c-0.2,0-0.4-0.1-0.4-0.4c0-0.7,0-1.3,0-2
			c0-0.4-0.1-0.4-0.4-0.4c-0.4,0-0.8,0-1.3,0c-0.2,0-0.3,0.1-0.3,0.3c0,0.7,0,1.4,0,2.1c0,0.3-0.1,0.4-0.4,0.4c-0.6,0-0.6,0-0.6-0.6
			C58.5,62.1,58.5,61.2,58.5,60.3z"/>
		<path d="M189.2,60.3c0-0.9,0-1.8,0-2.7c0-0.4,0.1-0.5,0.4-0.5c1.1,0,2.2,0,3.4,0c0.3,0,0.6,0.5,0.4,0.8c-0.1,0.1-0.2,0.1-0.4,0.1
			c-0.7,0-1.5,0-2.2,0c-0.4,0-0.5,0-0.5,0.5c0,0.1,0,0.2,0,0.3c0,1-0.1,0.9,0.9,0.9c0.4,0,0.7,0,1.1,0c0.2,0,0.4,0,0.4,0.2
			c0.1,0.2,0.1,0.4,0,0.6c0,0.1-0.2,0.1-0.3,0.1c-0.6,0-1.2,0-1.8,0c-0.2,0-0.3,0.1-0.3,0.3c0,0.5,0,0.9,0,1.4
			c0,0.2,0.1,0.2,0.3,0.2c0.8,0,1.5,0,2.3,0c0.4,0,0.5,0.1,0.5,0.5c0,0.3-0.1,0.4-0.4,0.4c-1.1,0-2.2,0-3.4,0
			c-0.3,0-0.4-0.1-0.4-0.4C189.2,62.2,189.2,61.3,189.2,60.3z"/>
		<path d="M134.5,59.6c0,0.6,0,1.1,0,1.7c0,0.2,0,0.5,0,0.7c-0.2,1.4-1.7,2.2-3,1.5c-0.5-0.3-0.8-0.8-0.9-1.3
			c-0.1-0.2-0.1-0.5-0.1-0.7c0-1.3,0-2.5,0-3.8c0-0.4,0.1-0.5,0.5-0.5c0.5,0,0.6,0.1,0.6,0.5c0,1.1,0,2.2,0,3.3c0,0.3,0,0.6,0.1,0.9
			c0.1,0.5,0.4,0.8,0.9,0.8s0.9-0.2,1-0.8c0.1-0.3,0.1-0.6,0.1-0.9c0-1.1,0-2.2,0-3.3c0-0.5,0.1-0.5,0.5-0.5s0.5,0,0.5,0.4
			C134.5,58.2,134.5,58.9,134.5,59.6L134.5,59.6z"/>
		<path d="M104.2,60.3c0-0.9,0-1.9,0-2.8c0-0.2,0.1-0.3,0.3-0.3c1.2,0,2.3,0,3.5,0c0.3,0,0.4,0.1,0.4,0.5c0,0.3-0.1,0.4-0.4,0.4
			c-0.7,0-1.5,0-2.2,0c-0.4,0-0.4,0.1-0.5,0.4c0,0.3,0,0.6,0,0.9c0,0.3,0.1,0.4,0.4,0.4c0.5,0,1,0,1.5,0s0.5,0.1,0.5,0.6
			c0,0.3-0.1,0.4-0.3,0.4c-0.5,0-1.1,0-1.6,0c-0.4,0-0.5,0-0.5,0.5c0,1.6-0.3,1.4,1.4,1.4c0.5,0,1,0,1.5,0c0.2,0,0.3,0.2,0.3,0.4
			s0,0.4-0.3,0.5c-0.2,0-0.4,0-0.6,0c-0.9,0-1.9,0-2.8,0c-0.4,0-0.4-0.1-0.4-0.4C104.2,62.2,104.2,61.2,104.2,60.3L104.2,60.3z"/>
		<path d="M204.4,57.1c0.7,0,1.3,0,2,0c0.2,0,0.3,0.1,0.3,0.3c0,0.6,0,1.2,0,1.8c0,0.3-0.2,0.3-0.4,0.3s-0.4,0-0.5-0.3
			c0-0.2,0-0.5,0-0.7c0-0.3-0.2-0.5-0.6-0.4c-0.1,0-0.2,0.1-0.2,0.2c0,0.1,0,0.2,0,0.3c0,1.2,0,2.4,0,3.6c0,0.5,0,0.5,0.6,0.5
			c0.1,0,0.2,0,0.3,0c0.2,0.1,0.2,0.4,0.2,0.6c0,0.2-0.1,0.3-0.2,0.3h-0.1c-0.8,0-1.7,0-2.5,0c-0.2,0-0.3-0.1-0.2-0.3
			c0-0.2,0-0.4,0.1-0.5c0.1-0.2,0.3-0.1,0.5-0.1c0.4-0.1,0.5-0.1,0.5-0.4c0-1.3,0-2.5,0-3.8c0-0.2-0.1-0.3-0.3-0.4
			c-0.3-0.1-0.5,0-0.6,0.4c0,0.2,0,0.4,0,0.5c0,0.4-0.4,0.6-0.8,0.5c-0.1,0-0.1-0.1-0.1-0.1c0-0.1-0.1-0.3,0-0.4
			c0-0.6-0.1-1.1,0.1-1.7c0.5-0.3,1.1-0.1,1.6-0.1C204,57.1,204.2,57.1,204.4,57.1L204.4,57.1z"/>
		<path d="M219.9,63.2c-0.6-1.9-1.2-3.8-1.7-5.7c-0.1-0.2-0.2-0.4-0.5-0.4c-0.1,0-0.2,0-0.3,0c-0.5,0-0.5,0-0.7,0.6
			c-0.6,1.8-1.1,3.6-1.7,5.4c0,0.1-0.1,0.3,0,0.4c0.1,0,0.2,0.1,0.4,0.1c0.5,0,0.6,0,0.7-0.5c0.1-0.3,0.2-0.6,0.3-1h1
			c1.1,0,1.1,0,1.4,1c0.1,0.4,0.2,0.5,0.7,0.5h0.1C219.9,63.5,220,63.4,219.9,63.2z M216.7,61c0.2-0.8,0.3-1.6,0.8-2.4
			c0.2,0.5,0.3,0.9,0.4,1.3C218.3,61.2,218.3,61.3,216.7,61z"/>
		<path d="M89.2,63.3c0-0.2-0.1-0.3-0.1-0.5c-0.5-1.6-1-3.2-1.5-4.8c0-0.1,0-0.1-0.1-0.2c-0.2-0.7-0.2-0.7-1-0.7
			c-0.4,0-0.4,0-0.6,0.5c-0.6,1.9-1.2,3.7-1.7,5.6c0,0.1,0,0.2,0,0.3c0.2,0,0.3,0.1,0.4,0.1c0.5,0,0.6,0,0.7-0.5
			c0.1-0.3,0.2-0.6,0.3-1c0.7,0,1.2,0,1.7,0c0.2,0,0.4,0.1,0.5,0.3c0.1,0.3,0.2,0.6,0.3,0.9c0,0.2,0.2,0.2,0.3,0.3
			c0.2,0,0.3,0,0.5,0C89.1,63.5,89.2,63.4,89.2,63.3z M87.2,61.1c-0.3,0-0.7,0-1,0c-0.2,0-0.2-0.2-0.2-0.3c0.2-0.7,0.4-1.4,0.7-2.3
			c0.3,0.9,0.5,1.6,0.7,2.3C87.5,60.9,87.4,61.1,87.2,61.1z"/>
		<path d="M184.2,60.3c0-0.6,0-1.3,0-1.9c0-0.3-0.1-0.4-0.4-0.4c-0.4,0-0.4,0.1-0.5,0.4c0,0.2,0,0.4,0,0.5c0,0.5-0.1,0.5-0.6,0.5
			c-0.2,0-0.3-0.1-0.3-0.3c0-0.5,0-1.1,0-1.6s0-0.5,0.5-0.5c1.2,0,2.4,0,3.7,0c0.4,0,0.4,0.1,0.5,0.4c0,0.5,0,1.1,0,1.6
			c0,0.3-0.1,0.4-0.5,0.4c-0.2,0-0.4,0-0.4-0.3c0-0.2,0-0.5,0-0.7c0-0.3-0.1-0.4-0.5-0.4c-0.2,0-0.3,0.1-0.3,0.3c0,1.3,0,2.6,0,3.9
			c0,0.3,0.1,0.4,0.4,0.4c0.1,0,0.1,0,0.2,0c0.4,0,0.5,0.1,0.5,0.5c0,0.2-0.1,0.4-0.3,0.4c-0.8,0-1.6,0-2.4,0
			c-0.3,0-0.4-0.1-0.4-0.4c0-0.4,0.1-0.5,0.4-0.5c0.1,0,0.2,0,0.3,0c0.2,0,0.3-0.1,0.3-0.3c0-0.5,0-1.1,0-1.6
			C184.2,60.6,184.2,60.4,184.2,60.3L184.2,60.3z"/>
		<path d="M68.5,59.7c-0.2-0.7-0.5-1.5-0.7-2.2c0-0.1,0-0.3-0.2-0.3c-0.3-0.1-0.6-0.1-0.9,0s-0.3,0.4-0.4,0.6
			c-0.5,1.5-0.9,2.9-1.4,4.4c-0.1,0.4-0.3,0.9-0.4,1.3c0.9,0.2,1,0.2,1.2-0.4c0.4-1.2,0.1-1,1.4-1c0.3,0,0.6,0,0.9,0
			c0.3,0.4,0.3,0.8,0.5,1.2c0.1,0.2,0.2,0.3,0.4,0.3c0.2,0,0.5,0.1,0.7-0.2C69.3,62.2,68.9,60.9,68.5,59.7z M67.6,61.1
			c-0.4,0-0.8,0-1.3,0c0.3-0.9,0.5-1.6,0.7-2.3c0.2,0,0.3,0.2,0.3,0.3c0.2,0.6,0.3,1.1,0.5,1.7C67.8,61,67.7,61.1,67.6,61.1z"/>
		<path d="M153.5,59.7c-0.2-0.7-0.5-1.5-0.7-2.2c0-0.1-0.1-0.3-0.2-0.3c-0.3-0.1-0.6-0.1-0.9,0c-0.3,0.1-0.3,0.4-0.4,0.6
			c-0.5,1.5-1,3-1.4,4.5c-0.1,0.4-0.3,0.8-0.3,1.2c0.1,0,0.1,0.1,0.2,0.1c0.1,0,0.2,0,0.3,0c0.4,0,0.4,0,0.6-0.4
			c0.1-0.4,0.1-0.9,0.4-1c0.3-0.1,0.8-0.1,1.1-0.1s0.6,0,0.8,0c0.3,0.4,0.3,0.8,0.4,1.1c0.1,0.3,0.2,0.4,0.5,0.4c0.2,0,0.3,0,0.7,0
			C154.2,62.2,153.9,60.9,153.5,59.7z M152.5,61.1c-1.5,0-1.3,0.1-0.9-1.2c0.1-0.4,0.2-0.8,0.4-1.4c0.4,1,0.6,1.7,0.7,2.5
			C152.7,61,152.6,61.1,152.5,61.1z"/>
		<path d="M56.2,58.4c0,0.2,0,0.5,0,0.7s0,0.4-0.2,0.4c-0.4,0.1-0.6,0-0.7-0.2s-0.1-0.4-0.2-0.6c-0.2-0.4-0.5-0.7-1-0.7
			s-0.9,0.2-1.1,0.7c-0.5,1.1-0.5,2.2,0,3.3c0.4,0.9,1.6,1,2.2,0.2c0.1-0.1,0.2-0.3,0.3-0.5c0.2-0.4,0.5-0.4,0.8-0.2
			c0.1,0.1,0.1,0.1,0.1,0.3c-0.2,1-1.1,1.8-2,1.9c-1,0.1-1.9-0.4-2.4-1.4c-0.6-1.3-0.6-2.6,0-4c0.1-0.3,0.3-0.5,0.5-0.8
			c0.6-0.6,1.6-0.8,2.3-0.3c0.3,0.2,0.4,0.3,0.6-0.1c0.1-0.2,0.4-0.1,0.6-0.1c0.1,0,0.2,0.1,0.2,0.2C56.2,57.7,56.2,58,56.2,58.4
			L56.2,58.4z"/>
		<path d="M172.3,57.1c-0.1,0-0.2,0-0.3,0c-0.7,0-1.3,0-2,0c-0.3,0-0.4,0.1-0.4,0.4c0,0.9,0,1.9,0,2.8l0,0c0,0.9,0,1.9,0,2.8
			c0,0.3,0.1,0.4,0.5,0.4h0.1c0.4,0,0.5-0.1,0.5-0.5c0-0.6,0-1.2,0-1.8c0-0.2,0.1-0.3,0.3-0.3c0.4,0,0.7,0,1,0
			c0.6-0.1,1.2-0.2,1.6-0.7C174.5,59,173.8,57.4,172.3,57.1z M172.3,59.9c-0.3,0.1-0.6,0.1-0.9,0.1l0,0c-0.1,0-0.3,0-0.4,0
			c-0.2,0-0.3-0.1-0.3-0.3s0-0.4,0-0.6c0.1-0.3-0.2-0.9,0.2-1c0.6-0.1,1.3-0.2,1.7,0.3C173.1,58.9,172.9,59.7,172.3,59.9z"/>
		<path d="M119.5,59.7c0.2-0.4,0.4-0.8,0.5-1.2c0.1-0.2,0.2-0.4-0.1-0.6c-0.2-0.1-0.1-0.3-0.1-0.5s0.1-0.3,0.3-0.3
			c0.5,0,0.9,0,1.4,0c0.2,0,0.4,0,0.4,0.3c0,0.2,0.1,0.5-0.2,0.6s-0.4,0.3-0.5,0.5c-0.3,0.5-0.5,1.1-0.8,1.6
			c-0.3,0.6-0.4,1.2-0.4,1.8c0,0.2,0,0.4,0.1,0.6c0.1,0.2,0.4,0.1,0.6,0.1c0.3,0.1,0.5,0.5,0.3,0.8c-0.1,0.1-0.2,0.1-0.3,0.1
			c-0.8,0-1.7,0-2.5,0c-0.2,0-0.3-0.1-0.3-0.3c0-0.4,0-0.5,0.3-0.6c0.1,0,0.3,0,0.4,0c0.2,0,0.3-0.1,0.3-0.3c0-0.7,0-1.5-0.4-2.1
			c-0.3-0.5-0.5-1.1-0.8-1.6c-0.1-0.3-0.2-0.5-0.5-0.6c-0.2-0.1-0.3-0.6-0.1-0.7c0.1-0.1,0.2-0.1,0.3-0.1c0.5,0,0.9,0,1.4,0
			c0.3,0,0.3,0.1,0.3,0.4c0,0.1,0,0.2,0,0.2c-0.1,0.2-0.3,0.4-0.3,0.5c0.1,0.3,0.2,0.7,0.4,1C119.2,59.4,119.2,59.6,119.5,59.7z"/>
		<path d="M158.6,63.5c-0.4,0-0.8,0-1.2,0c-0.3,0-0.4-0.1-0.4-0.5s0-0.4,0.4-0.4c0.1,0,0.2,0,0.3,0c0.2,0,0.3-0.1,0.3-0.3
			s0-0.4,0-0.6c0-1,0-2,0-3c0-0.6,0-0.6-0.6-0.6c-0.4-0.1-0.6-0.3-0.4-0.7c0-0.1,0.1-0.2,0.2-0.2c0.9,0,1.7,0,2.6,0
			c0.2,0,0.3,0.2,0.2,0.4c0,0.2,0,0.4-0.3,0.5c-0.2,0.1-0.5-0.1-0.7,0.1c-0.2,0.2-0.1,0.5-0.1,0.8c0,1.1,0,2.2,0,3.2
			c0,0.3,0.1,0.4,0.4,0.4c0.1,0,0.2,0,0.3,0c0.3,0,0.3,0.2,0.3,0.5c0,0.2-0.1,0.4-0.3,0.4C159.5,63.5,159.1,63.5,158.6,63.5
			L158.6,63.5z"/>
		<path d="M210.9,63.5c-0.4,0-0.8,0-1.2,0c-0.3,0-0.4-0.1-0.4-0.4c0-0.4,0-0.5,0.4-0.5c0.1,0,0.2,0,0.3,0c0.2,0,0.2-0.1,0.2-0.3
			c0-0.1,0-0.2,0-0.3c0-1.1,0-2.2,0-3.3c0-0.6,0-0.6-0.6-0.6h-0.1c-0.3,0-0.4-0.1-0.4-0.5c0-0.2,0.1-0.4,0.3-0.4c0.8,0,1.7,0,2.5,0
			c0.2,0,0.3,0.2,0.3,0.4s0.1,0.4-0.2,0.5h-0.1c-0.2,0-0.4,0-0.6,0.1c-0.2,0.2-0.1,0.5-0.1,0.7c0,1.1,0,2.2,0,3.3
			c0,0.4,0,0.4,0.5,0.5c0.1,0,0.1,0,0.2,0c0.3,0,0.3,0.1,0.4,0.5c0,0.3-0.1,0.4-0.4,0.4C211.8,63.5,211.3,63.5,210.9,63.5
			L210.9,63.5z"/>
		<path d="M79.1,59.9c0,0.7,0,1.3,0,2s0,0.7,0.7,0.7s1.3,0,2,0c0.4,0,0.6,0.4,0.4,0.7c0,0.1-0.1,0.2-0.2,0.2c-0.2,0-0.4,0-0.6,0
			c-0.9,0-1.9,0-2.8,0c-0.4,0-0.5-0.1-0.5-0.5c0-1.8,0-3.6,0-5.4c0-0.4,0.1-0.5,0.5-0.5c0.5,0,0.6,0,0.6,0.5
			C79.1,58.4,79.1,59.1,79.1,59.9z"/>
		<path d="M71.5,60.3c0-0.9,0-1.8,0-2.7c0-0.4,0.1-0.4,0.4-0.4c0.1,0,0.3,0,0.4,0s0.2,0.1,0.2,0.2c0,0.2,0,0.3,0,0.5
			c0,1.2,0,2.4,0,3.7c0,1.2-0.1,1.1,1.1,1.1c0.5,0,1.1,0,1.6,0c0.1,0,0.3,0,0.4,0.2s0.1,0.4,0,0.6c0,0.1-0.2,0.1-0.3,0.1
			c-1.2,0-2.4,0-3.5,0c-0.2,0-0.3-0.2-0.3-0.3C71.5,62.2,71.5,61.2,71.5,60.3L71.5,60.3z"/>
		<path d="M221.9,60.3c0-0.9,0-1.9,0-2.8c0-0.3,0.1-0.4,0.5-0.4c0.5,0,0.6,0.1,0.6,0.6c0,0.8,0,1.5,0,2.3c0,0.6,0,1.3,0,1.9
			c0,0.7,0,0.7,0.7,0.7c0.4,0,0.8,0,1.3,0c0.2,0,0.4,0,0.6,0c0.5,0,0.5,0.1,0.5,0.6c0,0.2-0.1,0.4-0.3,0.4c-1.2,0-2.4,0-3.6,0
			c-0.2,0-0.3-0.2-0.3-0.4C221.9,62.2,221.9,61.3,221.9,60.3L221.9,60.3z"/>
	</g>
</g>
<g>
	<g>
		<path class="st2" d="M21.2,40.5c1.7-0.1,3.3-0.1,4.9-0.2c0-0.1,0-0.1,0-0.2c-0.2,0-0.3-0.1-0.5-0.1c-1.1,0-2.3,0-3.4-0.1
			c-1.2-0.1-2.1-0.8-2.4-1.9c0-0.1-0.1-0.2-0.1-0.3c-0.1-2.8-1.9-4.7-3.7-6.6c-1.7-1.7-3-3.6-3.7-5.9c-1.1-4-0.7-7.9,1.5-11.4
			c2-3.2,4.8-5.3,8.4-6.3c4.7-1.3,8.9-0.3,12.7,2.5c2.4,1.8,4.3,4.1,5.1,7c1.3,4.6,0.6,8.8-2.6,12.5c-0.4,0.4-0.6,1-0.9,1.5
			c-0.5,0.7-1,1.4-1.6,2.1c-0.8,1-1.2,2.1-1.3,3.4c0,0.3,0,0.6-0.1,0.9c-0.1,0.8-0.4,1.4-1.3,1.7c-0.2,0.1-0.4,0.2-0.8,0.5
			c0.5,0.1,0.8,0.2,1.2,0.3c-0.4,0.7-1,0.7-1.5,0.8c-2.9,0.6-5.8,0.6-8.7,0.6C21.7,41.2,21.5,41,21.2,40.5z M23.3,27
			c0,0-0.1,0-0.1,0.1c-0.4-0.6-0.8-1.2-1.2-1.7c-0.3-0.6-0.7-0.6-1.3-0.4c-0.7,0.3-1.5,0.5-2.2,0.6c-0.4,0-0.8-0.2-1.2-0.4
			c0.2-0.4,0.3-0.8,0.6-1c1.6-1.3,3.4-2,5.4-2c1.2,0,2.5,0.1,3.7,0.2c2,0.2,4,0.5,5.9,1.3c1,0.4,2,0.6,3-0.3c0,0,0.1,0,0.2,0
			c-0.1,1.5-1.3,1.8-2.5,2.2c0.9,0.5,1.6-0.2,2.4-0.4c-0.4,1-1.4,1.3-2.5,0.9c-0.9-0.3-1.8-0.6-2.8-0.9c-0.4-0.2-0.8-0.2-1,0.4
			c-0.6,1.5-1.3,3.1-1.6,4.7c-0.4,2.5-0.4,5-0.5,7.6c0,0.7,0.1,1.4,0.1,2.1c0.3,0,0.6,0,0.7,0c-0.1-0.2-0.3-0.4-0.3-0.6
			c0.1-1.3,0.1-2.6,0.2-3.9c0.2-2,0.2-4.1,0.8-6c0.8-2.5,1.3-2.4,3.3-2.1c2.5,0.4,4.3-0.6,4.7-3.2c0-0.1,0.1-0.3,0.2-0.4
			c0.9-1.1,0.7-2.2,0.2-3.4c-0.1-0.2-0.3-0.3-0.6-0.6c0,1.2,0.6,2.1,0.1,3.3c-0.2-0.3-0.3-0.4-0.4-0.6c-0.5-0.8-1-0.9-1.5-0.1
			c-0.4,0.6-1,0.4-1.4-0.1c0.4-0.3,0.8-0.6,1-1s0.1-1,0.2-1.5c1.3-0.3,1.6-0.7,1.5-1.9c0-1.2-0.7-2.4-1.4-2.6c0,0.4,0,0.8,0,1.2
			c-0.3-0.3-0.4-0.7-0.7-1s-0.6-0.6-0.9-0.9c-0.2-0.2-0.5-0.2-0.7-0.3c-0.1,0.3-0.1,0.5-0.2,0.8c0,0-0.1,0-0.1,0.1
			c-0.3-0.9-0.9-1.4-1.7-1.7c-0.5-0.3-1-0.5-1.5-0.8c-0.3-0.1-0.6-0.2-0.9-0.3c0,0.3,0,0.6-0.1,0.9c0,0,0,0-0.1,0.1
			c-0.1-0.2-0.2-0.4-0.3-0.6c-0.5-1.2-1.4-1.7-2.7-1.7c-2.3-0.1-4.8,2.1-5.5,3.6c-1-0.5-1.6-0.3-2.4,0.5c-0.5,0.6-0.7,1.2-0.7,2
			c0,0.2-0.1,0.5-0.2,0.7c-0.8,0.7-1.1,1.6-0.6,2.5c0.2,0.3,0.6,0.5,0.9,0.8c0.1,0.1,0.3,0.1,0.4,0.2c0.2,0.6,0.7,0.9,1.4,0.8
			c-0.6,0.7-1.2,1.4-1.8,2.1c0-0.3,0-0.6,0-0.8c0-0.6-0.3-0.9-0.9-1c-0.6,0-0.9,0.3-0.9,0.9c0,0.7,0.1,1.4,0.4,2
			c0.9,1.7,2.8,2.4,4.6,1.9c1.1-0.3,2-0.5,2.9,0.6c0.4,0.5,0.8,0.9,0.8,1.6c0,0.8,0,1.6,0.3,2.2c0.7,1.9,1.2,3.8,1.1,5.8
			c0,0.3,0.1,0.6,0.1,1c0.1,0,0.2,0,0.2,0c0-0.2,0.1-0.4,0.1-0.6c0.1-1.6,0-3.2-0.4-4.8c-0.5-1.9-0.9-3.9-1.4-5.8c0-0.1,0-0.1,0-0.2
			c-0.2-0.7-0.3-1.5-0.5-2.2c-0.1-0.4-0.3-0.9-0.8-0.6c-0.1,0.1-0.1,0.7,0.1,1C22.6,25.8,23,26.4,23.3,27z M27.9,24.7
			c-0.2-0.1-0.5-0.3-0.8-0.4c-0.5-0.2-1.1-0.3-1.6-0.4c-0.2,0-0.6-0.2-0.7,0c-0.1,0.1-0.1,0.5-0.1,0.7c0.1,0.8,0.3,1.5,0.3,2.3
			c0,2.6,0.1,5.1,0.6,7.7c0.3,1.4,0.3,2.8,0.5,4.3c0,0.2,0.3,0.4,0.5,0.6c0.2-0.2,0.4-0.3,0.6-0.5c0.1-0.2,0.1-0.4,0.1-0.6
			c0-1.6,0-3.1-0.2-4.6c-0.4-2.4-0.3-4.8,0.3-7.1C27.6,25.9,27.7,25.4,27.9,24.7z M27.3,31.6c0.1,0,0.1,0,0.2,0
			c0-0.4,0.1-0.8,0.1-1.1c0-1.3,0.4-2.6,0.9-3.8c0.2-0.5,0.5-1,0.6-1.5c0.1-0.2-0.1-0.4-0.1-0.6c-0.2,0.1-0.4,0.1-0.5,0.3
			c-0.2,0.3-0.3,0.6-0.5,0.9C27.3,27.6,27.1,29.6,27.3,31.6z M24.5,28.9c0.1,0,0.1,0,0.2,0c0.1-1.5,0-3.1-0.6-4.5
			c-0.1-0.1-0.2-0.3-0.3-0.4c-0.1-0.1-0.4-0.2-0.5-0.2s-0.2,0.3-0.2,0.5s0.1,0.4,0.2,0.5c0.3,0.9,0.6,1.8,0.9,2.8
			C24.5,28,24.5,28.5,24.5,28.9z M31.5,12.4c0.1-0.3,0.1-0.4,0.1-0.5c-0.1-0.8-1.3-2.1-2.1-2.1c-0.1,0-0.3,0.1-0.3,0.1
			c0,0.2,0,0.4,0.1,0.5c0.4,0.5,0.9,1,1.4,1.4C31,11.9,31.2,12.1,31.5,12.4z"/>
		<path class="st2" d="M31.1,55.9c-0.1,0.4-0.2,0.8-0.2,1.2c0.1,0,0.1,0.1,0.2,0.1c0.2-0.2,0.3-0.4,0.4-0.7c0.2-0.5,0.5-1.1,0.7-1.6
			c0.2-0.4,0.4-0.5,0.8-0.4c2.3,0.9,4.6,1.8,6.8,2.8c0.6,0.2,1,0.7,1.5,1.1c0.1,0,0.1-0.1,0.2-0.1c-0.1-0.2-0.2-0.5-0.4-0.6
			c-1-0.7-2-1.4-3.1-1.9c-1.4-0.7-2.8-1.1-4.2-1.7c-0.8-0.3-0.8-0.5-0.5-1.2c0.3-0.6,0.6-1.3,0.8-1.9c0.2-0.6,0.6-0.8,1.2-0.6
			c2,0.7,4.1,1.4,6.1,2.2c0.8,0.3,1.3,1.1,1.7,2c0.8,1.7,0.3,2.9-0.5,4.4c-2.7,4.8-5.4,9.6-8.1,14.5c-0.2,0.3-0.4,0.7-0.5,1.1
			c-0.2,1-0.8,1.3-1.7,1.2c-1.5-0.1-3-0.1-4.5-0.1c-2.5,0-5.1,0.1-7.6,0.1c-0.2,0-0.4,0-0.7,0c0.1-0.6,0.1-1.2,0.2-1.7
			c1,0.3,1.9,0.6,2.9,0.7c0.9,0.1,1.9,0,2.8,0c0-0.1,0-0.2,0-0.2c-0.3-0.1-0.5-0.1-0.8-0.2c-1.2-0.2-2.4-0.4-3.6-0.6
			c-0.8-0.2-1.2-0.8-1.3-1.7c0.5,0,0.7,0.2,0.7,0.7c0,0.2,0.2,0.5,0.4,0.6c1.2,0.4,2.4,0.5,3.6,0.3c0-0.1,0-0.1,0-0.2
			c-1.2-0.2-2.3-0.5-3.5-0.7c0-0.1,0-0.1,0-0.2c0.4,0,0.8,0,1.2,0c2.5,0,4.8-1.5,5.6-3.9c0.8-2.3,0.6-4.7-0.2-7
			c-0.2-0.6-0.2-1,0.3-1.5c0.4-0.4,0.7-0.9,1.1-1.3c0.2-0.2,0.8-0.3,1-0.2c2.4,1.3,4.8,2.6,7.2,4c0.1,0,0.1,0.1,0.2,0.2
			c0.2,0,0.3,0,0.5,0c-0.1-0.2,0-0.4-0.2-0.5c-0.9-0.6-1.7-1.3-2.7-1.8c-1.6-0.8-3.1-1.6-4.7-2.4c-0.7-0.3-0.8-0.5-0.4-1.2
			c0.2-0.4,0.4-0.7,0.5-1.1c0-0.1,0.1-0.2,0.1-0.2C31,55.8,31.1,55.9,31.1,55.9z M34.1,52.8c0.1,0,0.2,0.1,0.2,0.1
			c0.1-0.2,0.3-0.4,0.4-0.6c0.2-0.3,0.4-0.5,0.6-0.8c0.1-0.2,0.3-0.4,0.3-0.6c0-0.1-0.3-0.3-0.4-0.3c-0.2,0.1-0.6,0.2-0.7,0.4
			C34.4,51.6,34.3,52.2,34.1,52.8z"/>
		<path class="st2" d="M26.2,69.8c0.4-0.5,0.7-0.9,1.2-1.5c-0.8,2.7-3.7,4.3-6.2,3.3c-0.3-0.1-0.5-0.5-0.8-0.9
			c-0.1-0.2-0.2-0.5-0.3-0.7c-1.7-2.1-3.4-4.3-5.1-6.4c-1.5-1.9-2.9-4-4.3-5.9c-1-1.4-0.9-2.4,0.4-3.6c1.1-1,2.9-2,3.9-2.1
			c0,0.2,0.1,0.5,0.2,0.8c0.6-0.2,1.1-0.4,1.6-0.6c1-0.4,1.9-0.2,2.7,0.6c2.2,2.3,4.5,4.6,6.6,7c1.3,1.6,1.8,3.6,1.7,5.7
			c-0.1,1.3-0.7,2.4-1.4,3.5c-0.1,0.2-0.2,0.4-0.3,0.6C26,69.7,26.1,69.7,26.2,69.8z M15.7,55c-0.8,0.3-1,0.7-0.4,1.5
			c1.6,1.8,3.2,3.6,4.8,5.4c0.7,0.8,1.7,1.3,2.1,2.2c0.1,0.1,0.4,0.1,0.7,0.2c0.1-0.2,0.2-0.5,0.2-0.7c-0.1-0.3-0.4-0.5-0.6-0.7
			c-1-1.2-2-2.4-3-3.6c-0.2-0.3-0.6-0.3-0.8-0.5c-0.6-0.7-1.1-1.5-1.7-2.2C16.6,56,16.2,55.5,15.7,55z M24.1,64.8
			c-0.3-0.2-0.5-0.5-0.5-0.5c-0.2,0.1-0.4,0.3-0.5,0.5c0,0.1,0.2,0.4,0.3,0.4C23.7,65.2,23.8,65,24.1,64.8z"/>
		<path class="st2" d="M43.1,53.6c-0.6-1.3-1.8-1.8-3-2.2c-1.6-0.6-3.3-1.1-4.9-1.7c-0.3-0.1-0.6-0.2-0.9-0.4c0-0.1,0-0.1,0.1-0.2
			c0.9,0.1,1.7,0.3,2.5,0.4c0-0.1,0-0.2,0.1-0.2c-0.1-0.1-0.3-0.2-0.4-0.2c-0.4-0.1-0.9-0.2-1.3-0.4c-1.2-0.3-1.3-0.5-1.1-1.7
			c0.1-0.6,0.2-1.1,0.3-1.6c0.1-0.2,0.4-0.6,0.6-0.6c0.6,0,1.3,0.2,1.9,0.4c0.2,0,0.3,0,0.5,0c0-0.2,0-0.4,0-0.5
			c-0.1-0.1-0.3-0.2-0.4-0.3c-0.2-0.1-0.5-0.1-0.7-0.1c-1.9-0.2-1.7-0.3-1.2-2.1c0-0.2,0.4-0.4,0.6-0.4c0.6,0,1.2,0.2,1.8,0.3
			c0.2,0,0.3-0.1,0.5-0.1c-0.1-0.1-0.2-0.3-0.4-0.4c-0.5-0.1-1-0.2-1.5-0.4c-0.5-0.1-0.8-0.4-0.7-0.9c0.1-0.8,0.2-1.6,0.3-2.5
			c0.8,0.3,1.4,0.5,2,0.8c0.2,0.1,0.4,0,0.5,0c0.2-0.1,0.4-0.2,0.6-0.3c0.8-0.2,0.9,0,0.8,0.8c-0.2,2.1-0.4,4.3-0.6,6.4
			c-0.1,1,0.6,1.9,1.7,2.1c0.8,0.2,1.7,0.2,2.5,0.4c0.3,0.1,0.6,0.2,0.8,0.5C45.3,49.9,44.8,52.5,43.1,53.6z"/>
		<path class="st2" d="M41.8,42.2c-0.2-0.1-0.4-0.3-0.6-0.4c-0.6-0.4-1-0.8-0.9-1.6c0.3-1.3,0.5-2.6,0.8-3.9
			c0.1-0.3,0.3-0.6,0.5-0.8c0.4-0.5,0.8-1,1.6-0.8s1.4,0.6,1.6,1.4c0.1,0.4,0.2,0.8,0.2,1.2c-0.1,2.9-0.3,5.8-0.5,8.7
			c0,0.3,0,0.6-0.2,0.9c-0.1,0.2-0.4,0.5-0.6,0.4c-1.1-0.2-2.2-0.4-3.2-0.7c-0.6-0.2-0.8-0.8-0.8-1.4c0-0.8,0.2-1.7,0.3-2.5
			c0.1-0.7,0.2-0.8,0.9-0.5c0.3,0.1,0.6,0.1,0.8,0.2C41.8,42.4,41.8,42.3,41.8,42.2z"/>
		<path class="st2" d="M7.6,36.1c1.6,0.1,2.6,0.8,3.2,1.9c0.5,0.9,0.9,1.8,1.1,2.7c0.4,1.3,0.6,2.7,0.8,4.1c0.1,0.4,0.1,0.7-0.3,0.9
			c-1.2,0.5-2.5,0.9-3.7,1.4c-0.6,0.2-1,0-1.1-0.7c-0.4-2.6-0.9-5.2-1.3-7.7c-0.1-0.9-0.2-1.7,0.6-2.3C7.2,36.2,7.5,36.2,7.6,36.1z
			 M7.9,37.4c0.6,1.3,1.3,2.6,1.8,4c0.4,1.4,0.6,2.9,0.9,4.4C11.4,44.3,9.9,38.9,7.9,37.4z"/>
		<path class="st2" d="M36.2,32.6c0.1,0.2,0.1,0.4,0.2,0.6h0.1c0-0.2,0.1-0.3,0.1-0.5c0.2-0.6,0.3-1.3,0.6-1.9
			c0.3-0.9,0.9-1.2,1.8-1.1c0.7,0.1,1.2,0.5,1.2,1.4c0,1.9-0.1,3.8-0.2,5.7c0,0.2-0.3,0.6-0.5,0.6c-1.1,0.1-2.3,0.1-3.2-0.7
			c-0.2-0.2-0.5-0.6-0.5-0.8c0-1.1,0.2-2.3,0.3-3.4C36.1,32.6,36.2,32.6,36.2,32.6z"/>
		<path class="st2" d="M10.1,52.8C9.6,51.5,9,50.2,8.5,49c-0.3-0.6-0.2-1,0.5-1.1c0.4-0.1,0.8-0.3,1.1-0.3c0.3-0.1,0.7,0,1.1,0
			c0.1-0.3,1.4-1.2,1.8-1.1c0.1,0,0.3,0.2,0.4,0.3c0.5,1.3,1,2.6,1.5,3.9c0.1,0.2-0.1,0.5-0.3,0.6c-1.2,0.7-2.3,1.4-3.5,2.1
			c-0.5,0.3-0.7,0-0.9-0.4C10.2,52.8,10.1,52.8,10.1,52.8z"/>
		<path class="st2" d="M23.4,42.9c-0.5-0.1-0.9-0.2-1.4-0.4c-0.2-0.1-0.3-0.3-0.5-0.5c0.2-0.1,0.4-0.2,0.6-0.2
			c1.4-0.1,2.7,0,4.1-0.1c1.9-0.2,3.9-0.5,5.8-0.8c0.2,0,0.4,0,0.8,0c-0.4,0.7-0.9,0.9-1.4,1c-1.8,0.3-3.6,0.5-5.4,0.8
			c-0.3,0-0.5,0.1-0.8,0.2c0,0.1,0,0.1,0,0.2c0.2,0,0.4,0.1,0.7,0.1c2-0.3,3.9-0.6,5.9-0.8c0.3,0,0.6-0.1,0.9-0.1
			c0,0.1,0.1,0.2,0.1,0.2C32.5,42.7,32.3,43,32,43c-1.5,0.3-3,0.6-4.6,0.8c-1.5,0.2-3,0.2-4.6,0.3c-0.2,0-0.4,0-0.6,0
			c-0.2-0.1-0.4-0.3-0.6-0.4c0.2-0.1,0.4-0.3,0.6-0.4c0.4-0.1,0.8-0.1,1.2-0.1C23.4,43,23.4,43,23.4,42.9z"/>
		<path class="st2" d="M21.8,50.2c0.4-0.1,0.6-0.1,0.9-0.2c2.9-0.3,5.7-0.6,8.6-0.8c0.3,0,0.5-0.1,0.8-0.2c0.2,0,0.5,0,0.7,0
			c-0.1,0.2-0.1,0.5-0.3,0.7c-0.6,0.8-1.4,1.3-2.4,1.4c-1.9,0.1-3.9,0.3-5.8,0.4C23.3,51.6,22.6,51.1,21.8,50.2z"/>
		<path class="st2" d="M23.4,47.6c-0.5,0-0.9,0-1.4,0c-0.2,0-0.5-0.3-0.5-0.4c0-0.2,0.2-0.5,0.4-0.6c0.3-0.2,0.7-0.2,1-0.3
			c2.7-0.3,5.4-0.7,8.1-1c0.3,0,0.6-0.1,0.9-0.1c0.6-0.1,0.7,0.4,0.8,0.8c0.1,0.5-0.2,0.6-0.6,0.7c-2,0.3-4,0.5-6.1,0.7
			C25.1,47.6,24.3,47.6,23.4,47.6C23.4,47.7,23.4,47.7,23.4,47.6z"/>
		<path class="st2" d="M22.4,45.9c-0.1,0-0.3,0-0.4,0c-0.2-0.1-0.4-0.3-0.6-0.4c0.2-0.2,0.3-0.6,0.5-0.7c0.9-0.2,1.9-0.2,2.8-0.4
			c2.4-0.3,4.8-0.7,7.1-1c0.1,0,0.1,0,0.2,0c0.3,0.1,0.6,0.2,0.9,0.3c-0.2,0.3-0.4,0.7-0.7,0.7c-1.8,0.4-3.7,0.7-5.6,1
			C25.3,45.8,23.8,45.9,22.4,45.9C22.4,46,22.4,46,22.4,45.9z"/>
		<path class="st2" d="M24.3,52.4c2-0.2,4-0.3,6-0.1c-0.4,1.7-1.3,2.4-2.9,2.5C25.9,54.8,24.8,54,24.3,52.4z"/>
		<path class="st2" d="M23.1,49.4c-0.3,0-0.9,0-1.4-0.2c-0.2,0-0.4-0.3-0.5-0.5c0.2-0.1,0.4-0.3,0.6-0.3c2.3-0.2,4.6-0.3,6.9-0.5
			c1.1-0.1,2.2-0.3,3.2-0.4c0.2,0,0.5,0.2,0.7,0.3c-0.2,0.2-0.4,0.6-0.6,0.6c-1.1,0.2-2.2,0.4-3.4,0.5
			C26.9,49.1,25.1,49.2,23.1,49.4z"/>
		<path class="st2" d="M18.9,26c-0.9,0.5-2.4-0.1-2.9-1.1C17,25.3,17.9,25.7,18.9,26z"/>
		<path class="st2" d="M18.9,20.9c0-0.5-0.1-1-0.1-1.5c0.1,0,0.1,0,0.2,0c0,0.5,0.1,1,0.1,1.5C19.1,20.9,19,20.9,18.9,20.9z"/>
	</g>
	<g class="st0">
		<path class="st3" d="M68.8,41c0-0.3,0-0.7,0-1c0-4.2,0-8.4,0-12.7c0-0.3,0-0.6,0-0.8c0-0.2,0.1-0.3,0.3-0.3c0.2,0,0.4,0,0.5,0
			c1.5,0,3,0,4.5,0c0.8,0,0.8,0,0.8,0.9c0,0.1,0,0.2,0,0.3c0,7.7,0,15.3,0,23c0,1.3,0.1,1.2-1.2,1.2c-1.5,0-2.9,0-4.4,0
			c-0.5,0-0.8-0.2-1-0.6c-1.8-2.8-3.7-5.5-5.5-8.3c-1.3-1.9-2.5-3.8-3.8-5.6c-0.1-0.2-0.2-0.3-0.4-0.5c-0.3,0.2-0.2,0.5-0.2,0.7
			c0,4.3,0,8.7,0,13c0,1.5,0.2,1.3-1.3,1.3c-1.3,0-2.7,0-4,0c-0.2,0-0.4,0-0.6,0c-0.1,0-0.2-0.1-0.2-0.2c0-0.2,0-0.5,0-0.7
			c0-7.8,0-15.6,0-23.4c0-0.1,0-0.2,0-0.3c0-0.7,0-0.7,0.7-0.7c1.7,0,3.3,0,4.9,0c0.4,0,0.6,0.1,0.8,0.4c0.8,1.2,1.7,2.4,2.5,3.7
			c2.2,3.3,4.5,6.6,6.7,9.9c0.2,0.3,0.4,0.6,0.7,1C68.7,41,68.7,41,68.8,41z"/>
		<path class="st3" d="M84.3,36.5c0,0.4,0,0.8,0,1.1c0,4.3,0,8.6,0,12.9c0,1,0,0.9-0.9,0.9c-1.6,0-3.1,0-4.7,0
			c-0.4,0-0.5-0.1-0.5-0.5c0-0.2,0-0.5,0-0.7c0-7.7,0-15.3,0-23c0-1.3-0.1-1.2,1.2-1.2c1.4,0,2.7,0,4.1,0c1,0,0.8-0.1,1.4,0.7
			c1.8,2.6,3.6,5.3,5.3,7.9c1.3,1.9,2.6,3.9,3.9,5.8c0.1,0.2,0.2,0.3,0.4,0.5c0.3-0.2,0.2-0.4,0.2-0.7c0-4.3,0-8.7,0-13
			c0-1.5-0.2-1.3,1.3-1.3c1.4,0,2.9,0,4.3,0c0.6,0,0.6,0,0.6,0.7c0,0.2,0,0.4,0,0.5c0,7.7,0,15.3,0,23c0,1.3,0.1,1.2-1.2,1.2
			c-1.5,0-3,0-4.5,0c-0.4,0-0.7-0.1-0.9-0.5c-0.8-1.1-1.5-2.3-2.3-3.4c-2.4-3.5-4.7-7-7.1-10.5C84.8,36.9,84.7,36.7,84.3,36.5z"/>
		<path class="st3" d="M126.6,30.3c0-0.3-0.1-0.7-0.1-1c-0.1-1.5-1.6-3.2-3.7-3.2c-5.1,0-10.1,0-15.2,0c-1.8,0-3.7,1.6-3.7,3.5
			c0,0.3,0,0.6,0,0.8c0,2.8,0,5.5,0,8.3s0,5.5,0,8.3c0,0.4,0,0.8,0,1.2c0,0.6,0.3,1.2,0.6,1.7c0.8,1.1,1.8,1.7,3.2,1.6
			c5,0,9.9,0,14.9,0c0.1,0,0.3,0,0.4,0c1.7-0.1,3.1-1.4,3.4-3c0.1-0.4,0.1-0.8,0.1-1.2C126.6,41.7,126.6,36,126.6,30.3z M120.4,45.4
			c0,0.5-0.3,0.8-0.8,0.8c-0.2,0-0.4,0-0.6,0c-2.4,0-4.9,0-7.3,0c-1.1,0-1.5-0.2-1.5-1.6c0-4,0-7.9,0-11.8c0-1.4,0.2-1.5,1.5-1.5
			c2.4,0,4.9,0,7.3,0h0.1c1.1,0,1.3,0.2,1.3,1.3c0,2.1,0,4.1,0,6.2c0,1.9,0,3.9,0,5.9C120.4,44.9,120.4,45.2,120.4,45.4z"/>
		<path class="st3" d="M181.7,51c-2.7-8.3-5.5-16.6-8.2-24.9c-0.3,0-0.6,0-0.8,0c-2.8,0-5.5,0-8.3,0c-1,0-0.9-0.1-1.2,0.8
			c-1,3.1-2,6.2-3.1,9.3c-1.6,4.9-3.2,9.7-4.8,14.5c-0.1,0.2-0.2,0.4,0,0.6c0.2,0,0.3,0,0.5,0c1.7,0,3.4,0,5.1,0c0.1,0,0.1,0,0.2,0
			c0.5,0,0.5,0,0.7-0.5c0.1-0.2,0.1-0.3,0.2-0.5c0.3-1,0.7-2.1,1-3.1c0.3-0.7,0.1-0.7,0.9-0.7c3,0,6.1,0,9.1,0c0.6,0,0.6,0,0.8,0.6
			c0.4,1.2,0.8,2.4,1.3,3.7c0.2,0.5,0.2,0.5,0.7,0.6c1.5,0,3,0,4.5,0h1.3C181.7,51.3,181.7,51.1,181.7,51z M165.1,41.3
			c1.1-3.3,2.2-6.6,3.4-9.9c1.2,3.3,2.4,6.6,3.4,9.9C170.8,41.5,165.9,41.5,165.1,41.3z"/>
		<path class="st3" d="M215.9,38.9c0-3.8,0-7.6,0-11.4c0-0.3,0-0.6,0-0.8c0-0.4,0.1-0.4,0.4-0.5c0.2,0,0.5,0,0.7,0
			c6.2,0,12.4,0,18.7,0c1.3,0,1.2-0.1,1.2,1.2c0,1.2,0,2.4,0,3.6c0,0.4-0.1,0.4-0.4,0.5c-0.3,0-0.6,0-0.8,0c-4.1,0-8.2,0-12.3,0
			c-0.3,0-0.6,0-0.8,0c-0.4,0-0.4,0.1-0.4,0.4c0,0.9,0,1.9,0,2.8c0,0.4,0,0.8,0,1.3c0,0.2,0.1,0.3,0.3,0.3c0.3,0,0.6,0,0.8,0
			c2.9,0,5.9,0,8.8,0c0.2,0,0.4,0,0.5,0c0.8,0,0.8,0,0.8,0.8c0,1.3,0,2.7,0,4c0,0.4-0.1,0.5-0.5,0.5c-1.2,0-2.4,0-3.6,0
			c-2,0-4.1,0-6.1,0c-0.2,0-0.5,0-0.7,0c-0.3,0-0.4,0.2-0.4,0.4c0,0.3,0,0.6,0,0.8c0,1,0,2,0,3c0,0.5,0.1,0.5,0.6,0.5
			c0.2,0,0.5,0,0.7,0c4.1,0,8.2,0,12.3,0c1.5,0,1.3-0.2,1.3,1.3c0,1.2,0,2.3,0,3.5c0,0.4-0.1,0.4-0.4,0.4c-0.2,0-0.4,0-0.6,0
			c-6.3,0-12.6,0-18.9,0c-1.2,0-1,0.1-1-1.1C215.9,46.5,215.9,42.7,215.9,38.9z"/>
		<path class="st3" d="M128.5,26.1c0.5,0,1,0,1.6,0c1.4,0,2.8,0,4.2,0c0.6,0,0.6,0,0.7,0.5c0.8,2.4,1.7,4.9,2.5,7.3
			c1.3,3.9,2.6,7.7,3.9,11.6c0.1,0.2,0,0.4,0.3,0.6c0.2,0,0.2-0.2,0.3-0.4c0.1-0.1,0.1-0.3,0.1-0.4c1.6-4.8,3.2-9.6,4.9-14.4
			c0.5-1.4,1-2.8,1.5-4.3c0.2-0.6,0.2-0.6,0.8-0.6c1.8,0,3.6,0,5.3,0c0.1,0,0.3,0,0.4,0c0.1,0.3,0,0.6-0.1,0.8
			c-1.4,4.4-2.9,8.7-4.3,13.1c-1.1,3.3-2.2,6.6-3.3,9.9c-0.1,0.2-0.2,0.5-0.2,0.7c-0.3,0.8-0.3,0.7-0.9,0.7c-2.9,0-5.8,0-8.7,0
			c-0.5,0-0.6,0-0.7-0.5c-0.9-2.5-1.7-5.1-2.5-7.7c-1.3-3.8-2.5-7.7-3.8-11.5c-0.5-1.6-1-3.1-1.5-4.7
			C128.5,26.8,128.3,26.5,128.5,26.1z"/>
		<path class="st3" d="M202.8,26.1c3.4,0,6.8,0,10.2,0c0.2,0,0.5,0,0.7,0c0.4,0,0.4,0.1,0.5,0.4c0,0.4,0,0.7,0,1.1
			c0,1.1,0,2.2,0,3.3c0,0.4-0.1,0.5-0.5,0.5c-2.1,0-4.1,0-6.2,0c-0.5,0-1-0.2-1.3,0.1c-0.4,0.3-0.2,0.9-0.2,1.4c0,5.8,0,11.7,0,17.5
			c0,1.2,0.1,1.1-1.1,1.1c-1.5,0-3.1,0-4.6,0c-0.4,0-0.5-0.1-0.5-0.5c0-0.3,0-0.6,0-0.8c0-5.8,0-11.7,0-17.5c0-0.3,0-0.6,0-0.8
			c0-0.4-0.1-0.5-0.5-0.5c-0.6,0-1.2,0-1.8,0c-1.7,0-3.4,0-5,0c-0.2,0-0.4,0-0.5,0c-0.3,0-0.4-0.2-0.4-0.4c0-0.1,0-0.3,0-0.4
			c0-1.3,0-2.6,0-3.9c0-0.4,0.1-0.5,0.5-0.5c0.9,0,1.7,0,2.6,0C197.3,26.1,200,26.1,202.8,26.1z"/>
		<path class="st3" d="M49.1,38.8c0,3.9,0,7.8,0,11.7c0,1,0,0.9-0.9,0.9c-1.5,0-2.9,0-4.4,0c-0.2,0-0.4,0-0.5,0
			c-0.2,0-0.3-0.1-0.3-0.3s0-0.5,0-0.7c0-7.8,0-15.5,0-23.3c0-1.1-0.1-1,1-1c1.4,0,2.9,0,4.3,0c0.2,0,0.4,0,0.5,0
			c0.2,0,0.3,0.1,0.3,0.3c0,0.3,0,0.6,0,0.8C49.1,31.1,49.1,35,49.1,38.8z"/>
		<path class="st3" d="M189.7,38.9c0,3.9,0,7.8,0,11.6c0,1,0,0.9-0.9,0.9c-1.6,0-3.1,0-4.7,0c-0.4,0-0.5-0.1-0.5-0.5
			c0-0.2,0-0.5,0-0.7c0-7.7,0-15.3,0-23c0-1.4-0.2-1.2,1.2-1.2s2.7,0,4.1,0c0.2,0,0.4,0,0.5,0c0.2,0,0.3,0.1,0.3,0.3
			c0,0.3,0,0.6,0,0.8C189.7,31.2,189.7,35.1,189.7,38.9z"/>
		<path class="st3" d="M196.8,59.5c0,0.9,0,1.9,0,2.8c0,0.3,0,0.6,0,0.8c0,0.4-0.1,0.5-0.5,0.4c-0.1,0-0.2,0-0.3,0s-0.2-0.1-0.2-0.2
			c0-0.1,0-0.2,0-0.3c0-1.8,0-3.6,0-5.3c0-0.2,0-0.4,0.1-0.5c0.3-0.1,0.7-0.1,1,0c0.2,0.1,0.3,0.3,0.3,0.5c0.4,1,0.8,1.9,1.2,2.9
			c0,0.1,0.1,0.2,0.1,0.3c0,0,0.1,0.1,0.2,0.1c0.1,0,0.1,0,0.1-0.1c0-0.9,0-1.9,0-2.8c0-0.2,0-0.4,0-0.6c0-0.1,0.1-0.2,0.2-0.2
			c0.2-0.1,0.5-0.1,0.7,0c0.1,0,0.1,0.2,0.1,0.2c0,1.9,0,3.8,0,5.8c0,0.2-0.1,0.3-0.3,0.3s-0.4,0-0.6,0c-0.2,0-0.3-0.1-0.3-0.2
			c-0.1-0.3-0.2-0.5-0.3-0.8c-0.4-1-0.8-2.1-1.3-3.1C197,59.4,196.9,59.5,196.8,59.5z"/>
		<path class="st3" d="M95.2,63.5c-0.2,0.1-0.5,0.1-0.7,0.1c-0.3,0-0.4-0.1-0.5-0.4c-0.4-1-0.8-2-1.2-3c-0.1-0.2-0.2-0.4-0.3-0.7
			c-0.3,0.1-0.2,0.3-0.2,0.4c0,1,0,1.9,0,2.9c0,0.7,0,0.8-0.8,0.7c-0.2,0-0.2-0.1-0.2-0.3c0-0.3,0-0.6,0-0.9c0-1.6,0-3.1,0-4.7
			c0-0.4,0.1-0.5,0.5-0.5c0.1,0,0.3,0,0.4,0c0.2,0,0.4,0.1,0.5,0.3c0.2,0.5,0.4,1,0.6,1.6c0.3,0.7,0.6,1.3,0.8,2
			c0.3-0.1,0.2-0.3,0.2-0.5c0-1,0-1.9,0-2.9c0-0.4,0.1-0.5,0.5-0.5c0.1,0,0.2,0,0.3,0c0.2,0,0.2,0.1,0.2,0.3c0,0.1,0,0.3,0,0.4
			c0,1.7,0,3.4,0,5.1C95.3,63.1,95.3,63.3,95.2,63.5z"/>
		<path class="st3" d="M102,58.3c0,0.2,0,0.5,0,0.7s0,0.4-0.3,0.4c-0.4,0.1-0.6,0-0.7-0.3c-0.1-0.2-0.1-0.4-0.2-0.6
			c-0.4-0.8-1.6-0.8-2-0.1c-0.2,0.4-0.3,0.8-0.4,1.2c-0.1,0.7-0.1,1.3,0.2,2c0.2,0.6,0.5,1,1.2,1.1s1.1-0.2,1.4-0.9
			c0.1-0.2,0.1-0.3,0.1-0.5c0-0.1-0.1-0.2-0.2-0.2c-0.2,0-0.4,0-0.6,0c-0.4,0-0.5-0.1-0.5-0.6c0-0.3,0.1-0.4,0.4-0.4
			c0.5,0,1.1,0,1.6,0c0.3,0,0.4,0.1,0.4,0.4c0,0.6-0.1,1.3-0.4,1.8c-0.4,0.9-1.1,1.3-2.1,1.3c-0.9,0-1.6-0.5-2-1.3
			c-0.3-0.5-0.4-1.1-0.4-1.6c-0.1-0.7,0-1.4,0.2-2.1c0.2-0.6,0.5-1.1,1-1.4c0.7-0.4,1.4-0.5,2.1,0c0.2,0.1,0.3,0.1,0.4-0.1
			c0.1-0.3,0.4-0.1,0.7-0.1c0.1,0,0.2,0.1,0.2,0.2C102,57.7,102,58,102,58.3L102,58.3z"/>
		<path class="st3" d="M139.8,61.3c-0.2-0.2-0.1-0.3,0.2-0.5c0.1,0,0.2-0.1,0.3-0.1c0.8-0.4,1.1-1.1,1-2.1c-0.1-0.8-0.7-1.3-1.5-1.4
			c-0.2,0-0.3,0-0.5-0.1c-0.6,0-1.2,0-1.8,0c-0.4,0-0.5,0-0.5,0.5c0,1.8,0,3.6,0,5.4c0,0.1,0,0.1,0,0.2c0,0.1,0.1,0.3,0.3,0.3
			c0.1,0,0.2,0,0.3,0c0.4,0,0.5-0.1,0.5-0.5c0-0.6,0-1.1,0-1.7c0-0.2,0-0.4,0.2-0.4c0.1,0,0.3,0.1,0.3,0.2c0.4,0.6,0.7,1.1,1.1,1.7
			c0.5,0.7,0.5,0.7,1.3,0.7c0.1,0,0.1-0.1,0.2-0.1c0.1-0.2-0.1-0.3-0.2-0.5C140.6,62.4,140.2,61.8,139.8,61.3z M139.6,59.9
			c-0.4,0.1-0.8,0.1-1.1,0.1c-0.4,0-0.5-0.1-0.5-0.5c0-0.2,0-0.5,0-0.7c0-0.9,0-0.8,0.9-0.8c0.1,0,0.3,0,0.4,0
			c0.7,0.1,1,0.5,0.9,1.2C140.1,59.6,140,59.8,139.6,59.9z"/>
		<path class="st3" d="M128,58.4c-0.4-0.9-1.1-1.4-2.1-1.5c-1,0-1.7,0.5-2.1,1.4c-0.5,1.3-0.5,2.6,0,3.9c0.4,0.9,1.1,1.4,2.1,1.4
			s1.7-0.5,2-1.4c0.3-0.6,0.4-1.3,0.4-2.2C128.4,59.7,128.3,59.1,128,58.4z M127.1,61.9c-0.2,0.6-0.6,0.8-1.2,0.8
			c-0.6,0-0.9-0.3-1.1-0.8c-0.4-1.1-0.4-2.1,0-3.1c0.2-0.4,0.5-0.8,1-0.8c0.6-0.1,1.1,0.2,1.3,0.8c0.2,0.5,0.3,1,0.3,1.5
			C127.4,60.8,127.2,61.4,127.1,61.9z"/>
		<path class="st3" d="M180.4,58.5c-0.4-1-1.2-1.5-2.2-1.5s-1.7,0.5-2.1,1.5c-0.3,0.6-0.3,1.3-0.3,2c0,0.5,0.1,1.1,0.3,1.7
			c0.4,1,1.2,1.5,2.1,1.6c1,0,1.8-0.5,2.2-1.5C180.8,61,180.8,59.7,180.4,58.5z M179.3,61.9c-0.2,0.5-0.6,0.8-1.1,0.8
			c-0.6,0-1-0.2-1.1-0.8c-0.4-1.1-0.4-2.2,0-3.2c0.2-0.5,0.6-0.8,1.1-0.7c0.6,0,0.9,0.3,1.1,0.8c0.2,0.5,0.3,1,0.3,1.6
			C179.6,60.8,179.6,61.4,179.3,61.9z"/>
		<path class="st3" d="M58.5,60.3c0-0.9,0-1.9,0-2.8c0-0.3,0.1-0.4,0.4-0.4c0.1,0,0.1,0,0.2,0c0.2,0,0.4,0.1,0.4,0.4
			c0,0.6,0,1.2,0,1.8c0,0.5,0,0.5,0.5,0.5c1.8,0,1.5,0.3,1.5-1.5c0-0.2,0-0.5,0-0.7s0-0.4,0.2-0.4c0.2-0.1,0.5-0.1,0.7,0
			c0.1,0.1,0.1,0.2,0.1,0.4c0,1.3,0,2.5,0,3.8c0,0.6,0,1.2,0,1.8c0,0.3-0.1,0.4-0.5,0.4c-0.1,0-0.1,0-0.2,0c-0.2,0-0.4-0.1-0.4-0.4
			c0-0.7,0-1.3,0-2c0-0.4-0.1-0.4-0.4-0.4c-0.4,0-0.8,0-1.3,0c-0.2,0-0.3,0.1-0.3,0.3c0,0.7,0,1.4,0,2.1c0,0.3-0.1,0.4-0.4,0.4
			c-0.6,0-0.6,0-0.6-0.6C58.5,62.1,58.5,61.2,58.5,60.3z"/>
		<path class="st3" d="M189.2,60.3c0-0.9,0-1.8,0-2.7c0-0.4,0.1-0.5,0.4-0.5c1.1,0,2.2,0,3.4,0c0.3,0,0.6,0.5,0.4,0.8
			c-0.1,0.1-0.2,0.1-0.4,0.1c-0.7,0-1.5,0-2.2,0c-0.4,0-0.5,0-0.5,0.5c0,0.1,0,0.2,0,0.3c0,1-0.1,0.9,0.9,0.9c0.4,0,0.7,0,1.1,0
			c0.2,0,0.4,0,0.4,0.2c0.1,0.2,0.1,0.4,0,0.6c0,0.1-0.2,0.1-0.3,0.1c-0.6,0-1.2,0-1.8,0c-0.2,0-0.3,0.1-0.3,0.3c0,0.5,0,0.9,0,1.4
			c0,0.2,0.1,0.2,0.3,0.2c0.8,0,1.5,0,2.3,0c0.4,0,0.5,0.1,0.5,0.5c0,0.3-0.1,0.4-0.4,0.4c-1.1,0-2.2,0-3.4,0
			c-0.3,0-0.4-0.1-0.4-0.4C189.2,62.2,189.2,61.3,189.2,60.3z"/>
		<path class="st3" d="M134.5,59.6c0,0.6,0,1.1,0,1.7c0,0.2,0,0.5,0,0.7c-0.2,1.4-1.7,2.2-3,1.5c-0.5-0.3-0.8-0.8-0.9-1.3
			c-0.1-0.2-0.1-0.5-0.1-0.7c0-1.3,0-2.5,0-3.8c0-0.4,0.1-0.5,0.5-0.5c0.5,0,0.6,0.1,0.6,0.5c0,1.1,0,2.2,0,3.3c0,0.3,0,0.6,0.1,0.9
			c0.1,0.5,0.4,0.8,0.9,0.8s0.9-0.2,1-0.8c0.1-0.3,0.1-0.6,0.1-0.9c0-1.1,0-2.2,0-3.3c0-0.5,0.1-0.5,0.5-0.5s0.5,0,0.5,0.4
			C134.5,58.2,134.5,58.9,134.5,59.6L134.5,59.6z"/>
		<path class="st3" d="M104.2,60.3c0-0.9,0-1.9,0-2.8c0-0.2,0.1-0.3,0.3-0.3c1.2,0,2.3,0,3.5,0c0.3,0,0.4,0.1,0.4,0.5
			c0,0.3-0.1,0.4-0.4,0.4c-0.7,0-1.5,0-2.2,0c-0.4,0-0.4,0.1-0.5,0.4c0,0.3,0,0.6,0,0.9c0,0.3,0.1,0.4,0.4,0.4c0.5,0,1,0,1.5,0
			s0.5,0.1,0.5,0.6c0,0.3-0.1,0.4-0.3,0.4c-0.5,0-1.1,0-1.6,0c-0.4,0-0.5,0-0.5,0.5c0,1.6-0.3,1.4,1.4,1.4c0.5,0,1,0,1.5,0
			c0.2,0,0.3,0.2,0.3,0.4s0,0.4-0.3,0.5c-0.2,0-0.4,0-0.6,0c-0.9,0-1.9,0-2.8,0c-0.4,0-0.4-0.1-0.4-0.4
			C104.2,62.2,104.2,61.2,104.2,60.3L104.2,60.3z"/>
		<path class="st3" d="M204.4,57.1c0.7,0,1.3,0,2,0c0.2,0,0.3,0.1,0.3,0.3c0,0.6,0,1.2,0,1.8c0,0.3-0.2,0.3-0.4,0.3s-0.4,0-0.5-0.3
			c0-0.2,0-0.5,0-0.7c0-0.3-0.2-0.5-0.6-0.4c-0.1,0-0.2,0.1-0.2,0.2c0,0.1,0,0.2,0,0.3c0,1.2,0,2.4,0,3.6c0,0.5,0,0.5,0.6,0.5
			c0.1,0,0.2,0,0.3,0c0.2,0.1,0.2,0.4,0.2,0.6c0,0.2-0.1,0.3-0.2,0.3h-0.1c-0.8,0-1.7,0-2.5,0c-0.2,0-0.3-0.1-0.2-0.3
			c0-0.2,0-0.4,0.1-0.5c0.1-0.2,0.3-0.1,0.5-0.1c0.4-0.1,0.5-0.1,0.5-0.4c0-1.3,0-2.5,0-3.8c0-0.2-0.1-0.3-0.3-0.4
			c-0.3-0.1-0.5,0-0.6,0.4c0,0.2,0,0.4,0,0.5c0,0.4-0.4,0.6-0.8,0.5c-0.1,0-0.1-0.1-0.1-0.1c0-0.1-0.1-0.3,0-0.4
			c0-0.6-0.1-1.1,0.1-1.7c0.5-0.3,1.1-0.1,1.6-0.1C204,57.1,204.2,57.1,204.4,57.1L204.4,57.1z"/>
		<path class="st3" d="M219.9,63.2c-0.6-1.9-1.2-3.8-1.7-5.7c-0.1-0.2-0.2-0.4-0.5-0.4c-0.1,0-0.2,0-0.3,0c-0.5,0-0.5,0-0.7,0.6
			c-0.6,1.8-1.1,3.6-1.7,5.4c0,0.1-0.1,0.3,0,0.4c0.1,0,0.2,0.1,0.4,0.1c0.5,0,0.6,0,0.7-0.5c0.1-0.3,0.2-0.6,0.3-1h1
			c1.1,0,1.1,0,1.4,1c0.1,0.4,0.2,0.5,0.7,0.5h0.1C219.9,63.5,220,63.4,219.9,63.2z M216.7,61c0.2-0.8,0.3-1.6,0.8-2.4
			c0.2,0.5,0.3,0.9,0.4,1.3C218.3,61.2,218.3,61.3,216.7,61z"/>
		<path class="st3" d="M89.2,63.3c0-0.2-0.1-0.3-0.1-0.5c-0.5-1.6-1-3.2-1.5-4.8c0-0.1,0-0.1-0.1-0.2c-0.2-0.7-0.2-0.7-1-0.7
			c-0.4,0-0.4,0-0.6,0.5c-0.6,1.9-1.2,3.7-1.7,5.6c0,0.1,0,0.2,0,0.3c0.2,0,0.3,0.1,0.4,0.1c0.5,0,0.6,0,0.7-0.5
			c0.1-0.3,0.2-0.6,0.3-1c0.7,0,1.2,0,1.7,0c0.2,0,0.4,0.1,0.5,0.3c0.1,0.3,0.2,0.6,0.3,0.9c0,0.2,0.2,0.2,0.3,0.3
			c0.2,0,0.3,0,0.5,0C89.1,63.5,89.2,63.4,89.2,63.3z M87.2,61.1c-0.3,0-0.7,0-1,0c-0.2,0-0.2-0.2-0.2-0.3c0.2-0.7,0.4-1.4,0.7-2.3
			c0.3,0.9,0.5,1.6,0.7,2.3C87.5,60.9,87.4,61.1,87.2,61.1z"/>
		<path class="st3" d="M184.2,60.3c0-0.6,0-1.3,0-1.9c0-0.3-0.1-0.4-0.4-0.4c-0.4,0-0.4,0.1-0.5,0.4c0,0.2,0,0.4,0,0.5
			c0,0.5-0.1,0.5-0.6,0.5c-0.2,0-0.3-0.1-0.3-0.3c0-0.5,0-1.1,0-1.6s0-0.5,0.5-0.5c1.2,0,2.4,0,3.7,0c0.4,0,0.4,0.1,0.5,0.4
			c0,0.5,0,1.1,0,1.6c0,0.3-0.1,0.4-0.5,0.4c-0.2,0-0.4,0-0.4-0.3c0-0.2,0-0.5,0-0.7c0-0.3-0.1-0.4-0.5-0.4c-0.2,0-0.3,0.1-0.3,0.3
			c0,1.3,0,2.6,0,3.9c0,0.3,0.1,0.4,0.4,0.4c0.1,0,0.1,0,0.2,0c0.4,0,0.5,0.1,0.5,0.5c0,0.2-0.1,0.4-0.3,0.4c-0.8,0-1.6,0-2.4,0
			c-0.3,0-0.4-0.1-0.4-0.4c0-0.4,0.1-0.5,0.4-0.5c0.1,0,0.2,0,0.3,0c0.2,0,0.3-0.1,0.3-0.3c0-0.5,0-1.1,0-1.6
			C184.2,60.6,184.2,60.4,184.2,60.3L184.2,60.3z"/>
		<path class="st3" d="M68.5,59.7c-0.2-0.7-0.5-1.5-0.7-2.2c0-0.1,0-0.3-0.2-0.3c-0.3-0.1-0.6-0.1-0.9,0s-0.3,0.4-0.4,0.6
			c-0.5,1.5-0.9,2.9-1.4,4.4c-0.1,0.4-0.3,0.9-0.4,1.3c0.9,0.2,1,0.2,1.2-0.4c0.4-1.2,0.1-1,1.4-1c0.3,0,0.6,0,0.9,0
			c0.3,0.4,0.3,0.8,0.5,1.2c0.1,0.2,0.2,0.3,0.4,0.3c0.2,0,0.5,0.1,0.7-0.2C69.3,62.2,68.9,60.9,68.5,59.7z M67.6,61.1
			c-0.4,0-0.8,0-1.3,0c0.3-0.9,0.5-1.6,0.7-2.3c0.2,0,0.3,0.2,0.3,0.3c0.2,0.6,0.3,1.1,0.5,1.7C67.8,61,67.7,61.1,67.6,61.1z"/>
		<path class="st3" d="M153.5,59.7c-0.2-0.7-0.5-1.5-0.7-2.2c0-0.1-0.1-0.3-0.2-0.3c-0.3-0.1-0.6-0.1-0.9,0
			c-0.3,0.1-0.3,0.4-0.4,0.6c-0.5,1.5-1,3-1.4,4.5c-0.1,0.4-0.3,0.8-0.3,1.2c0.1,0,0.1,0.1,0.2,0.1c0.1,0,0.2,0,0.3,0
			c0.4,0,0.4,0,0.6-0.4c0.1-0.4,0.1-0.9,0.4-1c0.3-0.1,0.8-0.1,1.1-0.1s0.6,0,0.8,0c0.3,0.4,0.3,0.8,0.4,1.1
			c0.1,0.3,0.2,0.4,0.5,0.4c0.2,0,0.3,0,0.7,0C154.2,62.2,153.9,60.9,153.5,59.7z M152.5,61.1c-1.5,0-1.3,0.1-0.9-1.2
			c0.1-0.4,0.2-0.8,0.4-1.4c0.4,1,0.6,1.7,0.7,2.5C152.7,61,152.6,61.1,152.5,61.1z"/>
		<path class="st3" d="M56.2,58.4c0,0.2,0,0.5,0,0.7s0,0.4-0.2,0.4c-0.4,0.1-0.6,0-0.7-0.2s-0.1-0.4-0.2-0.6c-0.2-0.4-0.5-0.7-1-0.7
			s-0.9,0.2-1.1,0.7c-0.5,1.1-0.5,2.2,0,3.3c0.4,0.9,1.6,1,2.2,0.2c0.1-0.1,0.2-0.3,0.3-0.5c0.2-0.4,0.5-0.4,0.8-0.2
			c0.1,0.1,0.1,0.1,0.1,0.3c-0.2,1-1.1,1.8-2,1.9c-1,0.1-1.9-0.4-2.4-1.4c-0.6-1.3-0.6-2.6,0-4c0.1-0.3,0.3-0.5,0.5-0.8
			c0.6-0.6,1.6-0.8,2.3-0.3c0.3,0.2,0.4,0.3,0.6-0.1c0.1-0.2,0.4-0.1,0.6-0.1c0.1,0,0.2,0.1,0.2,0.2C56.2,57.7,56.2,58,56.2,58.4
			L56.2,58.4z"/>
		<path class="st3" d="M172.3,57.1c-0.1,0-0.2,0-0.3,0c-0.7,0-1.3,0-2,0c-0.3,0-0.4,0.1-0.4,0.4c0,0.9,0,1.9,0,2.8l0,0
			c0,0.9,0,1.9,0,2.8c0,0.3,0.1,0.4,0.5,0.4h0.1c0.4,0,0.5-0.1,0.5-0.5c0-0.6,0-1.2,0-1.8c0-0.2,0.1-0.3,0.3-0.3c0.4,0,0.7,0,1,0
			c0.6-0.1,1.2-0.2,1.6-0.7C174.5,59,173.8,57.4,172.3,57.1z M172.3,59.9c-0.3,0.1-0.6,0.1-0.9,0.1l0,0c-0.1,0-0.3,0-0.4,0
			c-0.2,0-0.3-0.1-0.3-0.3s0-0.4,0-0.6c0.1-0.3-0.2-0.9,0.2-1c0.6-0.1,1.3-0.2,1.7,0.3C173.1,58.9,172.9,59.7,172.3,59.9z"/>
		<path class="st3" d="M119.5,59.7c0.2-0.4,0.4-0.8,0.5-1.2c0.1-0.2,0.2-0.4-0.1-0.6c-0.2-0.1-0.1-0.3-0.1-0.5s0.1-0.3,0.3-0.3
			c0.5,0,0.9,0,1.4,0c0.2,0,0.4,0,0.4,0.3c0,0.2,0.1,0.5-0.2,0.6s-0.4,0.3-0.5,0.5c-0.3,0.5-0.5,1.1-0.8,1.6
			c-0.3,0.6-0.4,1.2-0.4,1.8c0,0.2,0,0.4,0.1,0.6c0.1,0.2,0.4,0.1,0.6,0.1c0.3,0.1,0.5,0.5,0.3,0.8c-0.1,0.1-0.2,0.1-0.3,0.1
			c-0.8,0-1.7,0-2.5,0c-0.2,0-0.3-0.1-0.3-0.3c0-0.4,0-0.5,0.3-0.6c0.1,0,0.3,0,0.4,0c0.2,0,0.3-0.1,0.3-0.3c0-0.7,0-1.5-0.4-2.1
			c-0.3-0.5-0.5-1.1-0.8-1.6c-0.1-0.3-0.2-0.5-0.5-0.6c-0.2-0.1-0.3-0.6-0.1-0.7c0.1-0.1,0.2-0.1,0.3-0.1c0.5,0,0.9,0,1.4,0
			c0.3,0,0.3,0.1,0.3,0.4c0,0.1,0,0.2,0,0.2c-0.1,0.2-0.3,0.4-0.3,0.5c0.1,0.3,0.2,0.7,0.4,1C119.2,59.4,119.2,59.6,119.5,59.7z"/>
		<path class="st3" d="M158.6,63.5c-0.4,0-0.8,0-1.2,0c-0.3,0-0.4-0.1-0.4-0.5s0-0.4,0.4-0.4c0.1,0,0.2,0,0.3,0
			c0.2,0,0.3-0.1,0.3-0.3s0-0.4,0-0.6c0-1,0-2,0-3c0-0.6,0-0.6-0.6-0.6c-0.4-0.1-0.6-0.3-0.4-0.7c0-0.1,0.1-0.2,0.2-0.2
			c0.9,0,1.7,0,2.6,0c0.2,0,0.3,0.2,0.2,0.4c0,0.2,0,0.4-0.3,0.5c-0.2,0.1-0.5-0.1-0.7,0.1c-0.2,0.2-0.1,0.5-0.1,0.8
			c0,1.1,0,2.2,0,3.2c0,0.3,0.1,0.4,0.4,0.4c0.1,0,0.2,0,0.3,0c0.3,0,0.3,0.2,0.3,0.5c0,0.2-0.1,0.4-0.3,0.4
			C159.5,63.5,159.1,63.5,158.6,63.5L158.6,63.5z"/>
		<path class="st3" d="M210.9,63.5c-0.4,0-0.8,0-1.2,0c-0.3,0-0.4-0.1-0.4-0.4c0-0.4,0-0.5,0.4-0.5c0.1,0,0.2,0,0.3,0
			c0.2,0,0.2-0.1,0.2-0.3c0-0.1,0-0.2,0-0.3c0-1.1,0-2.2,0-3.3c0-0.6,0-0.6-0.6-0.6h-0.1c-0.3,0-0.4-0.1-0.4-0.5
			c0-0.2,0.1-0.4,0.3-0.4c0.8,0,1.7,0,2.5,0c0.2,0,0.3,0.2,0.3,0.4s0.1,0.4-0.2,0.5h-0.1c-0.2,0-0.4,0-0.6,0.1
			c-0.2,0.2-0.1,0.5-0.1,0.7c0,1.1,0,2.2,0,3.3c0,0.4,0,0.4,0.5,0.5c0.1,0,0.1,0,0.2,0c0.3,0,0.3,0.1,0.4,0.5c0,0.3-0.1,0.4-0.4,0.4
			C211.8,63.5,211.3,63.5,210.9,63.5L210.9,63.5z"/>
		<path class="st3" d="M79.1,59.9c0,0.7,0,1.3,0,2s0,0.7,0.7,0.7s1.3,0,2,0c0.4,0,0.6,0.4,0.4,0.7c0,0.1-0.1,0.2-0.2,0.2
			c-0.2,0-0.4,0-0.6,0c-0.9,0-1.9,0-2.8,0c-0.4,0-0.5-0.1-0.5-0.5c0-1.8,0-3.6,0-5.4c0-0.4,0.1-0.5,0.5-0.5c0.5,0,0.6,0,0.6,0.5
			C79.1,58.4,79.1,59.1,79.1,59.9z"/>
		<path class="st3" d="M71.5,60.3c0-0.9,0-1.8,0-2.7c0-0.4,0.1-0.4,0.4-0.4c0.1,0,0.3,0,0.4,0s0.2,0.1,0.2,0.2c0,0.2,0,0.3,0,0.5
			c0,1.2,0,2.4,0,3.7c0,1.2-0.1,1.1,1.1,1.1c0.5,0,1.1,0,1.6,0c0.1,0,0.3,0,0.4,0.2s0.1,0.4,0,0.6c0,0.1-0.2,0.1-0.3,0.1
			c-1.2,0-2.4,0-3.5,0c-0.2,0-0.3-0.2-0.3-0.3C71.5,62.2,71.5,61.2,71.5,60.3L71.5,60.3z"/>
		<path class="st3" d="M221.9,60.3c0-0.9,0-1.9,0-2.8c0-0.3,0.1-0.4,0.5-0.4c0.5,0,0.6,0.1,0.6,0.6c0,0.8,0,1.5,0,2.3
			c0,0.6,0,1.3,0,1.9c0,0.7,0,0.7,0.7,0.7c0.4,0,0.8,0,1.3,0c0.2,0,0.4,0,0.6,0c0.5,0,0.5,0.1,0.5,0.6c0,0.2-0.1,0.4-0.3,0.4
			c-1.2,0-2.4,0-3.6,0c-0.2,0-0.3-0.2-0.3-0.4C221.9,62.2,221.9,61.3,221.9,60.3L221.9,60.3z"/>
	</g>
</g>
</svg>
