<?xml version="1.0" encoding="utf-8"?>
<!-- Generator: Adobe Illustrator 23.0.5, SVG Export Plug-In . SVG Version: 6.00 Build 0)  -->
<svg version="1.1" id="Layer_1" xmlns="http://www.w3.org/2000/svg" xmlns:xlink="http://www.w3.org/1999/xlink" x="0px" y="0px"
	 viewBox="0 0 260.8 82.3" style="enable-background:new 0 0 260.8 82.3;" xml:space="preserve">
<style type="text/css">
	.st0{display:none;}
	.st1{display:inline;}
	.st2{fill:#F98828;}
	.st3{fill:#FFFFFF;}
</style>
<g class="st0">
	<g class="st1">
		<path d="M20.3,39.5c1.7-0.1,3.3-0.1,4.9-0.2c0-0.1,0-0.1,0-0.2c-0.2,0-0.3-0.1-0.5-0.1c-1.1,0-2.3,0-3.4-0.1
			c-1.2-0.1-2.1-0.8-2.4-1.9c0-0.1-0.1-0.2-0.1-0.3c-0.1-2.8-1.9-4.7-3.7-6.6c-1.7-1.7-3-3.6-3.7-5.9c-1.1-4-0.7-7.9,1.5-11.4
			c2-3.2,4.8-5.3,8.4-6.3C26,5.2,30.2,6.2,34,9c2.4,1.8,4.3,4.1,5.1,7c1.3,4.6,0.6,8.8-2.6,12.5c-0.4,0.4-0.6,1-0.9,1.5
			c-0.5,0.7-1,1.4-1.6,2.1c-0.8,1-1.2,2.1-1.3,3.4c0,0.3,0,0.6-0.1,0.9c-0.1,0.8-0.4,1.4-1.3,1.7c-0.2,0.1-0.4,0.2-0.8,0.5
			c0.5,0.1,0.8,0.2,1.2,0.3c-0.4,0.7-1,0.7-1.5,0.8c-2.9,0.6-5.8,0.6-8.7,0.6C20.8,40.2,20.6,40,20.3,39.5z M22.4,26
			c0,0-0.1,0-0.1,0.1c-0.4-0.6-0.8-1.2-1.2-1.7c-0.3-0.6-0.7-0.6-1.3-0.4c-0.7,0.3-1.5,0.5-2.2,0.6c-0.4,0-0.8-0.2-1.2-0.4
			c0.2-0.4,0.3-0.8,0.6-1c1.6-1.3,3.4-2,5.4-2c1.2,0,2.5,0.1,3.7,0.2c2,0.2,4,0.5,5.9,1.3c1,0.4,2,0.6,3-0.3c0,0,0.1,0,0.2,0
			c-0.1,1.5-1.3,1.8-2.5,2.2c0.9,0.5,1.6-0.2,2.4-0.4c-0.4,1-1.4,1.3-2.5,0.9c-0.9-0.3-1.8-0.6-2.8-0.9C29.4,24,29,24,28.8,24.6
			c-0.6,1.5-1.3,3.1-1.6,4.7c-0.4,2.5-0.4,5-0.5,7.6c0,0.7,0.1,1.4,0.1,2.1c0.3,0,0.6,0,0.7,0c-0.1-0.2-0.3-0.4-0.3-0.6
			c0.1-1.3,0.1-2.6,0.2-3.9c0.2-2,0.2-4.1,0.8-6c0.8-2.5,1.3-2.4,3.3-2.1c2.5,0.4,4.3-0.6,4.7-3.2c0-0.1,0.1-0.3,0.2-0.4
			c0.9-1.1,0.7-2.2,0.2-3.4c-0.1-0.2-0.3-0.3-0.6-0.6c0,1.2,0.6,2.1,0.1,3.3c-0.2-0.3-0.3-0.4-0.4-0.6c-0.5-0.8-1-0.9-1.5-0.1
			c-0.4,0.6-1,0.4-1.4-0.1c0.4-0.3,0.8-0.6,1-1c0.2-0.4,0.1-1,0.2-1.5c1.3-0.3,1.6-0.7,1.5-1.9c0-1.2-0.7-2.4-1.4-2.6
			c0,0.4,0,0.8,0,1.2c-0.3-0.3-0.4-0.7-0.7-1c-0.3-0.3-0.6-0.6-0.9-0.9c-0.2-0.2-0.5-0.2-0.7-0.3c-0.1,0.3-0.1,0.5-0.2,0.8
			c0,0-0.1,0-0.1,0.1c-0.3-0.9-0.9-1.4-1.7-1.7c-0.5-0.3-1-0.5-1.5-0.8c-0.3-0.1-0.6-0.2-0.9-0.3c0,0.3,0,0.6-0.1,0.9
			c0,0,0,0-0.1,0.1c-0.1-0.2-0.2-0.4-0.3-0.6c-0.5-1.2-1.4-1.7-2.7-1.7c-2.3-0.1-4.8,2.1-5.5,3.6c-1-0.5-1.6-0.3-2.4,0.5
			c-0.5,0.6-0.7,1.2-0.7,2c0,0.2-0.1,0.5-0.2,0.7c-0.8,0.7-1.1,1.6-0.6,2.5c0.2,0.3,0.6,0.5,0.9,0.8c0.1,0.1,0.3,0.1,0.4,0.2
			c0.2,0.6,0.7,0.9,1.4,0.8c-0.6,0.7-1.2,1.4-1.8,2.1c0-0.3,0-0.6,0-0.8c0-0.6-0.3-0.9-0.9-1c-0.6,0-0.9,0.3-0.9,0.9
			c0,0.7,0.1,1.4,0.4,2c0.9,1.7,2.8,2.4,4.6,1.9c1.1-0.3,2-0.5,2.9,0.6c0.4,0.5,0.8,0.9,0.8,1.6c0,0.8,0,1.6,0.3,2.2
			c0.7,1.9,1.2,3.8,1.1,5.8c0,0.3,0.1,0.6,0.1,1c0.1,0,0.2,0,0.2,0c0-0.2,0.1-0.4,0.1-0.6c0.1-1.6,0-3.2-0.4-4.8
			c-0.5-1.9-0.9-3.9-1.4-5.8c0-0.1,0-0.1,0-0.2c-0.2-0.7-0.3-1.5-0.5-2.2c-0.1-0.4-0.3-0.9-0.8-0.6c-0.1,0.1-0.1,0.7,0.1,1
			C21.7,24.8,22.1,25.4,22.4,26z M27,23.7c-0.2-0.1-0.5-0.3-0.8-0.4c-0.5-0.2-1.1-0.3-1.6-0.4c-0.2,0-0.6-0.2-0.7,0
			c-0.1,0.1-0.1,0.5-0.1,0.7c0.1,0.8,0.3,1.5,0.3,2.3c0,2.6,0.1,5.1,0.6,7.7c0.3,1.4,0.3,2.8,0.5,4.3c0,0.2,0.3,0.4,0.5,0.6
			c0.2-0.2,0.4-0.3,0.6-0.5c0.1-0.2,0.1-0.4,0.1-0.6c0-1.6,0-3.1-0.2-4.6c-0.4-2.4-0.3-4.8,0.3-7.1C26.7,24.9,26.8,24.4,27,23.7z
			 M26.4,30.6c0.1,0,0.1,0,0.2,0c0-0.4,0.1-0.8,0.1-1.1c0-1.3,0.4-2.6,0.9-3.8c0.2-0.5,0.5-1,0.6-1.5c0.1-0.2-0.1-0.4-0.1-0.6
			c-0.2,0.1-0.4,0.1-0.5,0.3c-0.2,0.3-0.3,0.6-0.5,0.9C26.4,26.6,26.2,28.6,26.4,30.6z M23.6,27.9c0.1,0,0.1,0,0.2,0
			c0.1-1.5,0-3.1-0.6-4.5c-0.1-0.1-0.2-0.3-0.3-0.4c-0.1-0.1-0.4-0.2-0.5-0.2c-0.1,0-0.2,0.3-0.2,0.5c0,0.2,0.1,0.4,0.2,0.5
			c0.3,0.9,0.6,1.8,0.9,2.8C23.6,27,23.6,27.5,23.6,27.9z M30.6,11.4c0.1-0.3,0.1-0.4,0.1-0.5c-0.1-0.8-1.3-2.1-2.1-2.1
			c-0.1,0-0.3,0.1-0.3,0.1c0,0.2,0,0.4,0.1,0.5c0.4,0.5,0.9,1,1.4,1.4C30.1,10.9,30.3,11.1,30.6,11.4z"/>
		<path d="M30.2,54.9c-0.1,0.4-0.2,0.8-0.2,1.2c0.1,0,0.1,0.1,0.2,0.1c0.2-0.2,0.3-0.4,0.4-0.7c0.2-0.5,0.5-1.1,0.7-1.6
			c0.2-0.4,0.4-0.5,0.8-0.4c2.3,0.9,4.6,1.8,6.8,2.8c0.6,0.2,1,0.7,1.5,1.1c0.1,0,0.1-0.1,0.2-0.1c-0.1-0.2-0.2-0.5-0.4-0.6
			c-1-0.7-2-1.4-3.1-1.9c-1.4-0.7-2.8-1.1-4.2-1.7c-0.8-0.3-0.8-0.5-0.5-1.2c0.3-0.6,0.6-1.3,0.8-1.9c0.2-0.6,0.6-0.8,1.2-0.6
			c2,0.7,4.1,1.4,6.1,2.2c0.8,0.3,1.3,1.1,1.7,2c0.8,1.7,0.3,2.9-0.5,4.4c-2.7,4.8-5.4,9.6-8.1,14.5c-0.2,0.3-0.4,0.7-0.5,1.1
			c-0.2,1-0.8,1.3-1.7,1.2c-1.5-0.1-3-0.1-4.5-0.1c-2.5,0-5.1,0.1-7.6,0.1c-0.2,0-0.4,0-0.7,0c0.1-0.6,0.1-1.2,0.2-1.7
			c1,0.3,1.9,0.6,2.9,0.7c0.9,0.1,1.9,0,2.8,0c0-0.1,0-0.2,0-0.2c-0.3-0.1-0.5-0.1-0.8-0.2c-1.2-0.2-2.4-0.4-3.6-0.6
			c-0.8-0.2-1.2-0.8-1.3-1.7c0.5,0,0.7,0.2,0.7,0.7c0,0.2,0.2,0.5,0.4,0.6c1.2,0.4,2.4,0.5,3.6,0.3c0-0.1,0-0.1,0-0.2
			c-1.2-0.2-2.3-0.5-3.5-0.7c0-0.1,0-0.1,0-0.2c0.4,0,0.8,0,1.2,0c2.5,0,4.8-1.5,5.6-3.9c0.8-2.3,0.6-4.7-0.2-7
			c-0.2-0.6-0.2-1,0.3-1.5c0.4-0.4,0.7-0.9,1.1-1.3c0.2-0.2,0.8-0.3,1-0.2c2.4,1.3,4.8,2.6,7.2,4c0.1,0,0.1,0.1,0.2,0.2
			c0.2,0,0.3,0,0.5,0c-0.1-0.2,0-0.4-0.2-0.5c-0.9-0.6-1.7-1.3-2.7-1.8c-1.6-0.8-3.1-1.6-4.7-2.4c-0.7-0.3-0.8-0.5-0.4-1.2
			c0.2-0.4,0.4-0.7,0.5-1.1c0-0.1,0.1-0.2,0.1-0.2C30.1,54.8,30.2,54.9,30.2,54.9z M33.2,51.8c0.1,0,0.2,0.1,0.2,0.1
			c0.1-0.2,0.3-0.4,0.4-0.6c0.2-0.3,0.4-0.5,0.6-0.8c0.1-0.2,0.3-0.4,0.3-0.6c0-0.1-0.3-0.3-0.4-0.3c-0.2,0.1-0.6,0.2-0.7,0.4
			C33.5,50.6,33.4,51.2,33.2,51.8z"/>
		<path d="M25.3,68.8c0.4-0.5,0.7-0.9,1.2-1.5c-0.8,2.7-3.7,4.3-6.2,3.3c-0.3-0.1-0.5-0.5-0.8-0.9c-0.1-0.2-0.2-0.5-0.3-0.7
			c-1.7-2.1-3.4-4.3-5.1-6.4c-1.5-1.9-2.9-4-4.3-5.9c-1-1.4-0.9-2.4,0.4-3.6c1.1-1,2.9-2,3.9-2.1c0,0.2,0.1,0.5,0.2,0.8
			c0.6-0.2,1.1-0.4,1.6-0.6c1-0.4,1.9-0.2,2.7,0.6c2.2,2.3,4.5,4.6,6.6,7c1.3,1.6,1.8,3.6,1.7,5.7c-0.1,1.3-0.7,2.4-1.4,3.5
			c-0.1,0.2-0.2,0.4-0.3,0.6C25.1,68.7,25.2,68.7,25.3,68.8z M14.8,54c-0.8,0.3-1,0.7-0.4,1.5c1.6,1.8,3.2,3.6,4.8,5.4
			c0.7,0.8,1.7,1.3,2.1,2.2c0.1,0.1,0.4,0.1,0.7,0.2c0.1-0.2,0.2-0.5,0.2-0.7c-0.1-0.3-0.4-0.5-0.6-0.7c-1-1.2-2-2.4-3-3.6
			C18.4,58,18,58,17.8,57.8c-0.6-0.7-1.1-1.5-1.7-2.2C15.7,55,15.3,54.5,14.8,54z M23.2,63.8c-0.3-0.2-0.5-0.5-0.5-0.5
			c-0.2,0.1-0.4,0.3-0.5,0.5c0,0.1,0.2,0.4,0.3,0.4C22.8,64.2,22.9,64,23.2,63.8z"/>
		<path d="M42.2,52.6c-0.6-1.3-1.8-1.8-3-2.2c-1.6-0.6-3.3-1.1-4.9-1.7c-0.3-0.1-0.6-0.2-0.9-0.4c0-0.1,0-0.1,0.1-0.2
			c0.9,0.1,1.7,0.3,2.5,0.4c0-0.1,0-0.2,0.1-0.2c-0.1-0.1-0.3-0.2-0.4-0.2c-0.4-0.1-0.9-0.2-1.3-0.4c-1.2-0.3-1.3-0.5-1.1-1.7
			c0.1-0.6,0.2-1.1,0.3-1.6c0.1-0.2,0.4-0.6,0.6-0.6c0.6,0,1.3,0.2,1.9,0.4c0.2,0,0.3,0,0.5,0c0-0.2,0-0.4,0-0.5
			c-0.1-0.1-0.3-0.2-0.4-0.3c-0.2-0.1-0.5-0.1-0.7-0.1c-1.9-0.2-1.7-0.3-1.2-2.1c0-0.2,0.4-0.4,0.6-0.4c0.6,0,1.2,0.2,1.8,0.3
			c0.2,0,0.3-0.1,0.5-0.1c-0.1-0.1-0.2-0.3-0.4-0.4c-0.5-0.1-1-0.2-1.5-0.4c-0.5-0.1-0.8-0.4-0.7-0.9c0.1-0.8,0.2-1.6,0.3-2.5
			c0.8,0.3,1.4,0.5,2,0.8c0.2,0.1,0.4,0,0.5,0c0.2-0.1,0.4-0.2,0.6-0.3c0.8-0.2,0.9,0,0.8,0.8c-0.2,2.1-0.4,4.3-0.6,6.4
			c-0.1,1,0.6,1.9,1.7,2.1c0.8,0.2,1.7,0.2,2.5,0.4c0.3,0.1,0.6,0.2,0.8,0.5C44.4,48.9,43.9,51.5,42.2,52.6z"/>
		<path d="M40.9,41.2c-0.2-0.1-0.4-0.3-0.6-0.4c-0.6-0.4-1-0.8-0.9-1.6c0.3-1.3,0.5-2.6,0.8-3.9c0.1-0.3,0.3-0.6,0.5-0.8
			c0.4-0.5,0.8-1,1.6-0.8c0.8,0.2,1.4,0.6,1.6,1.4c0.1,0.4,0.2,0.8,0.2,1.2c-0.1,2.9-0.3,5.8-0.5,8.7c0,0.3,0,0.6-0.2,0.9
			c-0.1,0.2-0.4,0.5-0.6,0.4c-1.1-0.2-2.2-0.4-3.2-0.7c-0.6-0.2-0.8-0.8-0.8-1.4c0-0.8,0.2-1.7,0.3-2.5c0.1-0.7,0.2-0.8,0.9-0.5
			c0.3,0.1,0.6,0.1,0.8,0.2C40.9,41.4,40.9,41.3,40.9,41.2z"/>
		<path d="M6.7,35.1c1.6,0.1,2.6,0.8,3.2,1.9c0.5,0.9,0.9,1.8,1.1,2.7c0.4,1.3,0.6,2.7,0.8,4.1c0.1,0.4,0.1,0.7-0.3,0.9
			c-1.2,0.5-2.5,0.9-3.7,1.4c-0.6,0.2-1,0-1.1-0.7c-0.4-2.6-0.9-5.2-1.3-7.7c-0.1-0.9-0.2-1.7,0.6-2.3C6.3,35.2,6.6,35.2,6.7,35.1z
			 M7,36.4c0.6,1.3,1.3,2.6,1.8,4c0.4,1.4,0.6,2.9,0.9,4.4C10.5,43.3,9,37.9,7,36.4z"/>
		<path d="M35.3,31.6c0.1,0.2,0.1,0.4,0.2,0.6c0,0,0.1,0,0.1,0c0-0.2,0.1-0.3,0.1-0.5c0.2-0.6,0.3-1.3,0.6-1.9
			c0.3-0.9,0.9-1.2,1.8-1.1c0.7,0.1,1.2,0.5,1.2,1.4c0,1.9-0.1,3.8-0.2,5.7c0,0.2-0.3,0.6-0.5,0.6c-1.1,0.1-2.3,0.1-3.2-0.7
			c-0.2-0.2-0.5-0.6-0.5-0.8c0-1.1,0.2-2.3,0.3-3.4C35.2,31.6,35.3,31.6,35.3,31.6z"/>
		<path d="M9.2,51.8c-0.5-1.3-1.1-2.6-1.6-3.8c-0.3-0.6-0.2-1,0.5-1.1c0.4-0.1,0.8-0.3,1.1-0.3c0.3-0.1,0.7,0,1.1,0
			c0.1-0.3,1.4-1.2,1.8-1.1c0.1,0,0.3,0.2,0.4,0.3c0.5,1.3,1,2.6,1.5,3.9c0.1,0.2-0.1,0.5-0.3,0.6c-1.2,0.7-2.3,1.4-3.5,2.1
			c-0.5,0.3-0.7,0-0.9-0.4C9.3,51.8,9.2,51.8,9.2,51.8z"/>
		<path d="M22.5,41.9c-0.5-0.1-0.9-0.2-1.4-0.4c-0.2-0.1-0.3-0.3-0.5-0.5c0.2-0.1,0.4-0.2,0.6-0.2c1.4-0.1,2.7,0,4.1-0.1
			c1.9-0.2,3.9-0.5,5.8-0.8c0.2,0,0.4,0,0.8,0c-0.4,0.7-0.9,0.9-1.4,1c-1.8,0.3-3.6,0.5-5.4,0.8c-0.3,0-0.5,0.1-0.8,0.2
			c0,0.1,0,0.1,0,0.2c0.2,0,0.4,0.1,0.7,0.1c2-0.3,3.9-0.6,5.9-0.8c0.3,0,0.6-0.1,0.9-0.1c0,0.1,0.1,0.2,0.1,0.2
			c-0.3,0.2-0.5,0.5-0.8,0.5c-1.5,0.3-3,0.6-4.6,0.8c-1.5,0.2-3,0.2-4.6,0.3c-0.2,0-0.4,0-0.6,0c-0.2-0.1-0.4-0.3-0.6-0.4
			c0.2-0.1,0.4-0.3,0.6-0.4c0.4-0.1,0.8-0.1,1.2-0.1C22.5,42,22.5,42,22.5,41.9z"/>
		<path d="M20.9,49.2c0.4-0.1,0.6-0.1,0.9-0.2c2.9-0.3,5.7-0.6,8.6-0.8c0.3,0,0.5-0.1,0.8-0.2c0.2,0,0.5,0,0.7,0
			c-0.1,0.2-0.1,0.5-0.3,0.7c-0.6,0.8-1.4,1.3-2.4,1.4c-1.9,0.1-3.9,0.3-5.8,0.4C22.4,50.6,21.7,50.1,20.9,49.2z"/>
		<path d="M22.5,46.6c-0.5,0-0.9,0-1.4,0c-0.2,0-0.5-0.3-0.5-0.4c0-0.2,0.2-0.5,0.4-0.6c0.3-0.2,0.7-0.2,1-0.3
			c2.7-0.3,5.4-0.7,8.1-1c0.3,0,0.6-0.1,0.9-0.1c0.6-0.1,0.7,0.4,0.8,0.8c0.1,0.5-0.2,0.6-0.6,0.7c-2,0.3-4,0.5-6.1,0.7
			C24.2,46.6,23.4,46.6,22.5,46.6C22.5,46.7,22.5,46.7,22.5,46.6z"/>
		<path d="M21.5,44.9c-0.1,0-0.3,0-0.4,0c-0.2-0.1-0.4-0.3-0.6-0.4c0.2-0.2,0.3-0.6,0.5-0.7c0.9-0.2,1.9-0.2,2.8-0.4
			c2.4-0.3,4.8-0.7,7.1-1c0.1,0,0.1,0,0.2,0c0.3,0.1,0.6,0.2,0.9,0.3c-0.2,0.3-0.4,0.7-0.7,0.7c-1.8,0.4-3.7,0.7-5.6,1
			C24.4,44.8,22.9,44.9,21.5,44.9C21.5,45,21.5,45,21.5,44.9z"/>
		<path d="M23.4,51.4c2-0.2,4-0.3,6-0.1c-0.4,1.7-1.3,2.4-2.9,2.5C25,53.8,23.9,53,23.4,51.4z"/>
		<path d="M22.2,48.4c-0.3,0-0.9,0-1.4-0.2c-0.2,0-0.4-0.3-0.5-0.5c0.2-0.1,0.4-0.3,0.6-0.3c2.3-0.2,4.6-0.3,6.9-0.5
			c1.1-0.1,2.2-0.3,3.2-0.4c0.2,0,0.5,0.2,0.7,0.3c-0.2,0.2-0.4,0.6-0.6,0.6c-1.1,0.2-2.2,0.4-3.4,0.5C26,48.1,24.2,48.2,22.2,48.4z
			"/>
		<path d="M18,25c-0.9,0.5-2.4-0.1-2.9-1.1C16.1,24.3,17,24.7,18,25z"/>
		<path d="M18,19.9c0-0.5-0.1-1-0.1-1.5c0.1,0,0.1,0,0.2,0c0,0.5,0.1,1,0.1,1.5C18.2,19.9,18.1,19.9,18,19.9z"/>
	</g>
	<g class="st1">
		<path d="M79.9,41c0-0.3,0-0.7,0-1c0-4.2,0-8.4,0-12.7c0-0.3,0-0.6,0-0.8c0-0.2,0.1-0.3,0.3-0.3c0.2,0,0.4,0,0.5,0c1.5,0,3,0,4.5,0
			c0.8,0,0.8,0,0.8,0.9c0,0.1,0,0.2,0,0.3c0,7.7,0,15.3,0,23c0,1.3,0.1,1.2-1.2,1.2c-1.5,0-2.9,0-4.4,0c-0.5,0-0.8-0.2-1-0.6
			c-1.8-2.8-3.7-5.5-5.5-8.3c-1.3-1.9-2.5-3.8-3.8-5.6c-0.1-0.2-0.2-0.3-0.4-0.5c-0.3,0.2-0.2,0.5-0.2,0.7c0,4.3,0,8.7,0,13
			c0,1.5,0.2,1.3-1.3,1.3c-1.3,0-2.7,0-4,0c-0.2,0-0.4,0-0.6,0c-0.1,0-0.2-0.1-0.2-0.2c0-0.2,0-0.5,0-0.7c0-7.8,0-15.6,0-23.4
			c0-0.1,0-0.2,0-0.3c0-0.7,0-0.7,0.7-0.7c1.7,0,3.3,0,4.9,0c0.4,0,0.6,0.1,0.8,0.4c0.8,1.2,1.7,2.4,2.5,3.7
			c2.2,3.3,4.5,6.6,6.7,9.9c0.2,0.3,0.4,0.6,0.7,1C79.8,41,79.8,41,79.9,41z"/>
		<path d="M95.4,36.5c0,0.4,0,0.8,0,1.1c0,4.3,0,8.6,0,12.9c0,1,0,0.9-0.9,0.9c-1.6,0-3.1,0-4.7,0c-0.4,0-0.5-0.1-0.5-0.5
			c0-0.2,0-0.5,0-0.7c0-7.7,0-15.3,0-23c0-1.3-0.1-1.2,1.2-1.2c1.4,0,2.7,0,4.1,0c1,0,0.8-0.1,1.4,0.7c1.8,2.6,3.6,5.3,5.3,7.9
			c1.3,1.9,2.6,3.9,3.9,5.8c0.1,0.2,0.2,0.3,0.4,0.5c0.3-0.2,0.2-0.4,0.2-0.7c0-4.3,0-8.7,0-13c0-1.5-0.2-1.3,1.3-1.3
			c1.4,0,2.9,0,4.3,0c0.6,0,0.6,0,0.6,0.7c0,0.2,0,0.4,0,0.5c0,7.7,0,15.3,0,23c0,1.3,0.1,1.2-1.2,1.2c-1.5,0-3,0-4.5,0
			c-0.4,0-0.7-0.1-0.9-0.5c-0.8-1.1-1.5-2.3-2.3-3.4c-2.4-3.5-4.7-7-7.1-10.5C95.9,36.9,95.8,36.7,95.4,36.5z"/>
		<path d="M137.7,30.3c0-0.3-0.1-0.7-0.1-1c-0.1-1.5-1.6-3.2-3.7-3.2c-5.1,0-10.1,0-15.2,0c-1.8,0-3.7,1.6-3.7,3.5
			c0,0.3,0,0.6,0,0.8c0,2.8,0,5.5,0,8.3s0,5.5,0,8.3c0,0.4,0,0.8,0,1.2c0,0.6,0.3,1.2,0.6,1.7c0.8,1.1,1.8,1.7,3.2,1.6
			c5,0,9.9,0,14.9,0c0.1,0,0.3,0,0.4,0c1.7-0.1,3.1-1.4,3.4-3c0.1-0.4,0.1-0.8,0.1-1.2C137.7,41.7,137.7,36,137.7,30.3z M131.5,45.4
			c0,0.5-0.3,0.8-0.8,0.8c-0.2,0-0.4,0-0.6,0c-2.4,0-4.9,0-7.3,0c-1.1,0-1.5-0.2-1.5-1.6c0-4,0-7.9,0-11.8c0-1.4,0.2-1.5,1.5-1.5
			c2.4,0,4.9,0,7.3,0c0,0,0.1,0,0.1,0c1.1,0,1.3,0.2,1.3,1.3c0,2.1,0,4.1,0,6.2c0,1.9,0,3.9,0,5.9C131.5,44.9,131.5,45.2,131.5,45.4
			z"/>
		<path d="M192.8,51c-2.7-8.3-5.5-16.6-8.2-24.9c-0.3,0-0.6,0-0.8,0c-2.8,0-5.5,0-8.3,0c-1,0-0.9-0.1-1.2,0.8c-1,3.1-2,6.2-3.1,9.3
			c-1.6,4.9-3.2,9.7-4.8,14.5c-0.1,0.2-0.2,0.4,0,0.6c0.2,0,0.3,0,0.5,0c1.7,0,3.4,0,5.1,0c0.1,0,0.1,0,0.2,0c0.5,0,0.5,0,0.7-0.5
			c0.1-0.2,0.1-0.3,0.2-0.5c0.3-1,0.7-2.1,1-3.1c0.3-0.7,0.1-0.7,0.9-0.7c3,0,6.1,0,9.1,0c0.6,0,0.6,0,0.8,0.6
			c0.4,1.2,0.8,2.4,1.3,3.7c0.2,0.5,0.2,0.5,0.7,0.6c1.5,0,3,0,4.5,0h1.3C192.8,51.3,192.8,51.1,192.8,51z M176.2,41.3
			c1.1-3.3,2.2-6.6,3.4-9.9c1.2,3.3,2.4,6.6,3.4,9.9C181.9,41.5,177,41.5,176.2,41.3z"/>
		<path d="M227,38.9c0-3.8,0-7.6,0-11.4c0-0.3,0-0.6,0-0.8c0-0.4,0.1-0.4,0.4-0.5c0.2,0,0.5,0,0.7,0c6.2,0,12.4,0,18.7,0
			c1.3,0,1.2-0.1,1.2,1.2c0,1.2,0,2.4,0,3.6c0,0.4-0.1,0.4-0.4,0.5c-0.3,0-0.6,0-0.8,0c-4.1,0-8.2,0-12.3,0c-0.3,0-0.6,0-0.8,0
			c-0.4,0-0.4,0.1-0.4,0.4c0,0.9,0,1.9,0,2.8c0,0.4,0,0.8,0,1.3c0,0.2,0.1,0.3,0.3,0.3c0.3,0,0.6,0,0.8,0c2.9,0,5.9,0,8.8,0
			c0.2,0,0.4,0,0.5,0c0.8,0,0.8,0,0.8,0.8c0,1.3,0,2.7,0,4c0,0.4-0.1,0.5-0.5,0.5c-1.2,0-2.4,0-3.6,0c-2,0-4.1,0-6.1,0
			c-0.2,0-0.5,0-0.7,0c-0.3,0-0.4,0.2-0.4,0.4c0,0.3,0,0.6,0,0.8c0,1,0,2,0,3c0,0.5,0.1,0.5,0.6,0.5c0.2,0,0.5,0,0.7,0
			c4.1,0,8.2,0,12.3,0c1.5,0,1.3-0.2,1.3,1.3c0,1.2,0,2.3,0,3.5c0,0.4-0.1,0.4-0.4,0.4c-0.2,0-0.4,0-0.6,0c-6.3,0-12.6,0-18.9,0
			c-1.2,0-1,0.1-1-1.1C227,46.5,227,42.7,227,38.9z"/>
		<path d="M139.6,26.1c0.5,0,1,0,1.6,0c1.4,0,2.8,0,4.2,0c0.6,0,0.6,0,0.7,0.5c0.8,2.4,1.7,4.9,2.5,7.3c1.3,3.9,2.6,7.7,3.9,11.6
			c0.1,0.2,0,0.4,0.3,0.6c0.2,0,0.2-0.2,0.3-0.4c0.1-0.1,0.1-0.3,0.1-0.4c1.6-4.8,3.2-9.6,4.9-14.4c0.5-1.4,1-2.8,1.5-4.3
			c0.2-0.6,0.2-0.6,0.8-0.6c1.8,0,3.6,0,5.3,0c0.1,0,0.3,0,0.4,0c0.1,0.3,0,0.6-0.1,0.8c-1.4,4.4-2.9,8.7-4.3,13.1
			c-1.1,3.3-2.2,6.6-3.3,9.9c-0.1,0.2-0.2,0.5-0.2,0.7c-0.3,0.8-0.3,0.7-0.9,0.7c-2.9,0-5.8,0-8.7,0c-0.5,0-0.6,0-0.7-0.5
			c-0.9-2.5-1.7-5.1-2.5-7.7c-1.3-3.8-2.5-7.7-3.8-11.5c-0.5-1.6-1-3.1-1.5-4.7C139.6,26.8,139.4,26.5,139.6,26.1z"/>
		<path d="M213.9,26.1c3.4,0,6.8,0,10.2,0c0.2,0,0.5,0,0.7,0c0.4,0,0.4,0.1,0.5,0.4c0,0.4,0,0.7,0,1.1c0,1.1,0,2.2,0,3.3
			c0,0.4-0.1,0.5-0.5,0.5c-2.1,0-4.1,0-6.2,0c-0.5,0-1-0.2-1.3,0.1c-0.4,0.3-0.2,0.9-0.2,1.4c0,5.8,0,11.7,0,17.5
			c0,1.2,0.1,1.1-1.1,1.1c-1.5,0-3.1,0-4.6,0c-0.4,0-0.5-0.1-0.5-0.5c0-0.3,0-0.6,0-0.8c0-5.8,0-11.7,0-17.5c0-0.3,0-0.6,0-0.8
			c0-0.4-0.1-0.5-0.5-0.5c-0.6,0-1.2,0-1.8,0c-1.7,0-3.4,0-5,0c-0.2,0-0.4,0-0.5,0c-0.3,0-0.4-0.2-0.4-0.4c0-0.1,0-0.3,0-0.4
			c0-1.3,0-2.6,0-3.9c0-0.4,0.1-0.5,0.5-0.5c0.9,0,1.7,0,2.6,0C208.4,26.1,211.1,26.1,213.9,26.1z"/>
		<path d="M60.2,38.8c0,3.9,0,7.8,0,11.7c0,1,0,0.9-0.9,0.9c-1.5,0-2.9,0-4.4,0c-0.2,0-0.4,0-0.5,0c-0.2,0-0.3-0.1-0.3-0.3
			c0-0.2,0-0.5,0-0.7c0-7.8,0-15.5,0-23.3c0-1.1-0.1-1,1-1c1.4,0,2.9,0,4.3,0c0.2,0,0.4,0,0.5,0c0.2,0,0.3,0.1,0.3,0.3
			c0,0.3,0,0.6,0,0.8C60.2,31.1,60.2,35,60.2,38.8z"/>
		<path d="M200.8,38.9c0,3.9,0,7.8,0,11.6c0,1,0,0.9-0.9,0.9c-1.6,0-3.1,0-4.7,0c-0.4,0-0.5-0.1-0.5-0.5c0-0.2,0-0.5,0-0.7
			c0-7.7,0-15.3,0-23c0-1.4-0.2-1.2,1.2-1.2c1.4,0,2.7,0,4.1,0c0.2,0,0.4,0,0.5,0c0.2,0,0.3,0.1,0.3,0.3c0,0.3,0,0.6,0,0.8
			C200.8,31.2,200.8,35.1,200.8,38.9z"/>
		<path d="M207.9,59.5c0,0.9,0,1.9,0,2.8c0,0.3,0,0.6,0,0.8c0,0.4-0.1,0.5-0.5,0.4c-0.1,0-0.2,0-0.3,0c-0.1,0-0.2-0.1-0.2-0.2
			c0-0.1,0-0.2,0-0.3c0-1.8,0-3.6,0-5.3c0-0.2,0-0.4,0.1-0.5c0.3-0.1,0.7-0.1,1,0c0.2,0.1,0.3,0.3,0.3,0.5c0.4,1,0.8,1.9,1.2,2.9
			c0,0.1,0.1,0.2,0.1,0.3c0,0,0.1,0.1,0.2,0.1c0.1,0,0.1,0,0.1-0.1c0-0.9,0-1.9,0-2.8c0-0.2,0-0.4,0-0.6c0-0.1,0.1-0.2,0.2-0.2
			c0.2-0.1,0.5-0.1,0.7,0c0.1,0,0.1,0.2,0.1,0.2c0,1.9,0,3.8,0,5.8c0,0.2-0.1,0.3-0.3,0.3c-0.2,0-0.4,0-0.6,0
			c-0.2,0-0.3-0.1-0.3-0.2c-0.1-0.3-0.2-0.5-0.3-0.8c-0.4-1-0.8-2.1-1.3-3.1C208.1,59.4,208,59.5,207.9,59.5z"/>
		<path d="M106.3,63.5c-0.2,0.1-0.5,0.1-0.7,0.1c-0.3,0-0.4-0.1-0.5-0.4c-0.4-1-0.8-2-1.2-3c-0.1-0.2-0.2-0.4-0.3-0.7
			c-0.3,0.1-0.2,0.3-0.2,0.4c0,1,0,1.9,0,2.9c0,0.7,0,0.8-0.8,0.7c-0.2,0-0.2-0.1-0.2-0.3c0-0.3,0-0.6,0-0.9c0-1.6,0-3.1,0-4.7
			c0-0.4,0.1-0.5,0.5-0.5c0.1,0,0.3,0,0.4,0c0.2,0,0.4,0.1,0.5,0.3c0.2,0.5,0.4,1,0.6,1.6c0.3,0.7,0.6,1.3,0.8,2
			c0.3-0.1,0.2-0.3,0.2-0.5c0-1,0-1.9,0-2.9c0-0.4,0.1-0.5,0.5-0.5c0.1,0,0.2,0,0.3,0c0.2,0,0.2,0.1,0.2,0.3c0,0.1,0,0.3,0,0.4
			c0,1.7,0,3.4,0,5.1C106.4,63.1,106.4,63.3,106.3,63.5z"/>
		<path d="M113.1,58.3c0,0.2,0,0.5,0,0.7c0,0.2,0,0.4-0.3,0.4c-0.4,0.1-0.6,0-0.7-0.3c-0.1-0.2-0.1-0.4-0.2-0.6
			c-0.4-0.8-1.6-0.8-2-0.1c-0.2,0.4-0.3,0.8-0.4,1.2c-0.1,0.7-0.1,1.3,0.2,2c0.2,0.6,0.5,1,1.2,1.1c0.7,0.1,1.1-0.2,1.4-0.9
			c0.1-0.2,0.1-0.3,0.1-0.5c0-0.1-0.1-0.2-0.2-0.2c-0.2,0-0.4,0-0.6,0c-0.4,0-0.5-0.1-0.5-0.6c0-0.3,0.1-0.4,0.4-0.4
			c0.5,0,1.1,0,1.6,0c0.3,0,0.4,0.1,0.4,0.4c0,0.6-0.1,1.3-0.4,1.8c-0.4,0.9-1.1,1.3-2.1,1.3c-0.9,0-1.6-0.5-2-1.3
			c-0.3-0.5-0.4-1.1-0.4-1.6c-0.1-0.7,0-1.4,0.2-2.1c0.2-0.6,0.5-1.1,1-1.4c0.7-0.4,1.4-0.5,2.1,0c0.2,0.1,0.3,0.1,0.4-0.1
			c0.1-0.3,0.4-0.1,0.7-0.1c0.1,0,0.2,0.1,0.2,0.2C113.1,57.7,113.1,58,113.1,58.3L113.1,58.3z"/>
		<path d="M150.9,61.3c-0.2-0.2-0.1-0.3,0.2-0.5c0.1,0,0.2-0.1,0.3-0.1c0.8-0.4,1.1-1.1,1-2.1c-0.1-0.8-0.7-1.3-1.5-1.4
			c-0.2,0-0.3,0-0.5-0.1c-0.6,0-1.2,0-1.8,0c-0.4,0-0.5,0-0.5,0.5c0,1.8,0,3.6,0,5.4c0,0.1,0,0.1,0,0.2c0,0.1,0.1,0.3,0.3,0.3
			c0.1,0,0.2,0,0.3,0c0.4,0,0.5-0.1,0.5-0.5c0-0.6,0-1.1,0-1.7c0-0.2,0-0.4,0.2-0.4c0.1,0,0.3,0.1,0.3,0.2c0.4,0.6,0.7,1.1,1.1,1.7
			c0.5,0.7,0.5,0.7,1.3,0.7c0.1,0,0.1-0.1,0.2-0.1c0.1-0.2-0.1-0.3-0.2-0.5C151.7,62.4,151.3,61.8,150.9,61.3z M150.7,59.9
			c-0.4,0.1-0.8,0.1-1.1,0.1c-0.4,0-0.5-0.1-0.5-0.5c0-0.2,0-0.5,0-0.7c0-0.9,0-0.8,0.9-0.8c0.1,0,0.3,0,0.4,0
			c0.7,0.1,1,0.5,0.9,1.2C151.2,59.6,151.1,59.8,150.7,59.9z"/>
		<path d="M139.1,58.4c-0.4-0.9-1.1-1.4-2.1-1.5c-1,0-1.7,0.5-2.1,1.4c-0.5,1.3-0.5,2.6,0,3.9c0.4,0.9,1.1,1.4,2.1,1.4
			c1,0,1.7-0.5,2-1.4c0.3-0.6,0.4-1.3,0.4-2.2C139.5,59.7,139.4,59.1,139.1,58.4z M138.2,61.9c-0.2,0.6-0.6,0.8-1.2,0.8
			c-0.6,0-0.9-0.3-1.1-0.8c-0.4-1.1-0.4-2.1,0-3.1c0.2-0.4,0.5-0.8,1-0.8c0.6-0.1,1.1,0.2,1.3,0.8c0.2,0.5,0.3,1,0.3,1.5
			C138.5,60.8,138.3,61.4,138.2,61.9z"/>
		<path d="M191.5,58.5c-0.4-1-1.2-1.5-2.2-1.5c-1,0-1.7,0.5-2.1,1.5c-0.3,0.6-0.3,1.3-0.3,2c0,0.5,0.1,1.1,0.3,1.7
			c0.4,1,1.2,1.5,2.1,1.6c1,0,1.8-0.5,2.2-1.5C191.9,61,191.9,59.7,191.5,58.5z M190.4,61.9c-0.2,0.5-0.6,0.8-1.1,0.8
			c-0.6,0-1-0.2-1.1-0.8c-0.4-1.1-0.4-2.2,0-3.2c0.2-0.5,0.6-0.8,1.1-0.7c0.6,0,0.9,0.3,1.1,0.8c0.2,0.5,0.3,1,0.3,1.6
			C190.7,60.8,190.7,61.4,190.4,61.9z"/>
		<path d="M69.6,60.3c0-0.9,0-1.9,0-2.8c0-0.3,0.1-0.4,0.4-0.4c0.1,0,0.1,0,0.2,0c0.2,0,0.4,0.1,0.4,0.4c0,0.6,0,1.2,0,1.8
			c0,0.5,0,0.5,0.5,0.5c1.8,0,1.5,0.3,1.5-1.5c0-0.2,0-0.5,0-0.7c0-0.2,0-0.4,0.2-0.4c0.2-0.1,0.5-0.1,0.7,0
			c0.1,0.1,0.1,0.2,0.1,0.4c0,1.3,0,2.5,0,3.8c0,0.6,0,1.2,0,1.8c0,0.3-0.1,0.4-0.5,0.4c-0.1,0-0.1,0-0.2,0c-0.2,0-0.4-0.1-0.4-0.4
			c0-0.7,0-1.3,0-2c0-0.4-0.1-0.4-0.4-0.4c-0.4,0-0.8,0-1.3,0c-0.2,0-0.3,0.1-0.3,0.3c0,0.7,0,1.4,0,2.1c0,0.3-0.1,0.4-0.4,0.4
			c-0.6,0-0.6,0-0.6-0.6C69.6,62.1,69.6,61.2,69.6,60.3z"/>
		<path d="M200.3,60.3c0-0.9,0-1.8,0-2.7c0-0.4,0.1-0.5,0.4-0.5c1.1,0,2.2,0,3.4,0c0.3,0,0.6,0.5,0.4,0.8c-0.1,0.1-0.2,0.1-0.4,0.1
			c-0.7,0-1.5,0-2.2,0c-0.4,0-0.5,0-0.5,0.5c0,0.1,0,0.2,0,0.3c0,1-0.1,0.9,0.9,0.9c0.4,0,0.7,0,1.1,0c0.2,0,0.4,0,0.4,0.2
			c0.1,0.2,0.1,0.4,0,0.6c0,0.1-0.2,0.1-0.3,0.1c-0.6,0-1.2,0-1.8,0c-0.2,0-0.3,0.1-0.3,0.3c0,0.5,0,0.9,0,1.4
			c0,0.2,0.1,0.2,0.3,0.2c0.8,0,1.5,0,2.3,0c0.4,0,0.5,0.1,0.5,0.5c0,0.3-0.1,0.4-0.4,0.4c-1.1,0-2.2,0-3.4,0
			c-0.3,0-0.4-0.1-0.4-0.4C200.3,62.2,200.3,61.3,200.3,60.3z"/>
		<path d="M145.6,59.6c0,0.6,0,1.1,0,1.7c0,0.2,0,0.5,0,0.7c-0.2,1.4-1.7,2.2-3,1.5c-0.5-0.3-0.8-0.8-0.9-1.3
			c-0.1-0.2-0.1-0.5-0.1-0.7c0-1.3,0-2.5,0-3.8c0-0.4,0.1-0.5,0.5-0.5c0.5,0,0.6,0.1,0.6,0.5c0,1.1,0,2.2,0,3.3c0,0.3,0,0.6,0.1,0.9
			c0.1,0.5,0.4,0.8,0.9,0.8c0.5,0,0.9-0.2,1-0.8c0.1-0.3,0.1-0.6,0.1-0.9c0-1.1,0-2.2,0-3.3c0-0.5,0.1-0.5,0.5-0.5
			c0.4,0,0.5,0,0.5,0.4C145.6,58.2,145.6,58.9,145.6,59.6L145.6,59.6z"/>
		<path d="M115.3,60.3c0-0.9,0-1.9,0-2.8c0-0.2,0.1-0.3,0.3-0.3c1.2,0,2.3,0,3.5,0c0.3,0,0.4,0.1,0.4,0.5c0,0.3-0.1,0.4-0.4,0.4
			c-0.7,0-1.5,0-2.2,0c-0.4,0-0.4,0.1-0.5,0.4c0,0.3,0,0.6,0,0.9c0,0.3,0.1,0.4,0.4,0.4c0.5,0,1,0,1.5,0c0.5,0,0.5,0.1,0.5,0.6
			c0,0.3-0.1,0.4-0.3,0.4c-0.5,0-1.1,0-1.6,0c-0.4,0-0.5,0-0.5,0.5c0,1.6-0.3,1.4,1.4,1.4c0.5,0,1,0,1.5,0c0.2,0,0.3,0.2,0.3,0.4
			c0,0.2,0,0.4-0.3,0.5c-0.2,0-0.4,0-0.6,0c-0.9,0-1.9,0-2.8,0c-0.4,0-0.4-0.1-0.4-0.4C115.3,62.2,115.3,61.2,115.3,60.3L115.3,60.3
			z"/>
		<path d="M215.5,57.1c0.7,0,1.3,0,2,0c0.2,0,0.3,0.1,0.3,0.3c0,0.6,0,1.2,0,1.8c0,0.3-0.2,0.3-0.4,0.3c-0.2,0-0.4,0-0.5-0.3
			c0-0.2,0-0.5,0-0.7c0-0.3-0.2-0.5-0.6-0.4c-0.1,0-0.2,0.1-0.2,0.2c0,0.1,0,0.2,0,0.3c0,1.2,0,2.4,0,3.6c0,0.5,0,0.5,0.6,0.5
			c0.1,0,0.2,0,0.3,0c0.2,0.1,0.2,0.4,0.2,0.6c0,0.2-0.1,0.3-0.2,0.3c0,0-0.1,0-0.1,0c-0.8,0-1.7,0-2.5,0c-0.2,0-0.3-0.1-0.2-0.3
			c0-0.2,0-0.4,0.1-0.5c0.1-0.2,0.3-0.1,0.5-0.1c0.4-0.1,0.5-0.1,0.5-0.4c0-1.3,0-2.5,0-3.8c0-0.2-0.1-0.3-0.3-0.4
			c-0.3-0.1-0.5,0-0.6,0.4c0,0.2,0,0.4,0,0.5c0,0.4-0.4,0.6-0.8,0.5c-0.1,0-0.1-0.1-0.1-0.1c0-0.1-0.1-0.3,0-0.4
			c0-0.6-0.1-1.1,0.1-1.7c0.5-0.3,1.1-0.1,1.6-0.1C215.1,57.1,215.3,57.1,215.5,57.1L215.5,57.1z"/>
		<path d="M231,63.2c-0.6-1.9-1.2-3.8-1.7-5.7c-0.1-0.2-0.2-0.4-0.5-0.4c-0.1,0-0.2,0-0.3,0c-0.5,0-0.5,0-0.7,0.6
			c-0.6,1.8-1.1,3.6-1.7,5.4c0,0.1-0.1,0.3,0,0.4c0.1,0,0.2,0.1,0.4,0.1c0.5,0,0.6,0,0.7-0.5c0.1-0.3,0.2-0.6,0.3-1h1
			c1.1,0,1.1,0,1.4,1c0.1,0.4,0.2,0.5,0.7,0.5c0,0,0.1,0,0.1,0C231,63.5,231.1,63.4,231,63.2z M227.8,61c0.2-0.8,0.3-1.6,0.8-2.4
			c0.2,0.5,0.3,0.9,0.4,1.3C229.4,61.2,229.4,61.3,227.8,61z"/>
		<path d="M100.3,63.3c0-0.2-0.1-0.3-0.1-0.5c-0.5-1.6-1-3.2-1.5-4.8c0-0.1,0-0.1-0.1-0.2c-0.2-0.7-0.2-0.7-1-0.7
			c-0.4,0-0.4,0-0.6,0.5c-0.6,1.9-1.2,3.7-1.7,5.6c0,0.1,0,0.2,0,0.3c0.2,0,0.3,0.1,0.4,0.1c0.5,0,0.6,0,0.7-0.5
			c0.1-0.3,0.2-0.6,0.3-1c0.7,0,1.2,0,1.7,0c0.2,0,0.4,0.1,0.5,0.3c0.1,0.3,0.2,0.6,0.3,0.9c0,0.2,0.2,0.2,0.3,0.3
			c0.2,0,0.3,0,0.5,0C100.2,63.5,100.3,63.4,100.3,63.3z M98.3,61.1c-0.3,0-0.7,0-1,0c-0.2,0-0.2-0.2-0.2-0.3
			c0.2-0.7,0.4-1.4,0.7-2.3c0.3,0.9,0.5,1.6,0.7,2.3C98.6,60.9,98.5,61.1,98.3,61.1z"/>
		<path d="M195.3,60.3c0-0.6,0-1.3,0-1.9c0-0.3-0.1-0.4-0.4-0.4c-0.4,0-0.4,0.1-0.5,0.4c0,0.2,0,0.4,0,0.5c0,0.5-0.1,0.5-0.6,0.5
			c-0.2,0-0.3-0.1-0.3-0.3c0-0.5,0-1.1,0-1.6c0-0.5,0-0.5,0.5-0.5c1.2,0,2.4,0,3.7,0c0.4,0,0.4,0.1,0.5,0.4c0,0.5,0,1.1,0,1.6
			c0,0.3-0.1,0.4-0.5,0.4c-0.2,0-0.4,0-0.4-0.3c0-0.2,0-0.5,0-0.7c0-0.3-0.1-0.4-0.5-0.4c-0.2,0-0.3,0.1-0.3,0.3c0,1.3,0,2.6,0,3.9
			c0,0.3,0.1,0.4,0.4,0.4c0.1,0,0.1,0,0.2,0c0.4,0,0.5,0.1,0.5,0.5c0,0.2-0.1,0.4-0.3,0.4c-0.8,0-1.6,0-2.4,0
			c-0.3,0-0.4-0.1-0.4-0.4c0-0.4,0.1-0.5,0.4-0.5c0.1,0,0.2,0,0.3,0c0.2,0,0.3-0.1,0.3-0.3c0-0.5,0-1.1,0-1.6
			C195.3,60.6,195.3,60.4,195.3,60.3L195.3,60.3z"/>
		<path d="M79.6,59.7c-0.2-0.7-0.5-1.5-0.7-2.2c0-0.1,0-0.3-0.2-0.3c-0.3-0.1-0.6-0.1-0.9,0c-0.3,0.1-0.3,0.4-0.4,0.6
			c-0.5,1.5-0.9,2.9-1.4,4.4c-0.1,0.4-0.3,0.9-0.4,1.3c0.9,0.2,1,0.2,1.2-0.4c0.4-1.2,0.1-1,1.4-1c0.3,0,0.6,0,0.9,0
			c0.3,0.4,0.3,0.8,0.5,1.2c0.1,0.2,0.2,0.3,0.4,0.3c0.2,0,0.5,0.1,0.7-0.2C80.4,62.2,80,60.9,79.6,59.7z M78.7,61.1
			c-0.4,0-0.8,0-1.3,0c0.3-0.9,0.5-1.6,0.7-2.3c0.2,0,0.3,0.2,0.3,0.3c0.2,0.6,0.3,1.1,0.5,1.7C78.9,61,78.8,61.1,78.7,61.1z"/>
		<path d="M164.6,59.7c-0.2-0.7-0.5-1.5-0.7-2.2c0-0.1-0.1-0.3-0.2-0.3c-0.3-0.1-0.6-0.1-0.9,0c-0.3,0.1-0.3,0.4-0.4,0.6
			c-0.5,1.5-1,3-1.4,4.5c-0.1,0.4-0.3,0.8-0.3,1.2c0.1,0,0.1,0.1,0.2,0.1c0.1,0,0.2,0,0.3,0c0.4,0,0.4,0,0.6-0.4
			c0.1-0.4,0.1-0.9,0.4-1c0.3-0.1,0.8-0.1,1.1-0.1c0.3,0,0.6,0,0.8,0c0.3,0.4,0.3,0.8,0.4,1.1c0.1,0.3,0.2,0.4,0.5,0.4
			c0.2,0,0.3,0,0.7,0C165.3,62.2,165,60.9,164.6,59.7z M163.6,61.1c-1.5,0-1.3,0.1-0.9-1.2c0.1-0.4,0.2-0.8,0.4-1.4
			c0.4,1,0.6,1.7,0.7,2.5C163.8,61,163.7,61.1,163.6,61.1z"/>
		<path d="M67.3,58.4c0,0.2,0,0.5,0,0.7c0,0.2,0,0.4-0.2,0.4c-0.4,0.1-0.6,0-0.7-0.2c-0.1-0.2-0.1-0.4-0.2-0.6
			C66,58.3,65.7,58,65.2,58c-0.5,0-0.9,0.2-1.1,0.7c-0.5,1.1-0.5,2.2,0,3.3c0.4,0.9,1.6,1,2.2,0.2c0.1-0.1,0.2-0.3,0.3-0.5
			c0.2-0.4,0.5-0.4,0.8-0.2c0.1,0.1,0.1,0.1,0.1,0.3c-0.2,1-1.1,1.8-2,1.9c-1,0.1-1.9-0.4-2.4-1.4c-0.6-1.3-0.6-2.6,0-4
			c0.1-0.3,0.3-0.5,0.5-0.8c0.6-0.6,1.6-0.8,2.3-0.3c0.3,0.2,0.4,0.3,0.6-0.1c0.1-0.2,0.4-0.1,0.6-0.1c0.1,0,0.2,0.1,0.2,0.2
			C67.3,57.7,67.3,58,67.3,58.4L67.3,58.4z"/>
		<path d="M183.4,57.1c-0.1,0-0.2,0-0.3,0c-0.7,0-1.3,0-2,0c-0.3,0-0.4,0.1-0.4,0.4c0,0.9,0,1.9,0,2.8l0,0c0,0.9,0,1.9,0,2.8
			c0,0.3,0.1,0.4,0.5,0.4c0,0,0.1,0,0.1,0c0.4,0,0.5-0.1,0.5-0.5c0-0.6,0-1.2,0-1.8c0-0.2,0.1-0.3,0.3-0.3c0.4,0,0.7,0,1,0
			c0.6-0.1,1.2-0.2,1.6-0.7C185.6,59,184.9,57.4,183.4,57.1z M183.4,59.9c-0.3,0.1-0.6,0.1-0.9,0.1c0,0,0,0,0,0c-0.1,0-0.3,0-0.4,0
			c-0.2,0-0.3-0.1-0.3-0.3c0-0.2,0-0.4,0-0.6c0.1-0.3-0.2-0.9,0.2-1c0.6-0.1,1.3-0.2,1.7,0.3C184.2,58.9,184,59.7,183.4,59.9z"/>
		<path d="M130.6,59.7c0.2-0.4,0.4-0.8,0.5-1.2c0.1-0.2,0.2-0.4-0.1-0.6c-0.2-0.1-0.1-0.3-0.1-0.5c0-0.2,0.1-0.3,0.3-0.3
			c0.5,0,0.9,0,1.4,0c0.2,0,0.4,0,0.4,0.3c0,0.2,0.1,0.5-0.2,0.6c-0.3,0.1-0.4,0.3-0.5,0.5c-0.3,0.5-0.5,1.1-0.8,1.6
			c-0.3,0.6-0.4,1.2-0.4,1.8c0,0.2,0,0.4,0.1,0.6c0.1,0.2,0.4,0.1,0.6,0.1c0.3,0.1,0.5,0.5,0.3,0.8c-0.1,0.1-0.2,0.1-0.3,0.1
			c-0.8,0-1.7,0-2.5,0c-0.2,0-0.3-0.1-0.3-0.3c0-0.4,0-0.5,0.3-0.6c0.1,0,0.3,0,0.4,0c0.2,0,0.3-0.1,0.3-0.3c0-0.7,0-1.5-0.4-2.1
			c-0.3-0.5-0.5-1.1-0.8-1.6c-0.1-0.3-0.2-0.5-0.5-0.6c-0.2-0.1-0.3-0.6-0.1-0.7c0.1-0.1,0.2-0.1,0.3-0.1c0.5,0,0.9,0,1.4,0
			c0.3,0,0.3,0.1,0.3,0.4c0,0.1,0,0.2,0,0.2c-0.1,0.2-0.3,0.4-0.3,0.5c0.1,0.3,0.2,0.7,0.4,1C130.3,59.4,130.3,59.6,130.6,59.7z"/>
		<path d="M169.7,63.5c-0.4,0-0.8,0-1.2,0c-0.3,0-0.4-0.1-0.4-0.5c0-0.4,0-0.4,0.4-0.4c0.1,0,0.2,0,0.3,0c0.2,0,0.3-0.1,0.3-0.3
			c0-0.2,0-0.4,0-0.6c0-1,0-2,0-3c0-0.6,0-0.6-0.6-0.6c-0.4-0.1-0.6-0.3-0.4-0.7c0-0.1,0.1-0.2,0.2-0.2c0.9,0,1.7,0,2.6,0
			c0.2,0,0.3,0.2,0.2,0.4c0,0.2,0,0.4-0.3,0.5c-0.2,0.1-0.5-0.1-0.7,0.1c-0.2,0.2-0.1,0.5-0.1,0.8c0,1.1,0,2.2,0,3.2
			c0,0.3,0.1,0.4,0.4,0.4c0.1,0,0.2,0,0.3,0c0.3,0,0.3,0.2,0.3,0.5c0,0.2-0.1,0.4-0.3,0.4C170.6,63.5,170.2,63.5,169.7,63.5
			C169.7,63.5,169.7,63.5,169.7,63.5z"/>
		<path d="M222,63.5c-0.4,0-0.8,0-1.2,0c-0.3,0-0.4-0.1-0.4-0.4c0-0.4,0-0.5,0.4-0.5c0.1,0,0.2,0,0.3,0c0.2,0,0.2-0.1,0.2-0.3
			c0-0.1,0-0.2,0-0.3c0-1.1,0-2.2,0-3.3c0-0.6,0-0.6-0.6-0.6c0,0-0.1,0-0.1,0c-0.3,0-0.4-0.1-0.4-0.5c0-0.2,0.1-0.4,0.3-0.4
			c0.8,0,1.7,0,2.5,0c0.2,0,0.3,0.2,0.3,0.4c0,0.2,0.1,0.4-0.2,0.5c0,0-0.1,0-0.1,0c-0.2,0-0.4,0-0.6,0.1c-0.2,0.2-0.1,0.5-0.1,0.7
			c0,1.1,0,2.2,0,3.3c0,0.4,0,0.4,0.5,0.5c0.1,0,0.1,0,0.2,0c0.3,0,0.3,0.1,0.4,0.5c0,0.3-0.1,0.4-0.4,0.4
			C222.9,63.5,222.4,63.5,222,63.5L222,63.5z"/>
		<path d="M90.2,59.9c0,0.7,0,1.3,0,2c0,0.7,0,0.7,0.7,0.7c0.7,0,1.3,0,2,0c0.4,0,0.6,0.4,0.4,0.7c0,0.1-0.1,0.2-0.2,0.2
			c-0.2,0-0.4,0-0.6,0c-0.9,0-1.9,0-2.8,0c-0.4,0-0.5-0.1-0.5-0.5c0-1.8,0-3.6,0-5.4c0-0.4,0.1-0.5,0.5-0.5c0.5,0,0.6,0,0.6,0.5
			C90.2,58.4,90.2,59.1,90.2,59.9z"/>
		<path d="M82.6,60.3c0-0.9,0-1.8,0-2.7c0-0.4,0.1-0.4,0.4-0.4c0.1,0,0.3,0,0.4,0c0.1,0,0.2,0.1,0.2,0.2c0,0.2,0,0.3,0,0.5
			c0,1.2,0,2.4,0,3.7c0,1.2-0.1,1.1,1.1,1.1c0.5,0,1.1,0,1.6,0c0.1,0,0.3,0,0.4,0.2c0.1,0.2,0.1,0.4,0,0.6c0,0.1-0.2,0.1-0.3,0.1
			c-1.2,0-2.4,0-3.5,0c-0.2,0-0.3-0.2-0.3-0.3C82.6,62.2,82.6,61.2,82.6,60.3L82.6,60.3z"/>
		<path d="M233,60.3c0-0.9,0-1.9,0-2.8c0-0.3,0.1-0.4,0.5-0.4c0.5,0,0.6,0.1,0.6,0.6c0,0.8,0,1.5,0,2.3c0,0.6,0,1.3,0,1.9
			c0,0.7,0,0.7,0.7,0.7c0.4,0,0.8,0,1.3,0c0.2,0,0.4,0,0.6,0c0.5,0,0.5,0.1,0.5,0.6c0,0.2-0.1,0.4-0.3,0.4c-1.2,0-2.4,0-3.6,0
			c-0.2,0-0.3-0.2-0.3-0.4C233,62.2,233,61.3,233,60.3L233,60.3z"/>
	</g>
</g>
<g>
	<g>
		<path class="st2" d="M20.3,39.5c1.7-0.1,3.3-0.1,4.9-0.2c0-0.1,0-0.1,0-0.2c-0.2,0-0.3-0.1-0.5-0.1c-1.1,0-2.3,0-3.4-0.1
			c-1.2-0.1-2.1-0.8-2.4-1.9c0-0.1-0.1-0.2-0.1-0.3c-0.1-2.8-1.9-4.7-3.7-6.6c-1.7-1.7-3-3.6-3.7-5.9c-1.1-4-0.7-7.9,1.5-11.4
			c2-3.2,4.8-5.3,8.4-6.3C26,5.2,30.2,6.2,34,9c2.4,1.8,4.3,4.1,5.1,7c1.3,4.6,0.6,8.8-2.6,12.5c-0.4,0.4-0.6,1-0.9,1.5
			c-0.5,0.7-1,1.4-1.6,2.1c-0.8,1-1.2,2.1-1.3,3.4c0,0.3,0,0.6-0.1,0.9c-0.1,0.8-0.4,1.4-1.3,1.7c-0.2,0.1-0.4,0.2-0.8,0.5
			c0.5,0.1,0.8,0.2,1.2,0.3c-0.4,0.7-1,0.7-1.5,0.8c-2.9,0.6-5.8,0.6-8.7,0.6C20.8,40.2,20.6,40,20.3,39.5z M22.4,26
			c0,0-0.1,0-0.1,0.1c-0.4-0.6-0.8-1.2-1.2-1.7c-0.3-0.6-0.7-0.6-1.3-0.4c-0.7,0.3-1.5,0.5-2.2,0.6c-0.4,0-0.8-0.2-1.2-0.4
			c0.2-0.4,0.3-0.8,0.6-1c1.6-1.3,3.4-2,5.4-2c1.2,0,2.5,0.1,3.7,0.2c2,0.2,4,0.5,5.9,1.3c1,0.4,2,0.6,3-0.3c0,0,0.1,0,0.2,0
			c-0.1,1.5-1.3,1.8-2.5,2.2c0.9,0.5,1.6-0.2,2.4-0.4c-0.4,1-1.4,1.3-2.5,0.9c-0.9-0.3-1.8-0.6-2.8-0.9C29.4,24,29,24,28.8,24.6
			c-0.6,1.5-1.3,3.1-1.6,4.7c-0.4,2.5-0.4,5-0.5,7.6c0,0.7,0.1,1.4,0.1,2.1c0.3,0,0.6,0,0.7,0c-0.1-0.2-0.3-0.4-0.3-0.6
			c0.1-1.3,0.1-2.6,0.2-3.9c0.2-2,0.2-4.1,0.8-6c0.8-2.5,1.3-2.4,3.3-2.1c2.5,0.4,4.3-0.6,4.7-3.2c0-0.1,0.1-0.3,0.2-0.4
			c0.9-1.1,0.7-2.2,0.2-3.4c-0.1-0.2-0.3-0.3-0.6-0.6c0,1.2,0.6,2.1,0.1,3.3c-0.2-0.3-0.3-0.4-0.4-0.6c-0.5-0.8-1-0.9-1.5-0.1
			c-0.4,0.6-1,0.4-1.4-0.1c0.4-0.3,0.8-0.6,1-1c0.2-0.4,0.1-1,0.2-1.5c1.3-0.3,1.6-0.7,1.5-1.9c0-1.2-0.7-2.4-1.4-2.6
			c0,0.4,0,0.8,0,1.2c-0.3-0.3-0.4-0.7-0.7-1c-0.3-0.3-0.6-0.6-0.9-0.9c-0.2-0.2-0.5-0.2-0.7-0.3c-0.1,0.3-0.1,0.5-0.2,0.8
			c0,0-0.1,0-0.1,0.1c-0.3-0.9-0.9-1.4-1.7-1.7c-0.5-0.3-1-0.5-1.5-0.8c-0.3-0.1-0.6-0.2-0.9-0.3c0,0.3,0,0.6-0.1,0.9
			c0,0,0,0-0.1,0.1c-0.1-0.2-0.2-0.4-0.3-0.6c-0.5-1.2-1.4-1.7-2.7-1.7c-2.3-0.1-4.8,2.1-5.5,3.6c-1-0.5-1.6-0.3-2.4,0.5
			c-0.5,0.6-0.7,1.2-0.7,2c0,0.2-0.1,0.5-0.2,0.7c-0.8,0.7-1.1,1.6-0.6,2.5c0.2,0.3,0.6,0.5,0.9,0.8c0.1,0.1,0.3,0.1,0.4,0.2
			c0.2,0.6,0.7,0.9,1.4,0.8c-0.6,0.7-1.2,1.4-1.8,2.1c0-0.3,0-0.6,0-0.8c0-0.6-0.3-0.9-0.9-1c-0.6,0-0.9,0.3-0.9,0.9
			c0,0.7,0.1,1.4,0.4,2c0.9,1.7,2.8,2.4,4.6,1.9c1.1-0.3,2-0.5,2.9,0.6c0.4,0.5,0.8,0.9,0.8,1.6c0,0.8,0,1.6,0.3,2.2
			c0.7,1.9,1.2,3.8,1.1,5.8c0,0.3,0.1,0.6,0.1,1c0.1,0,0.2,0,0.2,0c0-0.2,0.1-0.4,0.1-0.6c0.1-1.6,0-3.2-0.4-4.8
			c-0.5-1.9-0.9-3.9-1.4-5.8c0-0.1,0-0.1,0-0.2c-0.2-0.7-0.3-1.5-0.5-2.2c-0.1-0.4-0.3-0.9-0.8-0.6c-0.1,0.1-0.1,0.7,0.1,1
			C21.7,24.8,22.1,25.4,22.4,26z M27,23.7c-0.2-0.1-0.5-0.3-0.8-0.4c-0.5-0.2-1.1-0.3-1.6-0.4c-0.2,0-0.6-0.2-0.7,0
			c-0.1,0.1-0.1,0.5-0.1,0.7c0.1,0.8,0.3,1.5,0.3,2.3c0,2.6,0.1,5.1,0.6,7.7c0.3,1.4,0.3,2.8,0.5,4.3c0,0.2,0.3,0.4,0.5,0.6
			c0.2-0.2,0.4-0.3,0.6-0.5c0.1-0.2,0.1-0.4,0.1-0.6c0-1.6,0-3.1-0.2-4.6c-0.4-2.4-0.3-4.8,0.3-7.1C26.7,24.9,26.8,24.4,27,23.7z
			 M26.4,30.6c0.1,0,0.1,0,0.2,0c0-0.4,0.1-0.8,0.1-1.1c0-1.3,0.4-2.6,0.9-3.8c0.2-0.5,0.5-1,0.6-1.5c0.1-0.2-0.1-0.4-0.1-0.6
			c-0.2,0.1-0.4,0.1-0.5,0.3c-0.2,0.3-0.3,0.6-0.5,0.9C26.4,26.6,26.2,28.6,26.4,30.6z M23.6,27.9c0.1,0,0.1,0,0.2,0
			c0.1-1.5,0-3.1-0.6-4.5c-0.1-0.1-0.2-0.3-0.3-0.4c-0.1-0.1-0.4-0.2-0.5-0.2c-0.1,0-0.2,0.3-0.2,0.5c0,0.2,0.1,0.4,0.2,0.5
			c0.3,0.9,0.6,1.8,0.9,2.8C23.6,27,23.6,27.5,23.6,27.9z M30.6,11.4c0.1-0.3,0.1-0.4,0.1-0.5c-0.1-0.8-1.3-2.1-2.1-2.1
			c-0.1,0-0.3,0.1-0.3,0.1c0,0.2,0,0.4,0.1,0.5c0.4,0.5,0.9,1,1.4,1.4C30.1,10.9,30.3,11.1,30.6,11.4z"/>
		<path class="st2" d="M30.2,54.9c-0.1,0.4-0.2,0.8-0.2,1.2c0.1,0,0.1,0.1,0.2,0.1c0.2-0.2,0.3-0.4,0.4-0.7c0.2-0.5,0.5-1.1,0.7-1.6
			c0.2-0.4,0.4-0.5,0.8-0.4c2.3,0.9,4.6,1.8,6.8,2.8c0.6,0.2,1,0.7,1.5,1.1c0.1,0,0.1-0.1,0.2-0.1c-0.1-0.2-0.2-0.5-0.4-0.6
			c-1-0.7-2-1.4-3.1-1.9c-1.4-0.7-2.8-1.1-4.2-1.7c-0.8-0.3-0.8-0.5-0.5-1.2c0.3-0.6,0.6-1.3,0.8-1.9c0.2-0.6,0.6-0.8,1.2-0.6
			c2,0.7,4.1,1.4,6.1,2.2c0.8,0.3,1.3,1.1,1.7,2c0.8,1.7,0.3,2.9-0.5,4.4c-2.7,4.8-5.4,9.6-8.1,14.5c-0.2,0.3-0.4,0.7-0.5,1.1
			c-0.2,1-0.8,1.3-1.7,1.2c-1.5-0.1-3-0.1-4.5-0.1c-2.5,0-5.1,0.1-7.6,0.1c-0.2,0-0.4,0-0.7,0c0.1-0.6,0.1-1.2,0.2-1.7
			c1,0.3,1.9,0.6,2.9,0.7c0.9,0.1,1.9,0,2.8,0c0-0.1,0-0.2,0-0.2c-0.3-0.1-0.5-0.1-0.8-0.2c-1.2-0.2-2.4-0.4-3.6-0.6
			c-0.8-0.2-1.2-0.8-1.3-1.7c0.5,0,0.7,0.2,0.7,0.7c0,0.2,0.2,0.5,0.4,0.6c1.2,0.4,2.4,0.5,3.6,0.3c0-0.1,0-0.1,0-0.2
			c-1.2-0.2-2.3-0.5-3.5-0.7c0-0.1,0-0.1,0-0.2c0.4,0,0.8,0,1.2,0c2.5,0,4.8-1.5,5.6-3.9c0.8-2.3,0.6-4.7-0.2-7
			c-0.2-0.6-0.2-1,0.3-1.5c0.4-0.4,0.7-0.9,1.1-1.3c0.2-0.2,0.8-0.3,1-0.2c2.4,1.3,4.8,2.6,7.2,4c0.1,0,0.1,0.1,0.2,0.2
			c0.2,0,0.3,0,0.5,0c-0.1-0.2,0-0.4-0.2-0.5c-0.9-0.6-1.7-1.3-2.7-1.8c-1.6-0.8-3.1-1.6-4.7-2.4c-0.7-0.3-0.8-0.5-0.4-1.2
			c0.2-0.4,0.4-0.7,0.5-1.1c0-0.1,0.1-0.2,0.1-0.2C30.1,54.8,30.2,54.9,30.2,54.9z M33.2,51.8c0.1,0,0.2,0.1,0.2,0.1
			c0.1-0.2,0.3-0.4,0.4-0.6c0.2-0.3,0.4-0.5,0.6-0.8c0.1-0.2,0.3-0.4,0.3-0.6c0-0.1-0.3-0.3-0.4-0.3c-0.2,0.1-0.6,0.2-0.7,0.4
			C33.5,50.6,33.4,51.2,33.2,51.8z"/>
		<path class="st2" d="M25.3,68.8c0.4-0.5,0.7-0.9,1.2-1.5c-0.8,2.7-3.7,4.3-6.2,3.3c-0.3-0.1-0.5-0.5-0.8-0.9
			c-0.1-0.2-0.2-0.5-0.3-0.7c-1.7-2.1-3.4-4.3-5.1-6.4c-1.5-1.9-2.9-4-4.3-5.9c-1-1.4-0.9-2.4,0.4-3.6c1.1-1,2.9-2,3.9-2.1
			c0,0.2,0.1,0.5,0.2,0.8c0.6-0.2,1.1-0.4,1.6-0.6c1-0.4,1.9-0.2,2.7,0.6c2.2,2.3,4.5,4.6,6.6,7c1.3,1.6,1.8,3.6,1.7,5.7
			c-0.1,1.3-0.7,2.4-1.4,3.5c-0.1,0.2-0.2,0.4-0.3,0.6C25.1,68.7,25.2,68.7,25.3,68.8z M14.8,54c-0.8,0.3-1,0.7-0.4,1.5
			c1.6,1.8,3.2,3.6,4.8,5.4c0.7,0.8,1.7,1.3,2.1,2.2c0.1,0.1,0.4,0.1,0.7,0.2c0.1-0.2,0.2-0.5,0.2-0.7c-0.1-0.3-0.4-0.5-0.6-0.7
			c-1-1.2-2-2.4-3-3.6C18.4,58,18,58,17.8,57.8c-0.6-0.7-1.1-1.5-1.7-2.2C15.7,55,15.3,54.5,14.8,54z M23.2,63.8
			c-0.3-0.2-0.5-0.5-0.5-0.5c-0.2,0.1-0.4,0.3-0.5,0.5c0,0.1,0.2,0.4,0.3,0.4C22.8,64.2,22.9,64,23.2,63.8z"/>
		<path class="st2" d="M42.2,52.6c-0.6-1.3-1.8-1.8-3-2.2c-1.6-0.6-3.3-1.1-4.9-1.7c-0.3-0.1-0.6-0.2-0.9-0.4c0-0.1,0-0.1,0.1-0.2
			c0.9,0.1,1.7,0.3,2.5,0.4c0-0.1,0-0.2,0.1-0.2c-0.1-0.1-0.3-0.2-0.4-0.2c-0.4-0.1-0.9-0.2-1.3-0.4c-1.2-0.3-1.3-0.5-1.1-1.7
			c0.1-0.6,0.2-1.1,0.3-1.6c0.1-0.2,0.4-0.6,0.6-0.6c0.6,0,1.3,0.2,1.9,0.4c0.2,0,0.3,0,0.5,0c0-0.2,0-0.4,0-0.5
			c-0.1-0.1-0.3-0.2-0.4-0.3c-0.2-0.1-0.5-0.1-0.7-0.1c-1.9-0.2-1.7-0.3-1.2-2.1c0-0.2,0.4-0.4,0.6-0.4c0.6,0,1.2,0.2,1.8,0.3
			c0.2,0,0.3-0.1,0.5-0.1c-0.1-0.1-0.2-0.3-0.4-0.4c-0.5-0.1-1-0.2-1.5-0.4c-0.5-0.1-0.8-0.4-0.7-0.9c0.1-0.8,0.2-1.6,0.3-2.5
			c0.8,0.3,1.4,0.5,2,0.8c0.2,0.1,0.4,0,0.5,0c0.2-0.1,0.4-0.2,0.6-0.3c0.8-0.2,0.9,0,0.8,0.8c-0.2,2.1-0.4,4.3-0.6,6.4
			c-0.1,1,0.6,1.9,1.7,2.1c0.8,0.2,1.7,0.2,2.5,0.4c0.3,0.1,0.6,0.2,0.8,0.5C44.4,48.9,43.9,51.5,42.2,52.6z"/>
		<path class="st2" d="M40.9,41.2c-0.2-0.1-0.4-0.3-0.6-0.4c-0.6-0.4-1-0.8-0.9-1.6c0.3-1.3,0.5-2.6,0.8-3.9
			c0.1-0.3,0.3-0.6,0.5-0.8c0.4-0.5,0.8-1,1.6-0.8c0.8,0.2,1.4,0.6,1.6,1.4c0.1,0.4,0.2,0.8,0.2,1.2c-0.1,2.9-0.3,5.8-0.5,8.7
			c0,0.3,0,0.6-0.2,0.9c-0.1,0.2-0.4,0.5-0.6,0.4c-1.1-0.2-2.2-0.4-3.2-0.7c-0.6-0.2-0.8-0.8-0.8-1.4c0-0.8,0.2-1.7,0.3-2.5
			c0.1-0.7,0.2-0.8,0.9-0.5c0.3,0.1,0.6,0.1,0.8,0.2C40.9,41.4,40.9,41.3,40.9,41.2z"/>
		<path class="st2" d="M6.7,35.1c1.6,0.1,2.6,0.8,3.2,1.9c0.5,0.9,0.9,1.8,1.1,2.7c0.4,1.3,0.6,2.7,0.8,4.1c0.1,0.4,0.1,0.7-0.3,0.9
			c-1.2,0.5-2.5,0.9-3.7,1.4c-0.6,0.2-1,0-1.1-0.7c-0.4-2.6-0.9-5.2-1.3-7.7c-0.1-0.9-0.2-1.7,0.6-2.3C6.3,35.2,6.6,35.2,6.7,35.1z
			 M7,36.4c0.6,1.3,1.3,2.6,1.8,4c0.4,1.4,0.6,2.9,0.9,4.4C10.5,43.3,9,37.9,7,36.4z"/>
		<path class="st2" d="M35.3,31.6c0.1,0.2,0.1,0.4,0.2,0.6c0,0,0.1,0,0.1,0c0-0.2,0.1-0.3,0.1-0.5c0.2-0.6,0.3-1.3,0.6-1.9
			c0.3-0.9,0.9-1.2,1.8-1.1c0.7,0.1,1.2,0.5,1.2,1.4c0,1.9-0.1,3.8-0.2,5.7c0,0.2-0.3,0.6-0.5,0.6c-1.1,0.1-2.3,0.1-3.2-0.7
			c-0.2-0.2-0.5-0.6-0.5-0.8c0-1.1,0.2-2.3,0.3-3.4C35.2,31.6,35.3,31.6,35.3,31.6z"/>
		<path class="st2" d="M9.2,51.8c-0.5-1.3-1.1-2.6-1.6-3.8c-0.3-0.6-0.2-1,0.5-1.1c0.4-0.1,0.8-0.3,1.1-0.3c0.3-0.1,0.7,0,1.1,0
			c0.1-0.3,1.4-1.2,1.8-1.1c0.1,0,0.3,0.2,0.4,0.3c0.5,1.3,1,2.6,1.5,3.9c0.1,0.2-0.1,0.5-0.3,0.6c-1.2,0.7-2.3,1.4-3.5,2.1
			c-0.5,0.3-0.7,0-0.9-0.4C9.3,51.8,9.2,51.8,9.2,51.8z"/>
		<path class="st2" d="M22.5,41.9c-0.5-0.1-0.9-0.2-1.4-0.4c-0.2-0.1-0.3-0.3-0.5-0.5c0.2-0.1,0.4-0.2,0.6-0.2
			c1.4-0.1,2.7,0,4.1-0.1c1.9-0.2,3.9-0.5,5.8-0.8c0.2,0,0.4,0,0.8,0c-0.4,0.7-0.9,0.9-1.4,1c-1.8,0.3-3.6,0.5-5.4,0.8
			c-0.3,0-0.5,0.1-0.8,0.2c0,0.1,0,0.1,0,0.2c0.2,0,0.4,0.1,0.7,0.1c2-0.3,3.9-0.6,5.9-0.8c0.3,0,0.6-0.1,0.9-0.1
			c0,0.1,0.1,0.2,0.1,0.2c-0.3,0.2-0.5,0.5-0.8,0.5c-1.5,0.3-3,0.6-4.6,0.8c-1.5,0.2-3,0.2-4.6,0.3c-0.2,0-0.4,0-0.6,0
			c-0.2-0.1-0.4-0.3-0.6-0.4c0.2-0.1,0.4-0.3,0.6-0.4c0.4-0.1,0.8-0.1,1.2-0.1C22.5,42,22.5,42,22.5,41.9z"/>
		<path class="st2" d="M20.9,49.2c0.4-0.1,0.6-0.1,0.9-0.2c2.9-0.3,5.7-0.6,8.6-0.8c0.3,0,0.5-0.1,0.8-0.2c0.2,0,0.5,0,0.7,0
			c-0.1,0.2-0.1,0.5-0.3,0.7c-0.6,0.8-1.4,1.3-2.4,1.4c-1.9,0.1-3.9,0.3-5.8,0.4C22.4,50.6,21.7,50.1,20.9,49.2z"/>
		<path class="st2" d="M22.5,46.6c-0.5,0-0.9,0-1.4,0c-0.2,0-0.5-0.3-0.5-0.4c0-0.2,0.2-0.5,0.4-0.6c0.3-0.2,0.7-0.2,1-0.3
			c2.7-0.3,5.4-0.7,8.1-1c0.3,0,0.6-0.1,0.9-0.1c0.6-0.1,0.7,0.4,0.8,0.8c0.1,0.5-0.2,0.6-0.6,0.7c-2,0.3-4,0.5-6.1,0.7
			C24.2,46.6,23.4,46.6,22.5,46.6C22.5,46.7,22.5,46.7,22.5,46.6z"/>
		<path class="st2" d="M21.5,44.9c-0.1,0-0.3,0-0.4,0c-0.2-0.1-0.4-0.3-0.6-0.4c0.2-0.2,0.3-0.6,0.5-0.7c0.9-0.2,1.9-0.2,2.8-0.4
			c2.4-0.3,4.8-0.7,7.1-1c0.1,0,0.1,0,0.2,0c0.3,0.1,0.6,0.2,0.9,0.3c-0.2,0.3-0.4,0.7-0.7,0.7c-1.8,0.4-3.7,0.7-5.6,1
			C24.4,44.8,22.9,44.9,21.5,44.9C21.5,45,21.5,45,21.5,44.9z"/>
		<path class="st2" d="M23.4,51.4c2-0.2,4-0.3,6-0.1c-0.4,1.7-1.3,2.4-2.9,2.5C25,53.8,23.9,53,23.4,51.4z"/>
		<path class="st2" d="M22.2,48.4c-0.3,0-0.9,0-1.4-0.2c-0.2,0-0.4-0.3-0.5-0.5c0.2-0.1,0.4-0.3,0.6-0.3c2.3-0.2,4.6-0.3,6.9-0.5
			c1.1-0.1,2.2-0.3,3.2-0.4c0.2,0,0.5,0.2,0.7,0.3c-0.2,0.2-0.4,0.6-0.6,0.6c-1.1,0.2-2.2,0.4-3.4,0.5C26,48.1,24.2,48.2,22.2,48.4z
			"/>
		<path class="st2" d="M18,25c-0.9,0.5-2.4-0.1-2.9-1.1C16.1,24.3,17,24.7,18,25z"/>
		<path class="st2" d="M18,19.9c0-0.5-0.1-1-0.1-1.5c0.1,0,0.1,0,0.2,0c0,0.5,0.1,1,0.1,1.5C18.2,19.9,18.1,19.9,18,19.9z"/>
	</g>
	<g>
		<path class="st3" d="M79.9,41c0-0.3,0-0.7,0-1c0-4.2,0-8.4,0-12.7c0-0.3,0-0.6,0-0.8c0-0.2,0.1-0.3,0.3-0.3c0.2,0,0.4,0,0.5,0
			c1.5,0,3,0,4.5,0c0.8,0,0.8,0,0.8,0.9c0,0.1,0,0.2,0,0.3c0,7.7,0,15.3,0,23c0,1.3,0.1,1.2-1.2,1.2c-1.5,0-2.9,0-4.4,0
			c-0.5,0-0.8-0.2-1-0.6c-1.8-2.8-3.7-5.5-5.5-8.3c-1.3-1.9-2.5-3.8-3.8-5.6c-0.1-0.2-0.2-0.3-0.4-0.5c-0.3,0.2-0.2,0.5-0.2,0.7
			c0,4.3,0,8.7,0,13c0,1.5,0.2,1.3-1.3,1.3c-1.3,0-2.7,0-4,0c-0.2,0-0.4,0-0.6,0c-0.1,0-0.2-0.1-0.2-0.2c0-0.2,0-0.5,0-0.7
			c0-7.8,0-15.6,0-23.4c0-0.1,0-0.2,0-0.3c0-0.7,0-0.7,0.7-0.7c1.7,0,3.3,0,4.9,0c0.4,0,0.6,0.1,0.8,0.4c0.8,1.2,1.7,2.4,2.5,3.7
			c2.2,3.3,4.5,6.6,6.7,9.9c0.2,0.3,0.4,0.6,0.7,1C79.8,41,79.8,41,79.9,41z"/>
		<path class="st3" d="M95.4,36.5c0,0.4,0,0.8,0,1.1c0,4.3,0,8.6,0,12.9c0,1,0,0.9-0.9,0.9c-1.6,0-3.1,0-4.7,0
			c-0.4,0-0.5-0.1-0.5-0.5c0-0.2,0-0.5,0-0.7c0-7.7,0-15.3,0-23c0-1.3-0.1-1.2,1.2-1.2c1.4,0,2.7,0,4.1,0c1,0,0.8-0.1,1.4,0.7
			c1.8,2.6,3.6,5.3,5.3,7.9c1.3,1.9,2.6,3.9,3.9,5.8c0.1,0.2,0.2,0.3,0.4,0.5c0.3-0.2,0.2-0.4,0.2-0.7c0-4.3,0-8.7,0-13
			c0-1.5-0.2-1.3,1.3-1.3c1.4,0,2.9,0,4.3,0c0.6,0,0.6,0,0.6,0.7c0,0.2,0,0.4,0,0.5c0,7.7,0,15.3,0,23c0,1.3,0.1,1.2-1.2,1.2
			c-1.5,0-3,0-4.5,0c-0.4,0-0.7-0.1-0.9-0.5c-0.8-1.1-1.5-2.3-2.3-3.4c-2.4-3.5-4.7-7-7.1-10.5C95.9,36.9,95.8,36.7,95.4,36.5z"/>
		<path class="st3" d="M137.7,30.3c0-0.3-0.1-0.7-0.1-1c-0.1-1.5-1.6-3.2-3.7-3.2c-5.1,0-10.1,0-15.2,0c-1.8,0-3.7,1.6-3.7,3.5
			c0,0.3,0,0.6,0,0.8c0,2.8,0,5.5,0,8.3s0,5.5,0,8.3c0,0.4,0,0.8,0,1.2c0,0.6,0.3,1.2,0.6,1.7c0.8,1.1,1.8,1.7,3.2,1.6
			c5,0,9.9,0,14.9,0c0.1,0,0.3,0,0.4,0c1.7-0.1,3.1-1.4,3.4-3c0.1-0.4,0.1-0.8,0.1-1.2C137.7,41.7,137.7,36,137.7,30.3z M131.5,45.4
			c0,0.5-0.3,0.8-0.8,0.8c-0.2,0-0.4,0-0.6,0c-2.4,0-4.9,0-7.3,0c-1.1,0-1.5-0.2-1.5-1.6c0-4,0-7.9,0-11.8c0-1.4,0.2-1.5,1.5-1.5
			c2.4,0,4.9,0,7.3,0c0,0,0.1,0,0.1,0c1.1,0,1.3,0.2,1.3,1.3c0,2.1,0,4.1,0,6.2c0,1.9,0,3.9,0,5.9C131.5,44.9,131.5,45.2,131.5,45.4
			z"/>
		<path class="st3" d="M192.8,51c-2.7-8.3-5.5-16.6-8.2-24.9c-0.3,0-0.6,0-0.8,0c-2.8,0-5.5,0-8.3,0c-1,0-0.9-0.1-1.2,0.8
			c-1,3.1-2,6.2-3.1,9.3c-1.6,4.9-3.2,9.7-4.8,14.5c-0.1,0.2-0.2,0.4,0,0.6c0.2,0,0.3,0,0.5,0c1.7,0,3.4,0,5.1,0c0.1,0,0.1,0,0.2,0
			c0.5,0,0.5,0,0.7-0.5c0.1-0.2,0.1-0.3,0.2-0.5c0.3-1,0.7-2.1,1-3.1c0.3-0.7,0.1-0.7,0.9-0.7c3,0,6.1,0,9.1,0c0.6,0,0.6,0,0.8,0.6
			c0.4,1.2,0.8,2.4,1.3,3.7c0.2,0.5,0.2,0.5,0.7,0.6c1.5,0,3,0,4.5,0h1.3C192.8,51.3,192.8,51.1,192.8,51z M176.2,41.3
			c1.1-3.3,2.2-6.6,3.4-9.9c1.2,3.3,2.4,6.6,3.4,9.9C181.9,41.5,177,41.5,176.2,41.3z"/>
		<path class="st3" d="M227,38.9c0-3.8,0-7.6,0-11.4c0-0.3,0-0.6,0-0.8c0-0.4,0.1-0.4,0.4-0.5c0.2,0,0.5,0,0.7,0
			c6.2,0,12.4,0,18.7,0c1.3,0,1.2-0.1,1.2,1.2c0,1.2,0,2.4,0,3.6c0,0.4-0.1,0.4-0.4,0.5c-0.3,0-0.6,0-0.8,0c-4.1,0-8.2,0-12.3,0
			c-0.3,0-0.6,0-0.8,0c-0.4,0-0.4,0.1-0.4,0.4c0,0.9,0,1.9,0,2.8c0,0.4,0,0.8,0,1.3c0,0.2,0.1,0.3,0.3,0.3c0.3,0,0.6,0,0.8,0
			c2.9,0,5.9,0,8.8,0c0.2,0,0.4,0,0.5,0c0.8,0,0.8,0,0.8,0.8c0,1.3,0,2.7,0,4c0,0.4-0.1,0.5-0.5,0.5c-1.2,0-2.4,0-3.6,0
			c-2,0-4.1,0-6.1,0c-0.2,0-0.5,0-0.7,0c-0.3,0-0.4,0.2-0.4,0.4c0,0.3,0,0.6,0,0.8c0,1,0,2,0,3c0,0.5,0.1,0.5,0.6,0.5
			c0.2,0,0.5,0,0.7,0c4.1,0,8.2,0,12.3,0c1.5,0,1.3-0.2,1.3,1.3c0,1.2,0,2.3,0,3.5c0,0.4-0.1,0.4-0.4,0.4c-0.2,0-0.4,0-0.6,0
			c-6.3,0-12.6,0-18.9,0c-1.2,0-1,0.1-1-1.1C227,46.5,227,42.7,227,38.9z"/>
		<path class="st3" d="M139.6,26.1c0.5,0,1,0,1.6,0c1.4,0,2.8,0,4.2,0c0.6,0,0.6,0,0.7,0.5c0.8,2.4,1.7,4.9,2.5,7.3
			c1.3,3.9,2.6,7.7,3.9,11.6c0.1,0.2,0,0.4,0.3,0.6c0.2,0,0.2-0.2,0.3-0.4c0.1-0.1,0.1-0.3,0.1-0.4c1.6-4.8,3.2-9.6,4.9-14.4
			c0.5-1.4,1-2.8,1.5-4.3c0.2-0.6,0.2-0.6,0.8-0.6c1.8,0,3.6,0,5.3,0c0.1,0,0.3,0,0.4,0c0.1,0.3,0,0.6-0.1,0.8
			c-1.4,4.4-2.9,8.7-4.3,13.1c-1.1,3.3-2.2,6.6-3.3,9.9c-0.1,0.2-0.2,0.5-0.2,0.7c-0.3,0.8-0.3,0.7-0.9,0.7c-2.9,0-5.8,0-8.7,0
			c-0.5,0-0.6,0-0.7-0.5c-0.9-2.5-1.7-5.1-2.5-7.7c-1.3-3.8-2.5-7.7-3.8-11.5c-0.5-1.6-1-3.1-1.5-4.7
			C139.6,26.8,139.4,26.5,139.6,26.1z"/>
		<path class="st3" d="M213.9,26.1c3.4,0,6.8,0,10.2,0c0.2,0,0.5,0,0.7,0c0.4,0,0.4,0.1,0.5,0.4c0,0.4,0,0.7,0,1.1
			c0,1.1,0,2.2,0,3.3c0,0.4-0.1,0.5-0.5,0.5c-2.1,0-4.1,0-6.2,0c-0.5,0-1-0.2-1.3,0.1c-0.4,0.3-0.2,0.9-0.2,1.4c0,5.8,0,11.7,0,17.5
			c0,1.2,0.1,1.1-1.1,1.1c-1.5,0-3.1,0-4.6,0c-0.4,0-0.5-0.1-0.5-0.5c0-0.3,0-0.6,0-0.8c0-5.8,0-11.7,0-17.5c0-0.3,0-0.6,0-0.8
			c0-0.4-0.1-0.5-0.5-0.5c-0.6,0-1.2,0-1.8,0c-1.7,0-3.4,0-5,0c-0.2,0-0.4,0-0.5,0c-0.3,0-0.4-0.2-0.4-0.4c0-0.1,0-0.3,0-0.4
			c0-1.3,0-2.6,0-3.9c0-0.4,0.1-0.5,0.5-0.5c0.9,0,1.7,0,2.6,0C208.4,26.1,211.1,26.1,213.9,26.1z"/>
		<path class="st3" d="M60.2,38.8c0,3.9,0,7.8,0,11.7c0,1,0,0.9-0.9,0.9c-1.5,0-2.9,0-4.4,0c-0.2,0-0.4,0-0.5,0
			c-0.2,0-0.3-0.1-0.3-0.3c0-0.2,0-0.5,0-0.7c0-7.8,0-15.5,0-23.3c0-1.1-0.1-1,1-1c1.4,0,2.9,0,4.3,0c0.2,0,0.4,0,0.5,0
			c0.2,0,0.3,0.1,0.3,0.3c0,0.3,0,0.6,0,0.8C60.2,31.1,60.2,35,60.2,38.8z"/>
		<path class="st3" d="M200.8,38.9c0,3.9,0,7.8,0,11.6c0,1,0,0.9-0.9,0.9c-1.6,0-3.1,0-4.7,0c-0.4,0-0.5-0.1-0.5-0.5
			c0-0.2,0-0.5,0-0.7c0-7.7,0-15.3,0-23c0-1.4-0.2-1.2,1.2-1.2c1.4,0,2.7,0,4.1,0c0.2,0,0.4,0,0.5,0c0.2,0,0.3,0.1,0.3,0.3
			c0,0.3,0,0.6,0,0.8C200.8,31.2,200.8,35.1,200.8,38.9z"/>
		<path class="st3" d="M207.9,59.5c0,0.9,0,1.9,0,2.8c0,0.3,0,0.6,0,0.8c0,0.4-0.1,0.5-0.5,0.4c-0.1,0-0.2,0-0.3,0
			c-0.1,0-0.2-0.1-0.2-0.2c0-0.1,0-0.2,0-0.3c0-1.8,0-3.6,0-5.3c0-0.2,0-0.4,0.1-0.5c0.3-0.1,0.7-0.1,1,0c0.2,0.1,0.3,0.3,0.3,0.5
			c0.4,1,0.8,1.9,1.2,2.9c0,0.1,0.1,0.2,0.1,0.3c0,0,0.1,0.1,0.2,0.1c0.1,0,0.1,0,0.1-0.1c0-0.9,0-1.9,0-2.8c0-0.2,0-0.4,0-0.6
			c0-0.1,0.1-0.2,0.2-0.2c0.2-0.1,0.5-0.1,0.7,0c0.1,0,0.1,0.2,0.1,0.2c0,1.9,0,3.8,0,5.8c0,0.2-0.1,0.3-0.3,0.3c-0.2,0-0.4,0-0.6,0
			c-0.2,0-0.3-0.1-0.3-0.2c-0.1-0.3-0.2-0.5-0.3-0.8c-0.4-1-0.8-2.1-1.3-3.1C208.1,59.4,208,59.5,207.9,59.5z"/>
		<path class="st3" d="M106.3,63.5c-0.2,0.1-0.5,0.1-0.7,0.1c-0.3,0-0.4-0.1-0.5-0.4c-0.4-1-0.8-2-1.2-3c-0.1-0.2-0.2-0.4-0.3-0.7
			c-0.3,0.1-0.2,0.3-0.2,0.4c0,1,0,1.9,0,2.9c0,0.7,0,0.8-0.8,0.7c-0.2,0-0.2-0.1-0.2-0.3c0-0.3,0-0.6,0-0.9c0-1.6,0-3.1,0-4.7
			c0-0.4,0.1-0.5,0.5-0.5c0.1,0,0.3,0,0.4,0c0.2,0,0.4,0.1,0.5,0.3c0.2,0.5,0.4,1,0.6,1.6c0.3,0.7,0.6,1.3,0.8,2
			c0.3-0.1,0.2-0.3,0.2-0.5c0-1,0-1.9,0-2.9c0-0.4,0.1-0.5,0.5-0.5c0.1,0,0.2,0,0.3,0c0.2,0,0.2,0.1,0.2,0.3c0,0.1,0,0.3,0,0.4
			c0,1.7,0,3.4,0,5.1C106.4,63.1,106.4,63.3,106.3,63.5z"/>
		<path class="st3" d="M113.1,58.3c0,0.2,0,0.5,0,0.7c0,0.2,0,0.4-0.3,0.4c-0.4,0.1-0.6,0-0.7-0.3c-0.1-0.2-0.1-0.4-0.2-0.6
			c-0.4-0.8-1.6-0.8-2-0.1c-0.2,0.4-0.3,0.8-0.4,1.2c-0.1,0.7-0.1,1.3,0.2,2c0.2,0.6,0.5,1,1.2,1.1c0.7,0.1,1.1-0.2,1.4-0.9
			c0.1-0.2,0.1-0.3,0.1-0.5c0-0.1-0.1-0.2-0.2-0.2c-0.2,0-0.4,0-0.6,0c-0.4,0-0.5-0.1-0.5-0.6c0-0.3,0.1-0.4,0.4-0.4
			c0.5,0,1.1,0,1.6,0c0.3,0,0.4,0.1,0.4,0.4c0,0.6-0.1,1.3-0.4,1.8c-0.4,0.9-1.1,1.3-2.1,1.3c-0.9,0-1.6-0.5-2-1.3
			c-0.3-0.5-0.4-1.1-0.4-1.6c-0.1-0.7,0-1.4,0.2-2.1c0.2-0.6,0.5-1.1,1-1.4c0.7-0.4,1.4-0.5,2.1,0c0.2,0.1,0.3,0.1,0.4-0.1
			c0.1-0.3,0.4-0.1,0.7-0.1c0.1,0,0.2,0.1,0.2,0.2C113.1,57.7,113.1,58,113.1,58.3L113.1,58.3z"/>
		<path class="st3" d="M150.9,61.3c-0.2-0.2-0.1-0.3,0.2-0.5c0.1,0,0.2-0.1,0.3-0.1c0.8-0.4,1.1-1.1,1-2.1c-0.1-0.8-0.7-1.3-1.5-1.4
			c-0.2,0-0.3,0-0.5-0.1c-0.6,0-1.2,0-1.8,0c-0.4,0-0.5,0-0.5,0.5c0,1.8,0,3.6,0,5.4c0,0.1,0,0.1,0,0.2c0,0.1,0.1,0.3,0.3,0.3
			c0.1,0,0.2,0,0.3,0c0.4,0,0.5-0.1,0.5-0.5c0-0.6,0-1.1,0-1.7c0-0.2,0-0.4,0.2-0.4c0.1,0,0.3,0.1,0.3,0.2c0.4,0.6,0.7,1.1,1.1,1.7
			c0.5,0.7,0.5,0.7,1.3,0.7c0.1,0,0.1-0.1,0.2-0.1c0.1-0.2-0.1-0.3-0.2-0.5C151.7,62.4,151.3,61.8,150.9,61.3z M150.7,59.9
			c-0.4,0.1-0.8,0.1-1.1,0.1c-0.4,0-0.5-0.1-0.5-0.5c0-0.2,0-0.5,0-0.7c0-0.9,0-0.8,0.9-0.8c0.1,0,0.3,0,0.4,0
			c0.7,0.1,1,0.5,0.9,1.2C151.2,59.6,151.1,59.8,150.7,59.9z"/>
		<path class="st3" d="M139.1,58.4c-0.4-0.9-1.1-1.4-2.1-1.5c-1,0-1.7,0.5-2.1,1.4c-0.5,1.3-0.5,2.6,0,3.9c0.4,0.9,1.1,1.4,2.1,1.4
			c1,0,1.7-0.5,2-1.4c0.3-0.6,0.4-1.3,0.4-2.2C139.5,59.7,139.4,59.1,139.1,58.4z M138.2,61.9c-0.2,0.6-0.6,0.8-1.2,0.8
			c-0.6,0-0.9-0.3-1.1-0.8c-0.4-1.1-0.4-2.1,0-3.1c0.2-0.4,0.5-0.8,1-0.8c0.6-0.1,1.1,0.2,1.3,0.8c0.2,0.5,0.3,1,0.3,1.5
			C138.5,60.8,138.3,61.4,138.2,61.9z"/>
		<path class="st3" d="M191.5,58.5c-0.4-1-1.2-1.5-2.2-1.5c-1,0-1.7,0.5-2.1,1.5c-0.3,0.6-0.3,1.3-0.3,2c0,0.5,0.1,1.1,0.3,1.7
			c0.4,1,1.2,1.5,2.1,1.6c1,0,1.8-0.5,2.2-1.5C191.9,61,191.9,59.7,191.5,58.5z M190.4,61.9c-0.2,0.5-0.6,0.8-1.1,0.8
			c-0.6,0-1-0.2-1.1-0.8c-0.4-1.1-0.4-2.2,0-3.2c0.2-0.5,0.6-0.8,1.1-0.7c0.6,0,0.9,0.3,1.1,0.8c0.2,0.5,0.3,1,0.3,1.6
			C190.7,60.8,190.7,61.4,190.4,61.9z"/>
		<path class="st3" d="M69.6,60.3c0-0.9,0-1.9,0-2.8c0-0.3,0.1-0.4,0.4-0.4c0.1,0,0.1,0,0.2,0c0.2,0,0.4,0.1,0.4,0.4
			c0,0.6,0,1.2,0,1.8c0,0.5,0,0.5,0.5,0.5c1.8,0,1.5,0.3,1.5-1.5c0-0.2,0-0.5,0-0.7c0-0.2,0-0.4,0.2-0.4c0.2-0.1,0.5-0.1,0.7,0
			c0.1,0.1,0.1,0.2,0.1,0.4c0,1.3,0,2.5,0,3.8c0,0.6,0,1.2,0,1.8c0,0.3-0.1,0.4-0.5,0.4c-0.1,0-0.1,0-0.2,0c-0.2,0-0.4-0.1-0.4-0.4
			c0-0.7,0-1.3,0-2c0-0.4-0.1-0.4-0.4-0.4c-0.4,0-0.8,0-1.3,0c-0.2,0-0.3,0.1-0.3,0.3c0,0.7,0,1.4,0,2.1c0,0.3-0.1,0.4-0.4,0.4
			c-0.6,0-0.6,0-0.6-0.6C69.6,62.1,69.6,61.2,69.6,60.3z"/>
		<path class="st3" d="M200.3,60.3c0-0.9,0-1.8,0-2.7c0-0.4,0.1-0.5,0.4-0.5c1.1,0,2.2,0,3.4,0c0.3,0,0.6,0.5,0.4,0.8
			c-0.1,0.1-0.2,0.1-0.4,0.1c-0.7,0-1.5,0-2.2,0c-0.4,0-0.5,0-0.5,0.5c0,0.1,0,0.2,0,0.3c0,1-0.1,0.9,0.9,0.9c0.4,0,0.7,0,1.1,0
			c0.2,0,0.4,0,0.4,0.2c0.1,0.2,0.1,0.4,0,0.6c0,0.1-0.2,0.1-0.3,0.1c-0.6,0-1.2,0-1.8,0c-0.2,0-0.3,0.1-0.3,0.3c0,0.5,0,0.9,0,1.4
			c0,0.2,0.1,0.2,0.3,0.2c0.8,0,1.5,0,2.3,0c0.4,0,0.5,0.1,0.5,0.5c0,0.3-0.1,0.4-0.4,0.4c-1.1,0-2.2,0-3.4,0
			c-0.3,0-0.4-0.1-0.4-0.4C200.3,62.2,200.3,61.3,200.3,60.3z"/>
		<path class="st3" d="M145.6,59.6c0,0.6,0,1.1,0,1.7c0,0.2,0,0.5,0,0.7c-0.2,1.4-1.7,2.2-3,1.5c-0.5-0.3-0.8-0.8-0.9-1.3
			c-0.1-0.2-0.1-0.5-0.1-0.7c0-1.3,0-2.5,0-3.8c0-0.4,0.1-0.5,0.5-0.5c0.5,0,0.6,0.1,0.6,0.5c0,1.1,0,2.2,0,3.3c0,0.3,0,0.6,0.1,0.9
			c0.1,0.5,0.4,0.8,0.9,0.8c0.5,0,0.9-0.2,1-0.8c0.1-0.3,0.1-0.6,0.1-0.9c0-1.1,0-2.2,0-3.3c0-0.5,0.1-0.5,0.5-0.5
			c0.4,0,0.5,0,0.5,0.4C145.6,58.2,145.6,58.9,145.6,59.6L145.6,59.6z"/>
		<path class="st3" d="M115.3,60.3c0-0.9,0-1.9,0-2.8c0-0.2,0.1-0.3,0.3-0.3c1.2,0,2.3,0,3.5,0c0.3,0,0.4,0.1,0.4,0.5
			c0,0.3-0.1,0.4-0.4,0.4c-0.7,0-1.5,0-2.2,0c-0.4,0-0.4,0.1-0.5,0.4c0,0.3,0,0.6,0,0.9c0,0.3,0.1,0.4,0.4,0.4c0.5,0,1,0,1.5,0
			c0.5,0,0.5,0.1,0.5,0.6c0,0.3-0.1,0.4-0.3,0.4c-0.5,0-1.1,0-1.6,0c-0.4,0-0.5,0-0.5,0.5c0,1.6-0.3,1.4,1.4,1.4c0.5,0,1,0,1.5,0
			c0.2,0,0.3,0.2,0.3,0.4c0,0.2,0,0.4-0.3,0.5c-0.2,0-0.4,0-0.6,0c-0.9,0-1.9,0-2.8,0c-0.4,0-0.4-0.1-0.4-0.4
			C115.3,62.2,115.3,61.2,115.3,60.3L115.3,60.3z"/>
		<path class="st3" d="M215.5,57.1c0.7,0,1.3,0,2,0c0.2,0,0.3,0.1,0.3,0.3c0,0.6,0,1.2,0,1.8c0,0.3-0.2,0.3-0.4,0.3
			c-0.2,0-0.4,0-0.5-0.3c0-0.2,0-0.5,0-0.7c0-0.3-0.2-0.5-0.6-0.4c-0.1,0-0.2,0.1-0.2,0.2c0,0.1,0,0.2,0,0.3c0,1.2,0,2.4,0,3.6
			c0,0.5,0,0.5,0.6,0.5c0.1,0,0.2,0,0.3,0c0.2,0.1,0.2,0.4,0.2,0.6c0,0.2-0.1,0.3-0.2,0.3c0,0-0.1,0-0.1,0c-0.8,0-1.7,0-2.5,0
			c-0.2,0-0.3-0.1-0.2-0.3c0-0.2,0-0.4,0.1-0.5c0.1-0.2,0.3-0.1,0.5-0.1c0.4-0.1,0.5-0.1,0.5-0.4c0-1.3,0-2.5,0-3.8
			c0-0.2-0.1-0.3-0.3-0.4c-0.3-0.1-0.5,0-0.6,0.4c0,0.2,0,0.4,0,0.5c0,0.4-0.4,0.6-0.8,0.5c-0.1,0-0.1-0.1-0.1-0.1
			c0-0.1-0.1-0.3,0-0.4c0-0.6-0.1-1.1,0.1-1.7c0.5-0.3,1.1-0.1,1.6-0.1C215.1,57.1,215.3,57.1,215.5,57.1L215.5,57.1z"/>
		<path class="st3" d="M231,63.2c-0.6-1.9-1.2-3.8-1.7-5.7c-0.1-0.2-0.2-0.4-0.5-0.4c-0.1,0-0.2,0-0.3,0c-0.5,0-0.5,0-0.7,0.6
			c-0.6,1.8-1.1,3.6-1.7,5.4c0,0.1-0.1,0.3,0,0.4c0.1,0,0.2,0.1,0.4,0.1c0.5,0,0.6,0,0.7-0.5c0.1-0.3,0.2-0.6,0.3-1h1
			c1.1,0,1.1,0,1.4,1c0.1,0.4,0.2,0.5,0.7,0.5c0,0,0.1,0,0.1,0C231,63.5,231.1,63.4,231,63.2z M227.8,61c0.2-0.8,0.3-1.6,0.8-2.4
			c0.2,0.5,0.3,0.9,0.4,1.3C229.4,61.2,229.4,61.3,227.8,61z"/>
		<path class="st3" d="M100.3,63.3c0-0.2-0.1-0.3-0.1-0.5c-0.5-1.6-1-3.2-1.5-4.8c0-0.1,0-0.1-0.1-0.2c-0.2-0.7-0.2-0.7-1-0.7
			c-0.4,0-0.4,0-0.6,0.5c-0.6,1.9-1.2,3.7-1.7,5.6c0,0.1,0,0.2,0,0.3c0.2,0,0.3,0.1,0.4,0.1c0.5,0,0.6,0,0.7-0.5
			c0.1-0.3,0.2-0.6,0.3-1c0.7,0,1.2,0,1.7,0c0.2,0,0.4,0.1,0.5,0.3c0.1,0.3,0.2,0.6,0.3,0.9c0,0.2,0.2,0.2,0.3,0.3
			c0.2,0,0.3,0,0.5,0C100.2,63.5,100.3,63.4,100.3,63.3z M98.3,61.1c-0.3,0-0.7,0-1,0c-0.2,0-0.2-0.2-0.2-0.3
			c0.2-0.7,0.4-1.4,0.7-2.3c0.3,0.9,0.5,1.6,0.7,2.3C98.6,60.9,98.5,61.1,98.3,61.1z"/>
		<path class="st3" d="M195.3,60.3c0-0.6,0-1.3,0-1.9c0-0.3-0.1-0.4-0.4-0.4c-0.4,0-0.4,0.1-0.5,0.4c0,0.2,0,0.4,0,0.5
			c0,0.5-0.1,0.5-0.6,0.5c-0.2,0-0.3-0.1-0.3-0.3c0-0.5,0-1.1,0-1.6c0-0.5,0-0.5,0.5-0.5c1.2,0,2.4,0,3.7,0c0.4,0,0.4,0.1,0.5,0.4
			c0,0.5,0,1.1,0,1.6c0,0.3-0.1,0.4-0.5,0.4c-0.2,0-0.4,0-0.4-0.3c0-0.2,0-0.5,0-0.7c0-0.3-0.1-0.4-0.5-0.4c-0.2,0-0.3,0.1-0.3,0.3
			c0,1.3,0,2.6,0,3.9c0,0.3,0.1,0.4,0.4,0.4c0.1,0,0.1,0,0.2,0c0.4,0,0.5,0.1,0.5,0.5c0,0.2-0.1,0.4-0.3,0.4c-0.8,0-1.6,0-2.4,0
			c-0.3,0-0.4-0.1-0.4-0.4c0-0.4,0.1-0.5,0.4-0.5c0.1,0,0.2,0,0.3,0c0.2,0,0.3-0.1,0.3-0.3c0-0.5,0-1.1,0-1.6
			C195.3,60.6,195.3,60.4,195.3,60.3L195.3,60.3z"/>
		<path class="st3" d="M79.6,59.7c-0.2-0.7-0.5-1.5-0.7-2.2c0-0.1,0-0.3-0.2-0.3c-0.3-0.1-0.6-0.1-0.9,0c-0.3,0.1-0.3,0.4-0.4,0.6
			c-0.5,1.5-0.9,2.9-1.4,4.4c-0.1,0.4-0.3,0.9-0.4,1.3c0.9,0.2,1,0.2,1.2-0.4c0.4-1.2,0.1-1,1.4-1c0.3,0,0.6,0,0.9,0
			c0.3,0.4,0.3,0.8,0.5,1.2c0.1,0.2,0.2,0.3,0.4,0.3c0.2,0,0.5,0.1,0.7-0.2C80.4,62.2,80,60.9,79.6,59.7z M78.7,61.1
			c-0.4,0-0.8,0-1.3,0c0.3-0.9,0.5-1.6,0.7-2.3c0.2,0,0.3,0.2,0.3,0.3c0.2,0.6,0.3,1.1,0.5,1.7C78.9,61,78.8,61.1,78.7,61.1z"/>
		<path class="st3" d="M164.6,59.7c-0.2-0.7-0.5-1.5-0.7-2.2c0-0.1-0.1-0.3-0.2-0.3c-0.3-0.1-0.6-0.1-0.9,0
			c-0.3,0.1-0.3,0.4-0.4,0.6c-0.5,1.5-1,3-1.4,4.5c-0.1,0.4-0.3,0.8-0.3,1.2c0.1,0,0.1,0.1,0.2,0.1c0.1,0,0.2,0,0.3,0
			c0.4,0,0.4,0,0.6-0.4c0.1-0.4,0.1-0.9,0.4-1c0.3-0.1,0.8-0.1,1.1-0.1c0.3,0,0.6,0,0.8,0c0.3,0.4,0.3,0.8,0.4,1.1
			c0.1,0.3,0.2,0.4,0.5,0.4c0.2,0,0.3,0,0.7,0C165.3,62.2,165,60.9,164.6,59.7z M163.6,61.1c-1.5,0-1.3,0.1-0.9-1.2
			c0.1-0.4,0.2-0.8,0.4-1.4c0.4,1,0.6,1.7,0.7,2.5C163.8,61,163.7,61.1,163.6,61.1z"/>
		<path class="st3" d="M67.3,58.4c0,0.2,0,0.5,0,0.7c0,0.2,0,0.4-0.2,0.4c-0.4,0.1-0.6,0-0.7-0.2c-0.1-0.2-0.1-0.4-0.2-0.6
			C66,58.3,65.7,58,65.2,58c-0.5,0-0.9,0.2-1.1,0.7c-0.5,1.1-0.5,2.2,0,3.3c0.4,0.9,1.6,1,2.2,0.2c0.1-0.1,0.2-0.3,0.3-0.5
			c0.2-0.4,0.5-0.4,0.8-0.2c0.1,0.1,0.1,0.1,0.1,0.3c-0.2,1-1.1,1.8-2,1.9c-1,0.1-1.9-0.4-2.4-1.4c-0.6-1.3-0.6-2.6,0-4
			c0.1-0.3,0.3-0.5,0.5-0.8c0.6-0.6,1.6-0.8,2.3-0.3c0.3,0.2,0.4,0.3,0.6-0.1c0.1-0.2,0.4-0.1,0.6-0.1c0.1,0,0.2,0.1,0.2,0.2
			C67.3,57.7,67.3,58,67.3,58.4L67.3,58.4z"/>
		<path class="st3" d="M183.4,57.1c-0.1,0-0.2,0-0.3,0c-0.7,0-1.3,0-2,0c-0.3,0-0.4,0.1-0.4,0.4c0,0.9,0,1.9,0,2.8l0,0
			c0,0.9,0,1.9,0,2.8c0,0.3,0.1,0.4,0.5,0.4c0,0,0.1,0,0.1,0c0.4,0,0.5-0.1,0.5-0.5c0-0.6,0-1.2,0-1.8c0-0.2,0.1-0.3,0.3-0.3
			c0.4,0,0.7,0,1,0c0.6-0.1,1.2-0.2,1.6-0.7C185.6,59,184.9,57.4,183.4,57.1z M183.4,59.9c-0.3,0.1-0.6,0.1-0.9,0.1c0,0,0,0,0,0
			c-0.1,0-0.3,0-0.4,0c-0.2,0-0.3-0.1-0.3-0.3c0-0.2,0-0.4,0-0.6c0.1-0.3-0.2-0.9,0.2-1c0.6-0.1,1.3-0.2,1.7,0.3
			C184.2,58.9,184,59.7,183.4,59.9z"/>
		<path class="st3" d="M130.6,59.7c0.2-0.4,0.4-0.8,0.5-1.2c0.1-0.2,0.2-0.4-0.1-0.6c-0.2-0.1-0.1-0.3-0.1-0.5
			c0-0.2,0.1-0.3,0.3-0.3c0.5,0,0.9,0,1.4,0c0.2,0,0.4,0,0.4,0.3c0,0.2,0.1,0.5-0.2,0.6c-0.3,0.1-0.4,0.3-0.5,0.5
			c-0.3,0.5-0.5,1.1-0.8,1.6c-0.3,0.6-0.4,1.2-0.4,1.8c0,0.2,0,0.4,0.1,0.6c0.1,0.2,0.4,0.1,0.6,0.1c0.3,0.1,0.5,0.5,0.3,0.8
			c-0.1,0.1-0.2,0.1-0.3,0.1c-0.8,0-1.7,0-2.5,0c-0.2,0-0.3-0.1-0.3-0.3c0-0.4,0-0.5,0.3-0.6c0.1,0,0.3,0,0.4,0
			c0.2,0,0.3-0.1,0.3-0.3c0-0.7,0-1.5-0.4-2.1c-0.3-0.5-0.5-1.1-0.8-1.6c-0.1-0.3-0.2-0.5-0.5-0.6c-0.2-0.1-0.3-0.6-0.1-0.7
			c0.1-0.1,0.2-0.1,0.3-0.1c0.5,0,0.9,0,1.4,0c0.3,0,0.3,0.1,0.3,0.4c0,0.1,0,0.2,0,0.2c-0.1,0.2-0.3,0.4-0.3,0.5
			c0.1,0.3,0.2,0.7,0.4,1C130.3,59.4,130.3,59.6,130.6,59.7z"/>
		<path class="st3" d="M169.7,63.5c-0.4,0-0.8,0-1.2,0c-0.3,0-0.4-0.1-0.4-0.5c0-0.4,0-0.4,0.4-0.4c0.1,0,0.2,0,0.3,0
			c0.2,0,0.3-0.1,0.3-0.3c0-0.2,0-0.4,0-0.6c0-1,0-2,0-3c0-0.6,0-0.6-0.6-0.6c-0.4-0.1-0.6-0.3-0.4-0.7c0-0.1,0.1-0.2,0.2-0.2
			c0.9,0,1.7,0,2.6,0c0.2,0,0.3,0.2,0.2,0.4c0,0.2,0,0.4-0.3,0.5c-0.2,0.1-0.5-0.1-0.7,0.1c-0.2,0.2-0.1,0.5-0.1,0.8
			c0,1.1,0,2.2,0,3.2c0,0.3,0.1,0.4,0.4,0.4c0.1,0,0.2,0,0.3,0c0.3,0,0.3,0.2,0.3,0.5c0,0.2-0.1,0.4-0.3,0.4
			C170.6,63.5,170.2,63.5,169.7,63.5C169.7,63.5,169.7,63.5,169.7,63.5z"/>
		<path class="st3" d="M222,63.5c-0.4,0-0.8,0-1.2,0c-0.3,0-0.4-0.1-0.4-0.4c0-0.4,0-0.5,0.4-0.5c0.1,0,0.2,0,0.3,0
			c0.2,0,0.2-0.1,0.2-0.3c0-0.1,0-0.2,0-0.3c0-1.1,0-2.2,0-3.3c0-0.6,0-0.6-0.6-0.6c0,0-0.1,0-0.1,0c-0.3,0-0.4-0.1-0.4-0.5
			c0-0.2,0.1-0.4,0.3-0.4c0.8,0,1.7,0,2.5,0c0.2,0,0.3,0.2,0.3,0.4c0,0.2,0.1,0.4-0.2,0.5c0,0-0.1,0-0.1,0c-0.2,0-0.4,0-0.6,0.1
			c-0.2,0.2-0.1,0.5-0.1,0.7c0,1.1,0,2.2,0,3.3c0,0.4,0,0.4,0.5,0.5c0.1,0,0.1,0,0.2,0c0.3,0,0.3,0.1,0.4,0.5c0,0.3-0.1,0.4-0.4,0.4
			C222.9,63.5,222.4,63.5,222,63.5L222,63.5z"/>
		<path class="st3" d="M90.2,59.9c0,0.7,0,1.3,0,2c0,0.7,0,0.7,0.7,0.7c0.7,0,1.3,0,2,0c0.4,0,0.6,0.4,0.4,0.7
			c0,0.1-0.1,0.2-0.2,0.2c-0.2,0-0.4,0-0.6,0c-0.9,0-1.9,0-2.8,0c-0.4,0-0.5-0.1-0.5-0.5c0-1.8,0-3.6,0-5.4c0-0.4,0.1-0.5,0.5-0.5
			c0.5,0,0.6,0,0.6,0.5C90.2,58.4,90.2,59.1,90.2,59.9z"/>
		<path class="st3" d="M82.6,60.3c0-0.9,0-1.8,0-2.7c0-0.4,0.1-0.4,0.4-0.4c0.1,0,0.3,0,0.4,0c0.1,0,0.2,0.1,0.2,0.2
			c0,0.2,0,0.3,0,0.5c0,1.2,0,2.4,0,3.7c0,1.2-0.1,1.1,1.1,1.1c0.5,0,1.1,0,1.6,0c0.1,0,0.3,0,0.4,0.2c0.1,0.2,0.1,0.4,0,0.6
			c0,0.1-0.2,0.1-0.3,0.1c-1.2,0-2.4,0-3.5,0c-0.2,0-0.3-0.2-0.3-0.3C82.6,62.2,82.6,61.2,82.6,60.3L82.6,60.3z"/>
		<path class="st3" d="M233,60.3c0-0.9,0-1.9,0-2.8c0-0.3,0.1-0.4,0.5-0.4c0.5,0,0.6,0.1,0.6,0.6c0,0.8,0,1.5,0,2.3
			c0,0.6,0,1.3,0,1.9c0,0.7,0,0.7,0.7,0.7c0.4,0,0.8,0,1.3,0c0.2,0,0.4,0,0.6,0c0.5,0,0.5,0.1,0.5,0.6c0,0.2-0.1,0.4-0.3,0.4
			c-1.2,0-2.4,0-3.6,0c-0.2,0-0.3-0.2-0.3-0.4C233,62.2,233,61.3,233,60.3L233,60.3z"/>
	</g>
</g>
</svg>
