<?xml version="1.0" encoding="utf-8"?>
<!-- Generator: Adobe Illustrator 23.0.5, SVG Export Plug-In . SVG Version: 6.00 Build 0)  -->
<svg version="1.1" id="Layer_1" xmlns="http://www.w3.org/2000/svg" xmlns:xlink="http://www.w3.org/1999/xlink" x="0px" y="0px"
	 viewBox="0 0 1852.3 858.8" style="enable-background:new 0 0 1852.3 858.8;" xml:space="preserve">
<style type="text/css">
	.st0{display:none;}
	.st1{display:inline;}
	.st2{fill:#F98828;}
	.st3{fill:#FFFFFF;}
</style>
<g class="st0">
	<g class="st1">
		<path d="M99,191.2c8.4-0.4,16.4-0.7,24.5-1.1c0-0.3,0-0.7,0.1-1c-0.8-0.1-1.6-0.4-2.4-0.4c-5.7-0.1-11.4-0.1-17.1-0.4
			c-5.9-0.3-10.6-4.1-12.3-9.7c-0.1-0.4-0.3-0.9-0.4-1.4c-0.7-14.1-9.6-23.6-18.6-33c-8.3-8.6-15.1-18.2-18.4-29.8
			c-5.7-20.2-3.5-39.6,7.7-57.5C72.1,41,86.4,30,104.6,25.1c22.9-6.2,44.1-1.4,63.1,12.8c12.2,9.1,21.4,20.7,25.6,35.4
			c6.6,23.1,2.9,44.3-13.3,62.7c-2,2.2-3,5.2-4.7,7.6c-2.5,3.6-5.1,7.2-7.8,10.6c-4.1,5-6,10.7-6.5,17c-0.1,1.5-0.1,3-0.3,4.5
			c-0.5,4-2.2,7-6.3,8.5c-1.1,0.4-2.1,1.2-4,2.3c2.5,0.6,4,1,5.9,1.5c-1.8,3.3-4.9,3.6-7.5,4.1c-14.5,2.9-29.2,2.8-43.9,2.8
			C101.1,194.9,100.2,194.1,99,191.2z M109.2,123.5c-0.2,0.1-0.4,0.2-0.6,0.4c-2-2.9-4.1-5.8-5.9-8.8c-1.6-2.8-3.5-3.1-6.4-2.1
			c-3.6,1.3-7.3,2.4-11.1,2.9c-1.8,0.2-3.8-1.1-5.8-1.8c0.9-1.8,1.4-4,2.9-5.2c8-6.3,17.2-9.9,27.4-10c6.2-0.1,12.4,0.4,18.5,1
			c10.1,0.9,20.1,2.3,29.6,6.5c5,2.2,10.3,3.1,15-1.3c0.1-0.1,0.4,0,1.1,0.1c-0.4,7.7-6.5,9.2-12.4,11.1c4.7,2.7,8.2-0.8,12.1-2
			c-1.9,5-6.9,6.5-12.7,4.4c-4.6-1.7-9.3-3-13.9-4.6c-2.5-0.8-4.6-0.4-5.5,2.2c-2.8,7.7-6.7,15.4-7.9,23.4
			c-1.8,12.5-1.8,25.3-2.4,38c-0.2,3.4,0.3,6.9,0.4,10.6c1.7-0.1,2.8-0.2,3.6-0.2c-0.5-1.2-1.4-2.1-1.3-3c0.3-6.5,0.4-13,1.1-19.5
			c1-10.1,1-20.5,3.9-30c3.8-12.8,6.6-12,16.7-10.5c12.4,1.9,21.6-3.1,23.4-16.2c0.1-0.7,0.4-1.4,0.8-1.9c4.7-5.4,3.3-11.3,1.1-17.1
			c-0.3-0.9-1.6-1.5-3.2-2.8c-0.1,6,2.9,10.8,0.6,16.4c-0.9-1.4-1.3-2.2-1.8-3c-2.7-3.9-4.9-4.3-7.5-0.6c-2,2.9-4.9,2.2-7-0.4
			c1.8-1.7,4.1-3,5-4.9c1-2.2,0.6-5,0.8-7.5c6.3-1.5,7.8-3.4,7.6-9.8c-0.2-6-3.4-12.3-7-12.9c0,2,0,4,0,6c-1.5-1.6-2.2-3.4-3.4-4.9
			c-1.3-1.6-2.8-3.1-4.4-4.4c-1-0.8-2.5-1-3.7-1.5c-0.3,1.3-0.7,2.5-1,3.8c0,0.1-0.3,0.2-0.6,0.3c-1.4-4.3-4.6-6.8-8.5-8.8
			c-2.5-1.3-4.9-2.7-7.5-3.9c-1.4-0.6-2.9-0.9-4.3-1.4c-0.1,1.5-0.2,3-0.3,4.6c0,0.1-0.2,0.2-0.5,0.4c-0.5-1-1-1.9-1.4-2.9
			c-2.6-5.9-6.9-8.5-13.4-8.8c-11.8-0.4-24,10.5-27.8,18.2c-5-2.4-8.1-1.7-12,2.5c-2.6,2.8-3.5,6.2-3.7,9.9
			c-0.1,1.2-0.4,2.6-1.2,3.4c-3.9,3.7-5.3,8-3.2,12.8c0.8,1.7,3,2.7,4.7,4c0.6,0.4,1.6,0.6,1.8,1.1c1.2,3,3.3,4.5,6.9,4.1
			c-3.1,3.7-5.9,7-9,10.7c-0.1-1.6-0.2-2.8-0.2-4.1c0-2.9-1.4-4.7-4.3-4.9c-2.8-0.1-4.6,1.7-4.5,4.3c0.1,3.4,0.3,7.2,1.9,10
			c4.7,8.6,13.9,12.3,23.3,9.5c5.6-1.6,10.3-2.5,14.6,2.8c2.1,2.6,3.8,4.7,3.8,8.2c0,3.8,0.1,7.9,1.4,11.3c3.5,9.4,6,18.9,5.3,29
			c-0.1,1.6,0.4,3.2,0.6,4.9c0.4,0,0.8,0,1.1,0c0.2-1,0.6-2,0.7-3.1c0.6-8.1-0.1-16.1-2-24c-2.3-9.7-4.7-19.4-7-29.1
			c-0.1-0.3,0-0.7-0.1-1c-0.8-3.7-1.4-7.5-2.4-11.1c-0.5-1.8-1.4-4.3-4-3c-0.6,0.3-0.3,3.3,0.3,4.8
			C105.7,117.5,107.6,120.5,109.2,123.5z M132.5,111.9c-1.2-0.7-2.5-1.6-3.9-2.1c-2.6-0.8-5.3-1.4-8-2c-1.2-0.2-2.9-0.8-3.5-0.2
			c-0.7,0.6-0.6,2.3-0.4,3.5c0.4,3.8,1.4,7.6,1.4,11.4c0,13,0.5,25.8,3,38.6c1.4,7.1,1.7,14.3,2.7,21.5c0.2,1.1,1.5,2,2.3,2.9
			c1-0.8,2.1-1.6,2.8-2.6c0.5-0.8,0.6-2,0.6-3c-0.2-7.8,0.2-15.7-1-23.3c-2-12.1-1.4-23.9,1.7-35.7
			C130.9,118.2,131.5,115.5,132.5,111.9z M129.3,146.5c0.4,0,0.7,0.1,1.1,0.1c0.2-1.9,0.6-3.8,0.7-5.7c0.2-6.7,1.9-13.1,4.6-19.2
			c1.1-2.4,2.4-4.8,3.2-7.3c0.3-0.8-0.3-2-0.5-3c-0.9,0.4-2,0.6-2.5,1.3c-1,1.3-1.6,2.8-2.3,4.3
			C129.3,126.5,128.2,136.4,129.3,146.5z M115.5,133.2c0.4,0,0.7-0.1,1.1-0.1c0.4-7.7,0.1-15.4-2.9-22.7c-0.3-0.7-0.8-1.5-1.4-2
			c-0.7-0.5-1.8-1.1-2.4-0.8c-0.5,0.2-0.9,1.5-0.9,2.3c0,0.9,0.5,1.8,0.8,2.7c1.5,4.6,3.2,9.2,4.5,13.9
			C115.1,128.7,115.2,131,115.5,133.2z M150.8,50.1c0.4-1.6,0.6-2.2,0.6-2.7c-0.3-3.9-6.7-10.4-10.6-10.7c-0.5,0-1.5,0.3-1.5,0.4
			c0.1,0.9,0.1,1.9,0.6,2.5c2.2,2.4,4.4,4.8,6.8,7.1C147.8,47.7,149.1,48.6,150.8,50.1z"/>
		<path d="M148.5,268.7c-0.4,2.1-0.8,4.2-1.2,6.2c0.3,0.2,0.6,0.3,0.9,0.5c0.8-1.1,1.7-2.2,2.2-3.3c1.2-2.6,2.3-5.4,3.4-8.1
			c0.8-1.9,2.1-2.7,4.2-1.8c11.4,4.7,22.9,9.2,34.2,14.1c2.8,1.2,5,3.7,7.4,5.6c0.3-0.2,0.7-0.4,1-0.6c-0.6-1.1-0.9-2.6-1.8-3.2
			c-5-3.3-10-6.9-15.4-9.5c-6.8-3.3-14-5.7-21-8.6c-3.8-1.6-4.1-2.3-2.4-6.1c1.4-3.2,2.8-6.4,4.1-9.6c1.2-2.8,3.2-4.1,6.1-3.1
			c10.2,3.5,20.6,6.9,30.5,11c4,1.7,6.5,5.6,8.5,10c3.9,8.3,1.6,14.8-2.5,22c-13.7,24.1-27.1,48.5-40.5,72.7c-1,1.7-2,3.5-2.4,5.4
			c-0.9,4.8-3.8,6.4-8.4,6.2c-7.5-0.3-14.9-0.4-22.4-0.4c-12.8,0-25.6,0.3-38.4,0.4c-0.9,0-1.8,0-3.4,0c0.3-3.2,0.6-5.9,0.9-8.5
			c5.1,1.3,9.8,3.1,14.6,3.7c4.7,0.6,9.6,0.1,14.3,0.1c0-0.4,0.1-0.8,0.2-1.2c-1.3-0.3-2.7-0.7-4-0.9c-6.1-1.1-12.2-1.9-18.2-3.2
			c-4.1-0.9-6.1-3.9-6.7-8.3c2.3,0.2,3.5,1,3.7,3.3c0.1,1.1,1.1,2.7,2.1,3.1c5.9,2.1,12,2.4,18.1,1.4c0.1-0.4,0.2-0.7,0.2-1.1
			c-5.8-1.2-11.6-2.3-17.4-3.5c0-0.3,0.1-0.5,0.1-0.8c2.1,0,4.1,0,6.2,0c12.7,0.2,23.9-7.7,28.1-19.7c4.1-11.8,3.1-23.4-0.9-35
			c-1-3-1-5.2,1.5-7.5c2-1.9,3.3-4.6,5.4-6.3c1.2-1,3.9-1.6,5.2-0.9c12.1,6.5,24.1,13.2,36.1,19.9c0.4,0.2,0.7,0.7,1.2,0.8
			c0.8,0.2,1.7,0.2,2.5,0.2c-0.3-0.9-0.2-2.2-0.8-2.7c-4.4-3.1-8.7-6.4-13.4-8.9c-7.8-4.2-15.8-8-23.8-11.9
			c-3.5-1.7-3.8-2.4-2.1-5.9c0.9-1.8,1.8-3.5,2.7-5.3c0.2-0.4,0.5-0.8,0.7-1.2C148.1,268.6,148.3,268.7,148.5,268.7z M163.6,253.5
			c0.4,0.2,0.8,0.4,1.2,0.6c0.7-0.9,1.5-1.9,2.2-2.8c1-1.4,2.2-2.7,3.1-4.1c0.6-1,1.3-2.1,1.4-3.2c0.1-0.5-1.4-1.6-1.9-1.5
			c-1.2,0.3-3,0.9-3.3,1.8C165.1,247.3,164.5,250.4,163.6,253.5z"/>
		<path d="M123.9,338.6c1.8-2.3,3.6-4.6,5.8-7.4C125.8,345,111,352.8,98.6,348c-1.6-0.6-2.7-2.7-3.9-4.3c-0.7-1-1-2.4-1.7-3.3
			c-8.5-10.8-17.2-21.5-25.5-32.4c-7.5-9.8-14.6-19.9-21.8-29.9c-5.1-7.1-4.5-12.1,2.1-18c5.4-4.9,14.4-9.9,19.5-10.8
			c0.2,1.2,0.5,2.4,0.8,3.9c2.8-1.1,5.4-2,7.9-3c5.2-2,9.8-1.2,13.8,2.9c11.1,11.7,22.7,23.1,33.2,35.4c6.7,7.9,9.2,17.9,8.4,28.5
			c-0.5,6.7-3.7,12.2-7.2,17.6c-0.6,1-1,2.1-1.5,3.2C123,338.1,123.4,338.3,123.9,338.6z M71.1,264.5c-4.2,1.6-5.1,3.6-1.8,7.5
			c7.8,9.2,16.1,18,24,27.2c3.4,3.9,8.3,6.3,10.7,11.2c0.3,0.7,2.2,0.6,3.3,0.9c0.3-1.2,1.1-2.7,0.8-3.7c-0.6-1.4-2-2.5-3-3.7
			c-5-6.1-10-12.2-15.1-18.2c-0.9-1.1-2.7-1.3-3.6-2.4c-3-3.6-5.6-7.6-8.5-11.2C75.6,269.5,73.4,267.1,71.1,264.5z M113.4,313.7
			c-1.3-1.1-2.3-2.5-2.7-2.4c-1,0.4-2,1.4-2.3,2.4c-0.2,0.6,1.2,2.2,1.7,2.2C111.1,315.7,112,314.8,113.4,313.7z"/>
		<path d="M208.9,257.4c-3-6.3-8.9-8.9-14.9-11.1c-8.2-3.1-16.5-5.6-24.8-8.5c-1.5-0.5-2.8-1.2-4.3-1.8c0.1-0.3,0.2-0.7,0.3-1
			c4.3,0.7,8.6,1.3,12.8,2c0.1-0.4,0.2-0.8,0.3-1.2c-0.7-0.4-1.3-1-2-1.2c-2.1-0.7-4.3-1.2-6.4-1.8c-6.1-1.7-6.7-2.5-5.7-8.6
			c0.4-2.8,0.8-5.6,1.7-8.2c0.4-1.2,2.1-3,3.1-2.9c3.2,0.2,6.3,1.2,9.5,1.8c0.8,0.2,1.6,0.1,2.4,0.1c0-0.9,0.2-1.9-0.2-2.6
			c-0.4-0.7-1.4-1.2-2.2-1.5c-1.1-0.4-2.3-0.5-3.4-0.6c-9.6-1.2-8.7-1.3-6.1-10.7c0.2-0.9,2-2,3-1.9c3.1,0.2,6.2,0.9,9.3,1.3
			c0.8,0.1,1.6-0.3,2.5-0.5c-0.6-0.7-1.1-1.7-1.9-1.9c-2.4-0.7-5-1.2-7.5-1.8c-2.6-0.5-3.9-1.9-3.5-4.7c0.5-4,0.9-8,1.4-12.8
			c3.8,1.4,6.9,2.7,10.2,3.8c0.8,0.3,1.9,0.2,2.7,0c1.1-0.3,2-1.2,3.1-1.5c3.8-1,4.5-0.2,4.1,3.8c-1,10.8-2,21.6-2.8,32.4
			c-0.4,5.2,3.2,9.8,8.4,10.7c4.2,0.8,8.5,1.1,12.8,2c1.4,0.3,3.2,1.2,4,2.3C220.2,238.5,217.3,251.8,208.9,257.4z"/>
		<path d="M202.5,200.1c-1-0.6-2-1.3-3-1.9c-3.1-1.8-5.1-4.1-4.4-7.9c1.3-6.6,2.6-13.2,4-19.8c0.3-1.5,1.4-2.9,2.4-4.2
			c2-2.5,4.1-4.9,7.9-4.1c4,0.8,6.8,3.1,8,7c0.6,2,0.8,4.1,0.8,6.2c-0.7,14.7-1.5,29.3-2.3,44c-0.1,1.5-0.2,3.2-0.8,4.4
			c-0.5,1-2.1,2.3-3,2.1c-5.5-1-11-2.2-16.3-3.7c-3.2-0.9-4-3.9-3.8-6.8c0.2-4.2,0.9-8.3,1.4-12.5c0.4-3.6,1-4,4.5-2.7
			c1.3,0.5,2.8,0.7,4.2,1C202.2,201,202.4,200.5,202.5,200.1z"/>
		<path d="M30.3,169.5c8,0.4,13,4.2,16.2,9.8c2.5,4.3,4.4,9,5.7,13.8c1.8,6.7,2.8,13.7,4.2,20.5c0.4,1.9,0.4,3.6-1.7,4.4
			c-6.2,2.3-12.4,4.7-18.6,6.8c-2.9,1-4.8-0.2-5.4-3.6c-2.2-13-4.5-26-6.7-38.9c-0.7-4.3-0.9-8.6,3.1-11.6
			C28.3,170,29.9,169.7,30.3,169.5z M31.7,176c2.8,6.3,6.6,13.1,8.9,20.3c2.2,7.2,3,14.8,4.3,21.9C49.6,210.7,42.1,183.5,31.7,176z"
			/>
		<path d="M174.4,151.8c0.3,1,0.5,2.1,0.8,3.1c0.2,0,0.4,0,0.7,0c0.2-0.8,0.5-1.6,0.7-2.4c0.9-3.2,1.6-6.5,2.8-9.6
			c1.7-4.5,4.6-6,9.3-5.3c3.4,0.5,5.8,2.7,5.8,7.2c0,9.6-0.6,19.3-1.2,28.9c-0.1,1.1-1.6,2.8-2.6,2.9c-5.7,0.7-11.5,0.6-16.2-3.5
			c-1.2-1.1-2.6-2.8-2.6-4.2c0.2-5.7,0.9-11.4,1.5-17.2C173.8,151.7,174.1,151.8,174.4,151.8z"/>
		<path d="M42.8,253.1c-2.7-6.4-5.4-12.9-8.2-19.3c-1.3-3-0.9-4.9,2.7-5.6c1.9-0.4,3.8-1.3,5.7-1.6c1.7-0.3,3.5-0.1,5.4-0.1
			c0.6-1.7,6.8-6.1,9-5.7c0.7,0.1,1.6,1,1.9,1.7c2.6,6.5,5.2,13,7.6,19.5c0.3,0.8-0.6,2.5-1.4,3c-5.8,3.7-11.7,7.1-17.6,10.7
			c-2.5,1.5-3.6-0.2-4.5-2.1C43.2,253.5,43,253.3,42.8,253.1z"/>
		<path d="M109.6,203.6c-2.3-0.7-4.6-1.2-6.8-2.1c-1-0.4-1.6-1.7-2.4-2.5c1-0.4,2-1,3-1c6.9-0.3,13.8,0,20.6-0.6
			c9.7-1,19.4-2.6,29-3.9c1.1-0.1,2.2-0.1,4-0.2c-2,3.3-4.4,4.5-7.2,4.9c-9.1,1.4-18.2,2.6-27.3,4c-1.3,0.2-2.6,0.6-3.9,0.9
			c0,0.3,0,0.7,0,1c1.1,0.2,2.2,0.6,3.3,0.5c9.9-1.3,19.8-2.8,29.7-4.2c1.4-0.2,2.9-0.3,4.3-0.5c0.2,0.4,0.4,0.8,0.6,1.1
			c-1.3,0.9-2.4,2.3-3.8,2.6c-7.6,1.6-15.3,3.2-23,4.1c-7.6,1-15.3,1.2-23,1.7c-1,0.1-2.2,0.1-3.1-0.2c-1-0.4-1.9-1.3-2.8-2
			c1-0.7,1.8-1.7,2.9-1.9c2-0.4,4-0.4,6-0.6C109.7,204.2,109.7,203.9,109.6,203.6z"/>
		<path d="M101.9,240.1c1.8-0.3,3.1-0.6,4.5-0.8c14.4-1.4,28.8-2.8,43.1-4.2c1.4-0.1,2.7-0.7,4.1-0.8c1.2-0.1,2.4,0,3.6,0.1
			c-0.4,1.2-0.5,2.7-1.3,3.6c-3.1,3.8-6.9,6.6-12.1,6.9c-9.8,0.6-19.5,1.6-29.3,2.1C109.5,247.3,105.7,245,101.9,240.1z"/>
		<path d="M109.7,227.4c-2.3,0-4.7,0.2-7-0.1c-0.9-0.1-2.4-1.3-2.4-2c0-1,1-2.3,1.9-2.8c1.5-0.8,3.3-1.1,5-1.3
			c13.5-1.7,27-3.3,40.5-5c1.5-0.2,3-0.5,4.5-0.6c3-0.3,3.6,2.1,4.2,4.2c0.7,2.5-1.2,3.1-3,3.3c-10.2,1.3-20.3,2.5-30.5,3.6
			c-4.4,0.5-8.8,0.6-13.2,0.9C109.7,227.5,109.7,227.5,109.7,227.4z"/>
		<path d="M104.9,218.8c-0.7,0-1.5,0.2-2.1,0c-1.1-0.5-2.2-1.3-3.2-2c0.9-1.2,1.7-3.1,2.7-3.3c4.7-0.9,9.5-1.1,14.2-1.8
			c12-1.7,24-3.4,35.9-5.1c0.3,0,0.7-0.2,1-0.1c1.5,0.5,3,1,4.4,1.6c-1.1,1.3-2,3.5-3.3,3.7c-9.3,1.9-18.7,3.6-28.2,5
			c-7.1,1.1-14.3,1.6-21.5,2.4C104.9,219,104.9,218.9,104.9,218.8z"/>
		<path d="M114.5,251.1c10.2-1.2,20-1.7,30-0.3c-1.8,8.5-6.5,12.3-14.7,12.5C122.6,263.5,116.9,259.1,114.5,251.1z"/>
		<path d="M108.5,236c-1.6-0.1-4.5-0.2-7.2-0.8c-1-0.2-1.8-1.6-2.7-2.4c1-0.6,2-1.5,3-1.6c11.6-0.9,23.2-1.6,34.8-2.6
			c5.5-0.4,10.9-1.3,16.3-1.8c1.1-0.1,2.4,0.9,3.5,1.4c-1,1.1-1.8,2.9-3,3.1c-5.6,1-11.3,1.8-17,2.3
			C127.6,234.6,118.6,235.2,108.5,236z"/>
		<path d="M87.4,118.7c-4.7,2.4-12.1-0.4-14.8-5.4C77.4,115,82.3,116.8,87.4,118.7z"/>
		<path d="M87.3,93c-0.2-2.5-0.4-5-0.5-7.6c0.3,0,0.6,0,0.9-0.1c0.2,2.5,0.5,5,0.7,7.5C88,92.9,87.7,93,87.3,93z"/>
	</g>
	<g class="st1">
		<path d="M398.5,199.1c0-1.7,0.1-3.4,0.1-5.1c0-21.3,0-42.5,0-63.8c0-1.4,0-2.8,0.1-4.2c0-1,0.6-1.6,1.6-1.6c0.9,0,1.8-0.1,2.6-0.1
			c7.6,0,15.1,0,22.7,0c4.2,0,4.2,0,4.2,4.5c0,0.5,0,1.1,0,1.6c0,38.5,0,77,0,115.5c0,6.7,0.6,6-5.9,6c-7.4,0-14.8-0.1-22.2,0.1
			c-2.4,0.1-3.8-0.8-5.1-2.8c-9.3-13.9-18.6-27.7-27.9-41.6c-6.4-9.5-12.7-19-19.1-28.4c-0.6-0.9-1.2-1.7-1.9-2.5
			c-1.6,0.9-0.9,2.3-0.9,3.4c0,21.8,0,43.6,0,65.4c0,7.4,0.9,6.4-6.4,6.4c-6.7,0-13.4,0-20,0c-1.1,0-2.1,0-3.2-0.1
			c-0.4-0.1-0.9-0.6-1-1c-0.2-1.2-0.2-2.4-0.2-3.7c0-39.2,0-78.4,0-117.6c0-0.5,0-1.1,0-1.6c0.1-3.4,0.1-3.5,3.5-3.5
			c8.3,0,16.5,0,24.8,0c1.8,0,2.9,0.6,3.9,2.1c4.1,6.2,8.3,12.2,12.4,18.4c11.2,16.6,22.4,33.2,33.5,49.9c1.1,1.6,2.2,3.2,3.3,4.8
			C397.9,199.2,398.2,199.1,398.5,199.1z"/>
		<path d="M476.7,176.5c0,2.2,0,4,0,5.7c0,21.6,0,43.3,0,64.9c0,5,0.1,4.7-4.5,4.7c-7.9,0-15.8,0-23.7,0c-2.2,0-2.5-0.3-2.6-2.4
			c0-1.2,0-2.5,0-3.7c0-38.5,0-77,0-115.5c0-6.7-0.7-5.9,5.8-6c6.9,0,13.7,0,20.6,0c4.9,0,4.1-0.5,6.8,3.5
			c8.9,13.3,17.9,26.5,26.8,39.8c6.6,9.8,13.1,19.5,19.7,29.3c0.6,0.9,1.2,1.7,1.9,2.6c1.6-0.8,0.9-2.2,0.9-3.3
			c0-21.8,0-43.6,0-65.4c0-7.3-0.9-6.4,6.4-6.5c7.2,0,14.4,0,21.6,0c3,0,3.1,0.2,3.2,3.4c0,0.9,0,1.8,0,2.6c0,38.5,0,77,0,115.5
			c0,6.7,0.6,6-5.8,6c-7.6,0-15.1-0.1-22.7,0c-2,0-3.3-0.6-4.3-2.3c-3.8-5.7-7.6-11.4-11.4-17.1c-11.9-17.6-23.8-35.3-35.6-52.9
			C479.1,178.6,478.7,177.4,476.7,176.5z"/>
		<path d="M689.5,145.4c0-1.7-0.3-3.5-0.4-5.2c-0.4-7.7-8.1-16-18.5-16c-25.5,0.1-51,0.2-76.5,0c-9.3-0.1-18.5,8.1-18.6,17.8
			c0,1.4,0,2.8,0,4.2c0,13.9,0,27.8,0,41.7s0,27.8,0,41.7c0,1.9,0.1,3.9,0.2,5.8c0.1,3.1,1.3,5.8,3,8.3c4,5.5,9.3,8.3,16.2,8.2
			c25-0.1,49.9,0,74.9,0c0.7,0,1.4,0,2.1,0c8.5-0.4,15.7-6.8,17.1-15.2c0.3-1.9,0.5-3.8,0.5-5.8
			C689.5,202.3,689.5,173.9,689.5,145.4z M658.1,221.3c-0.2,2.4-1.5,3.8-4,4.2c-1,0.1-2.1,0.1-3.2,0.1c-12.3,0-24.6-0.1-36.9,0
			c-5.6,0.1-7.6-1.2-7.5-7.8c0.2-19.9,0.1-39.8,0.1-59.6c0-6.8,0.8-7.7,7.5-7.7c12.3,0,24.6,0,36.9,0c0.2,0,0.4,0,0.5,0
			c5.5,0.1,6.5,1,6.6,6.4c0,10.4,0,20.8,0,31.1c0,9.8,0,19.7,0,29.5C658.1,218.8,658.2,220.1,658.1,221.3z"/>
		<path d="M966.4,249.4c-13.7-41.7-27.5-83.3-41.3-125c-1.6-0.1-2.8-0.2-4-0.2c-13.9,0-27.8,0-41.7,0c-5.2,0-4.3-0.3-5.8,4.2
			c-5.2,15.7-10.3,31.4-15.4,47c-8,24.4-16,48.7-24,73.1c-0.3,1-1,1.9-0.2,3.1c0.8,0,1.6,0.1,2.5,0.1c8.6,0,17.2,0,25.9,0
			c0.4,0,0.7,0,1.1,0c2.4-0.1,2.4-0.1,3.3-2.5c0.3-0.8,0.5-1.7,0.8-2.5c1.7-5.2,3.3-10.4,5.2-15.5c1.3-3.5,0.5-3.6,4.7-3.6
			c15.3,0,30.6,0,45.9,0c3.1,0,3.2,0,4.1,2.9c2.1,6.1,4.2,12.3,6.3,18.5c0.9,2.7,1,2.7,3.7,2.8c7.6,0,15.1,0,22.7,0h6.4
			C966.4,250.8,966.6,250,966.4,249.4z M883,200.7c5.3-16.7,11-33.1,17.1-49.6c6.1,16.6,11.9,33,17.3,49.8
			C911.5,201.5,887.1,201.4,883,200.7z"/>
		<path d="M1138.4,188.3c0-19.2,0-38.3,0-57.5c0-1.4,0-2.8,0-4.2c0.1-1.9,0.4-2.2,2.1-2.3c1.2-0.1,2.5,0,3.7,0c31.3,0,62.6,0,93.9,0
			c6.6,0,5.8-0.7,5.9,6c0,6,0,12,0,17.9c0,1.9-0.4,2.2-2.1,2.3c-1.4,0.1-2.8,0-4.2,0c-20.6,0-41.1,0-61.7,0c-1.4,0-2.8,0-4.2,0
			c-1.8,0.1-2.2,0.4-2.2,2.2c0,4.7,0,9.5,0,14.2c0,2.1,0,4.2,0.1,6.3c0,0.8,0.5,1.3,1.3,1.4c1.4,0.1,2.8,0.1,4.2,0.1
			c14.8,0,29.5,0,44.3,0c0.9,0,1.8,0,2.6,0c4.2-0.1,4.1,0.2,4,4.1c0,6.7,0,13.4,0,20c0,2.2-0.3,2.4-2.5,2.4c-6,0-12,0-17.9,0
			c-10.2,0-20.4,0-30.6,0c-1.2,0-2.5,0-3.7,0c-1.3,0-1.9,0.8-1.9,2c0,1.4,0,2.8,0,4.2c0,5.1,0,10.2,0,15.3c0,2.4,0.3,2.6,2.8,2.7
			c1.2,0,2.5,0,3.7,0c20.6,0,41.1,0,61.7,0c7.3,0,6.3-0.9,6.3,6.6c0,5.8,0,11.6,0,17.4c0,1.8-0.5,2.1-2.2,2.2c-1.1,0.1-2.1,0-3.2,0
			c-31.6,0-63.3,0-94.9,0c-5.8,0-5.2,0.5-5.2-5.5C1138.3,226.9,1138.4,207.6,1138.4,188.3z"/>
		<path d="M698.7,124.2c2.5,0,5.2,0,7.8,0c7,0,14.1,0,21.1,0c2.8,0,2.8,0,3.7,2.7c4.2,12.3,8.3,24.6,12.4,36.9
			c6.5,19.5,13.1,38.9,19.6,58.4c0.3,0.9,0.2,2.1,1.4,2.8c1.2,0,1-1.2,1.3-1.9c0.3-0.6,0.5-1.3,0.7-2c8.1-24.1,16.2-48.2,24.4-72.3
			c2.4-7.2,4.8-14.3,7.3-21.4c1-3,1.1-3.1,3.9-3.1c9,0,17.9,0,26.9,0c0.7,0,1.3,0.2,1.9,0.2c0.6,1.7-0.2,2.9-0.7,4.2
			c-7.2,22-14.4,44-21.7,66c-5.5,16.7-11,33.3-16.5,50c-0.4,1.2-0.8,2.3-1.2,3.5c-1.4,4.1-1.3,3.5-4.7,3.5c-14.6,0-29.2,0-43.8,0
			c-2.7,0-2.8,0-3.7-2.7c-4.3-12.8-8.5-25.7-12.8-38.5c-6.4-19.3-12.7-38.7-19.1-58c-2.6-7.8-5.2-15.7-7.7-23.5
			C699,127.7,698,126.2,698.7,124.2z"/>
		<path d="M1072.5,124.2c17.1,0,34.1,0,51.2,0c1.2,0,2.5,0,3.7,0c1.8,0.1,2.2,0.5,2.3,2.1c0.1,1.8,0,3.5,0,5.3c0,5.5,0,10.9,0,16.4
			c0,2-0.4,2.4-2.6,2.4c-10.4,0-20.8,0-31.1,0c-2.3,0-5-0.9-6.6,0.5c-1.9,1.6-0.8,4.6-0.8,7c-0.1,29.4,0,58.8,0,88.1
			c0,6.2,0.5,5.7-5.6,5.7c-7.7,0-15.5,0-23.2,0c-2.2,0-2.5-0.3-2.6-2.4c0-1.4,0-2.8,0-4.2c0-29.4,0-58.8,0-88.1c0-1.4,0-2.8,0-4.2
			c-0.1-2-0.3-2.3-2.6-2.4c-3-0.1-6,0-9,0c-8.4,0-16.9,0-25.3,0c-0.9,0-1.8,0-2.6,0c-1.3,0-1.8-0.8-1.8-2c0-0.7,0-1.4,0-2.1
			c0-6.5,0-13,0-19.5c0-2.2,0.4-2.5,2.4-2.5c4.4,0,8.8,0,13.2,0C1045,124.2,1058.7,124.2,1072.5,124.2z"/>
		<path d="M299.6,188.1c0,19.7,0,39.4,0,59c0,5,0,4.7-4.5,4.7c-7.4,0-14.8,0-22.1,0c-0.9,0-1.8,0-2.6,0c-1,0-1.6-0.6-1.7-1.6
			c-0.1-1.2-0.1-2.5-0.1-3.7c0-39,0-78,0-117c0-5.7-0.3-5.2,5-5.2c7.2,0,14.4,0,21.6,0c0.9,0,1.8,0,2.6,0c1,0,1.6,0.6,1.7,1.6
			c0.1,1.4,0.1,2.8,0.1,4.2C299.6,149.4,299.6,168.7,299.6,188.1z"/>
		<path d="M1006.6,188.6c0,19.5,0,39,0,58.5c0,5,0.1,4.7-4.5,4.7c-7.9,0-15.8,0-23.7,0c-2.2,0-2.5-0.3-2.6-2.4c0-1.2,0-2.5,0-3.7
			c0-38.5,0-77,0-115.5c0-6.8-0.8-6,5.8-6c6.9,0,13.7,0,20.6,0c0.9,0,1.8,0,2.6,0c1,0,1.7,0.5,1.7,1.5c0.1,1.4,0.1,2.8,0.1,4.2
			C1006.6,149.5,1006.6,169.1,1006.6,188.6z"/>
		<path d="M1042.5,291.9c0,4.7,0,9.4,0,14c0,1.4,0,2.8,0,4.2c-0.1,2-0.4,2.3-2.6,2.2c-0.5,0-1-0.1-1.6-0.1c-0.7,0-0.9-0.6-1-1
			c-0.2-0.5-0.1-1-0.1-1.6c0-9,0-17.9,0-26.9c0-0.9-0.2-2,0.6-2.4c1.7-0.6,3.5-0.6,5.2-0.1c1.1,0.3,1.3,1.5,1.7,2.5
			c2,4.9,3.9,9.8,5.9,14.6c0.2,0.5,0.3,1,0.6,1.5c0.1,0.2,0.5,0.5,0.8,0.5c0.5,0.1,0.6-0.2,0.6-0.6c0-4.7,0-9.5,0-14.2
			c0-1.1,0-2.1,0.1-3.2c0.1-0.4,0.4-1.1,0.8-1.2c1.2-0.3,2.5-0.4,3.6,0.1c0.4,0.2,0.7,0.8,0.7,1.2c0,9.7,0,19.3,0,29
			c0,1-0.6,1.6-1.6,1.7s-2.1,0-3.2,0c-0.8,0-1.3-0.5-1.6-1.2c-0.6-1.3-1.1-2.6-1.6-3.9c-2.1-5.2-4.2-10.4-6.3-15.6
			C1043.2,291.7,1042.9,291.8,1042.5,291.9z"/>
		<path d="M531.2,312c-1.1,0.6-2.3,0.3-3.5,0.4c-1.4,0-2.1-0.6-2.7-2c-2-5.1-4-10.1-6.1-15.1c-0.4-1.1-0.9-2.2-1.4-3.3
			c-1.4,0.4-1,1.4-1,2.1c-0.1,4.9-0.1,9.8,0,14.8c0,3.3-0.2,3.9-4,3.5c-0.8-0.1-1.2-0.6-1.2-1.4c0-1.6,0-3.2,0-4.7
			c0-7.9,0-15.8,0-23.7c0-2.1,0.3-2.3,2.5-2.4c0.7,0,1.4,0,2.1,0c1.2,0,1.9,0.6,2.3,1.7c1,2.6,2.1,5.2,3.1,7.8
			c1.4,3.3,2.8,6.7,4.2,10.1c1.3-0.7,0.9-1.7,0.9-2.4c0.1-4.9,0-9.8,0-14.8c0-2.2,0.3-2.4,2.4-2.5c0.5,0,1.1,0,1.6,0.1
			c0.9,0,1.2,0.6,1.2,1.4c0.1,0.7,0,1.4,0,2.1c0,8.6,0,17.2,0,25.8C531.6,310.3,531.7,311.2,531.2,312z"/>
		<path d="M565.6,286c0,1.2,0.1,2.5,0,3.7c0,0.8-0.1,1.8-1.3,2c-1.8,0.3-2.8-0.1-3.4-1.4c-0.4-1-0.7-2-1.2-2.9
			c-2.1-3.8-7.8-3.9-10.1-0.3c-1.2,1.8-1.6,3.9-2,6c-0.5,3.3-0.3,6.7,0.8,9.9c0.9,2.9,2.6,5,5.9,5.3c3.4,0.3,5.5-1,7.1-4.3
			c0.4-0.8,0.6-1.6,0.7-2.5c0.1-0.6-0.4-1-0.8-1.1c-1-0.1-2.1-0.1-3.2-0.1c-2.2-0.1-2.5-0.6-2.4-3c0-1.3,0.6-1.9,1.9-1.9
			c2.6,0,5.3,0,7.9,0c1.4,0,1.8,0.6,1.8,2c-0.1,3.2-0.6,6.3-2.1,9.2c-2.2,4.3-5.7,6.5-10.6,6.5c-4.7,0-8-2.4-10.2-6.3
			c-1.4-2.5-1.9-5.3-2.2-8.1c-0.4-3.5,0.1-7,1.1-10.4c0.9-2.9,2.4-5.5,5.1-7.1c3.6-2.1,7.2-2.6,10.8,0.2c0.8,0.6,1.3,0.7,1.9-0.5
			c0.7-1.3,2.2-0.7,3.3-0.6c0.6,0,1,0.6,1,1C565.6,282.8,565.6,284.4,565.6,286L565.6,286z"/>
		<path d="M755.7,300.9c-0.8-1.2-0.6-1.7,0.8-2.4c0.5-0.2,1-0.3,1.5-0.5c4.1-2.1,5.7-5.6,4.9-10.6c-0.6-3.8-3.3-6.4-7.4-7.1
			c-0.9-0.2-1.7-0.2-2.6-0.3c-3,0-6,0-9,0c-2.2,0-2.4,0.2-2.4,2.5c0,9.1,0,18.3,0,27.4c0,0.3,0,0.7,0,1c0.1,0.7,0.4,1.3,1.3,1.3
			c0.5,0,1,0.1,1.6,0.1c2.1-0.1,2.4-0.3,2.4-2.5c0-2.8,0-5.6,0-8.4c0-0.9-0.1-1.9,1.1-2c0.7-0.1,1.3,0.4,1.7,1
			c1.8,2.8,3.5,5.6,5.3,8.5c2.3,3.7,2.3,3.7,6.7,3.4c0.3,0,0.6-0.3,0.9-0.4c0.3-1-0.4-1.6-0.9-2.4
			C759.7,306.7,757.7,303.8,755.7,300.9z M754.8,294.2c-1.8,0.7-3.8,0.7-5.7,0.6c-2.1,0-2.3-0.3-2.4-2.5c0-1.2,0-2.4,0-3.7
			c-0.1-4.6,0.2-4,4.4-4.1c0.4,0,1.3,0,2.2,0.1c3.3,0.6,4.8,2.7,4.3,6C757.4,292.5,756.5,293.6,754.8,294.2z"/>
		<path d="M696.4,286.7c-2-4.7-5.5-7.2-10.6-7.3c-5.1,0-8.8,2.5-10.7,7.1c-2.6,6.4-2.6,13,0,19.5c1.9,4.7,5.6,7.1,10.7,7
			c4.9-0.1,8.3-2.4,10.3-6.9c1.4-3.1,2-6.3,2-11.1C698.3,293.1,697.7,289.8,696.4,286.7z M691.6,303.9c-1,2.9-3.2,4.2-6,4.2
			s-4.6-1.4-5.6-3.9c-2-5.3-2.1-10.6,0-15.8c0.9-2.2,2.4-3.8,5-4c3.1-0.3,5.3,1.1,6.5,4.2c0.9,2.4,1.5,5,1.3,7.7
			C693.1,298.8,692.5,301.4,691.6,303.9z"/>
		<path d="M959.7,287c-1.8-4.9-6-7.7-10.9-7.6c-5.1,0.1-8.6,2.7-10.6,7.3c-1.4,3.1-1.7,6.4-1.6,10.3c0,2.5,0.3,5.4,1.4,8.3
			c2,5,5.8,7.7,10.7,7.8c5,0.1,9.1-2.6,10.9-7.5C961.9,299.4,961.9,293.1,959.7,287z M954.6,304.2c-1,2.4-2.8,3.9-5.6,3.9
			s-4.8-1.2-5.7-3.8c-2-5.4-2.1-10.9,0.1-16.3c1-2.5,3-3.8,5.7-3.7c2.8,0,4.5,1.6,5.6,4s1.4,5,1.3,7.8
			C956,298.8,955.7,301.6,954.6,304.2z"/>
		<path d="M346.7,296.3c0-4.7,0-9.5,0-14.2c0-1.7,0.4-2,2.2-2.1c0.4,0,0.7,0,1.1,0c1.2,0,2,0.5,2,1.8c0,3,0,6,0,9
			c0,2.3,0.2,2.5,2.4,2.4c9-0.2,7.3,1.6,7.5-7.3c0-1.2,0-2.5,0-3.7c0-0.9,0.1-1.8,1.2-2.1c1.2-0.3,2.4-0.5,3.5,0.2
			c0.7,0.4,0.6,1.2,0.6,1.9c0,6.3,0,12.7,0,19c0,3,0,6,0,9c0,1.6-0.5,2-2.3,2c-0.4,0-0.7,0-1.1,0c-1.2-0.1-1.9-0.7-1.9-2
			c0-3.3,0-6.7,0-10c0-1.8-0.4-2.1-2.2-2.1c-2.1,0-4.2,0-6.3,0.1c-0.8,0-1.3,0.6-1.3,1.4c0,3.5,0,7-0.1,10.5c0,1.7-0.4,2.1-2.2,2.1
			c-2.8,0.1-3-0.1-3.1-2.8C346.7,305.1,346.7,300.7,346.7,296.3z"/>
		<path d="M1004.3,296.1c0-4.6,0-9.1,0-13.7c0-2,0.3-2.3,2-2.3c5.6,0,11.2,0,16.9,0c1.7,0,2.8,2.4,1.8,3.9c-0.4,0.6-1.2,0.7-1.9,0.7
			c-3.7,0-7.4,0-11.1,0c-2.2,0-2.3,0.2-2.4,2.5c0,0.5,0,1.1,0,1.6c0,4.8-0.6,4.6,4.5,4.6c1.8,0,3.5,0,5.3,0c0.9,0,1.8,0.1,2.1,1.2
			c0.3,1,0.3,2.1-0.2,3.1c-0.2,0.3-0.9,0.6-1.3,0.6c-3,0.1-6,0.1-9,0.1c-0.8,0-1.3,0.5-1.3,1.3c0,2.3,0,4.6,0,6.8
			c0,0.8,0.6,1.2,1.4,1.2c3.9,0,7.7,0,11.6,0.1c2.1,0,2.5,0.5,2.5,2.4c0,1.7-0.4,2.2-2.2,2.2c-5.6,0-11.2,0-16.9,0
			c-1.3,0-1.8-0.7-1.8-2C1004.3,305.6,1004.3,300.9,1004.3,296.1z"/>
		<path d="M729,292.3c0,2.8,0,5.6,0,8.4c0,1.2,0,2.5-0.2,3.7c-1.2,7.2-8.8,10.9-15.2,7.4c-2.7-1.4-4-3.8-4.6-6.7
			c-0.3-1.2-0.4-2.4-0.4-3.7c0-6.3,0-12.6,0-18.9c0-2.1,0.4-2.5,2.4-2.5c2.4,0,2.9,0.4,2.9,2.6c0,5.6,0,11.2,0,16.8
			c0,1.6,0,3.2,0.3,4.7c0.4,2.5,2,3.8,4.3,3.9c2.5,0.1,4.4-1.2,4.9-3.8c0.3-1.5,0.3-3.1,0.3-4.7c0-5.6,0-11.2,0-16.8
			c0-2.4,0.4-2.7,2.7-2.7c2.2,0,2.5,0.2,2.6,2.2C729,285.6,729,288.9,729,292.3L729,292.3z"/>
		<path d="M576.8,296c0-4.7,0-9.5,0-14.2c0-1,0.5-1.7,1.5-1.7c5.8,0,11.6-0.1,17.4,0c1.6,0,2,0.7,1.9,2.4c-0.1,1.7-0.4,2.1-2.2,2.2
			c-3.7,0.1-7.4,0-11.1,0c-1.9,0-2.2,0.3-2.3,2c-0.1,1.6,0,3.2,0,4.7c0,1.4,0.7,1.8,2,1.8c2.5,0,4.9,0,7.4,0c2.3,0,2.7,0.5,2.7,2.8
			c0,1.4-0.5,2-1.7,2c-2.6,0-5.3,0-7.9,0c-2.1,0-2.4,0.2-2.3,2.5c0.1,8.2-1.3,6.8,6.9,7c2.5,0,4.9,0,7.4,0.1c1.1,0,1.3,1,1.3,1.9
			c0,1,0.2,2.2-1.3,2.5c-1,0.2-2.1,0.2-3.1,0.2c-4.7,0-9.5,0-14.2,0c-2,0-2.2-0.3-2.2-2.1C576.8,305.5,576.8,300.8,576.8,296
			L576.8,296z"/>
		<path d="M1080.7,280.1c3.3,0,6.7,0,10,0c0.8,0,1.3,0.5,1.3,1.3c0,3,0,6,0,9c0,1.4-1.1,1.6-2.2,1.6s-2.2,0-2.3-1.5
			c-0.1-1.2,0-2.5-0.1-3.7c-0.1-1.7-1-2.3-2.9-2c-0.6,0.1-1,0.4-1.1,0.9c-0.2,0.5-0.2,1-0.2,1.6c0,6,0,11.9,0,17.9
			c0,2.3,0.1,2.3,2.8,2.6c0.5,0.1,1.1,0,1.6,0.2c1.2,0.6,0.9,1.8,0.9,2.8c0,0.8-0.4,1.3-1.1,1.5c-0.2,0-0.3,0.1-0.5,0.1
			c-4.2,0-8.4,0-12.6-0.1c-0.8,0-1.3-0.6-1.2-1.4c0-0.9,0-1.8,0.3-2.5c0.4-1,1.5-0.5,2.3-0.6c2-0.3,2.3-0.5,2.3-2.1
			c0-6.3,0-12.6,0-19c0-0.9-0.3-1.7-1.4-1.9c-1.7-0.4-2.7,0.2-2.8,2c-0.1,0.9,0,1.8,0,2.6c-0.1,2.2-1.9,3.2-4,2.3
			c-0.3-0.1-0.6-0.4-0.7-0.7c-0.2-0.7-0.3-1.4-0.2-2.1c0.2-2.8-0.5-5.6,0.4-8.3c2.7-1.3,5.5-0.3,8.2-0.6
			C1078.6,280,1079.6,280,1080.7,280.1L1080.7,280.1z"/>
		<path d="M1158.6,310.5c-2.9-9.5-5.9-19.1-8.8-28.6c-0.3-1.1-1-1.8-2.3-1.8c-0.5,0-1.1,0-1.6,0c-2.6,0-2.7,0-3.5,2.8
			c-2.8,9-5.6,18-8.5,27.1c-0.2,0.6-0.6,1.3-0.1,2.2c0.5,0.1,1.2,0.3,1.9,0.3c2.7,0,2.8-0.1,3.7-2.7c0.5-1.5,0.9-3,1.5-4.9h5.2
			c5.3,0,5.3,0,7.1,5.2c0.7,2.2,0.9,2.3,3.3,2.4c0.2,0,0.4,0,0.5,0C1158.5,312.3,1159,311.8,1158.6,310.5z M1142.6,299.7
			c0.9-4,1.7-8,3.9-12.1c0.8,2.4,1.4,4.4,2,6.4C1150.5,300.8,1150.5,300.9,1142.6,299.7z"/>
		<path d="M501.1,311c-0.2-0.9-0.4-1.7-0.6-2.5c-2.5-8-5-16-7.5-24.1c-0.1-0.3-0.2-0.7-0.4-1c-1.1-3.4-1.2-3.5-4.8-3.3
			c-2,0.1-2.2,0.2-2.9,2.3c-2.9,9.4-5.9,18.7-8.8,28.1c-0.1,0.5-0.1,1-0.2,1.6c0.8,0.1,1.4,0.3,2.1,0.3c2.7,0,2.8-0.1,3.7-2.7
			c0.5-1.5,0.9-3,1.5-4.9c3.3,0,6,0,8.8,0c1.2,0,2,0.5,2.3,1.7c0.4,1.5,0.9,3,1.3,4.5c0.2,0.8,0.8,1.2,1.5,1.3
			c0.9,0.1,1.7,0.1,2.6,0.1C500.8,312.3,501.3,311.8,501.1,311z M491.3,300.1c-1.7,0.1-3.5,0.1-5.2,0c-0.8,0-1.2-0.8-1-1.5
			c1-3.5,1.8-7,3.7-11.4c1.4,4.5,2.4,8,3.4,11.4C492.5,299.3,492.1,300,491.3,300.1z"/>
		<path d="M979.1,296.1c0-3.2,0-6.3,0-9.5c0-1.5-0.4-1.8-1.9-1.9c-1.8,0-2.2,0.3-2.3,2.1c0,0.9,0,1.8,0,2.6
			c-0.1,2.3-0.6,2.6-2.9,2.5c-1.1-0.1-1.6-0.6-1.7-1.6c-0.1-2.6-0.1-5.3-0.1-7.9c0-2.3,0.1-2.3,2.5-2.4c6.2,0,12.3,0,18.5,0
			c1.8,0,2.2,0.5,2.3,2.1c0,2.6,0,5.3,0,7.9c0,1.5-0.6,1.8-2.6,1.8c-1.1,0-2.1-0.2-2.2-1.6c-0.1-1.2,0-2.5-0.1-3.7
			c-0.1-1.6-0.7-2-2.4-1.9c-1,0.1-1.7,0.4-1.7,1.5c0,6.5,0,13-0.1,19.5c0,1.3,0.6,2,1.9,2c0.4,0,0.7,0,1.1,0
			c2.2,0.2,2.3,0.5,2.3,2.5c0,1.2-0.3,2.1-1.7,2.1c-4,0-8.1,0-12.1,0c-1.3,0-1.8-0.6-1.8-2c-0.1-1.8,0.3-2.3,1.8-2.6
			c0.5-0.1,1.1-0.1,1.6,0c1.1,0,1.6-0.6,1.6-1.6c0-2.6,0-5.3,0.1-7.9C979.1,297.5,979.1,296.8,979.1,296.1L979.1,296.1z"/>
		<path d="M397,293.1c-1.1-3.7-2.3-7.3-3.5-11c-0.2-0.6-0.2-1.4-1-1.7c-1.5-0.6-3.1-0.5-4.7-0.2c-1.4,0.3-1.5,1.8-1.9,2.9
			c-2.3,7.3-4.6,14.7-6.8,22.1c-0.7,2.2-1.3,4.3-2,6.5c4.7,1.1,4.8,1,5.9-1.9c2-5.8,0.4-5,7.2-5c1.6,0,3.1,0,4.5,0
			c1.5,2,1.6,4.2,2.4,6.1c0.4,0.9,0.9,1.5,1.9,1.5c1.2,0,2.5,0.4,3.6-0.8C400.9,305.5,399,299.3,397,293.1z M392.3,300.1
			c-1.9,0.1-3.8,0-6.4,0c1.3-4.5,2.4-8.2,3.5-11.8c1.2,0.1,1.4,0.9,1.7,1.7c0.8,2.9,1.6,5.7,2.4,8.6
			C393.6,299.4,393.1,300.1,392.3,300.1z"/>
		<path d="M824.5,293.1c-1.1-3.7-2.3-7.3-3.5-11c-0.2-0.6-0.3-1.4-1-1.7c-1.5-0.6-3.1-0.5-4.7-0.2c-1.4,0.3-1.5,1.8-1.9,2.9
			c-2.4,7.5-4.8,15-7,22.6c-0.6,2-1.7,3.9-1.6,6c0.3,0.2,0.6,0.5,0.9,0.6c0.5,0.1,1,0.1,1.6,0.1c2.2-0.1,2.2-0.2,3-2.1
			c0.7-1.8,0.4-4.3,2.2-5.2c1.6-0.7,3.8-0.3,5.7-0.4c1.4,0,2.8,0,4,0c1.4,1.9,1.6,3.9,2.2,5.7c0.5,1.3,1.2,2.1,2.6,2
			c0.8-0.1,1.7-0.1,3.3-0.2C828.3,305.4,826.4,299.3,824.5,293.1z M819.8,300.1c-7.4,0.1-6.6,0.7-4.7-5.8c0.6-2,1.2-4,2.1-7.2
			c2,4.8,3.2,8.5,3.7,12.4C820.4,299.8,820.1,300.1,819.8,300.1z"/>
		<path d="M335.3,286.5c0,1.2,0,2.5,0,3.7c0,0.9,0.1,1.8-1.1,2c-1.8,0.4-3.1,0-3.6-1.2c-0.4-1-0.5-2.1-0.9-3c-1-2.2-2.7-3.6-5.3-3.7
			c-2.6-0.1-4.5,1-5.5,3.3c-2.5,5.6-2.6,11.3-0.2,16.8c2.1,4.7,8.2,5,11.2,0.8c0.5-0.7,0.8-1.5,1.3-2.3c1.1-1.9,2.4-2.2,4.1-0.8
			c0.4,0.3,0.7,0.7,0.6,1.3c-1.2,5-5.3,8.9-10.1,9.4c-5.1,0.6-9.6-1.9-11.9-6.9c-2.9-6.6-2.8-13.2-0.1-19.9c0.6-1.5,1.6-2.7,2.7-3.9
			c2.9-2.9,8.1-4.1,11.6-1.6c1.3,0.9,2.1,1.5,3.2-0.3c0.5-0.8,1.9-0.4,3-0.3c0.6,0.1,1,0.5,1,1C335.3,283,335.2,284.7,335.3,286.5
			L335.3,286.5z"/>
		<path d="M919.3,280.2c-0.5-0.1-1-0.2-1.6-0.2c-3.3,0-6.7,0-10,0c-1.3,0-1.9,0.6-1.9,1.9c0,4.7,0,9.5,0,14.2l0,0
			c0,4.7,0,9.5,0,14.2c0,1.7,0.5,2,2.3,2c0.2,0,0.3,0,0.5,0c2-0.1,2.4-0.4,2.5-2.5c0.1-3,0-6,0.1-8.9c0-1,0.5-1.6,1.6-1.6
			c1.8,0,3.5,0.1,5.2-0.1c3-0.3,5.9-1,7.8-3.7C930.1,289.4,926.7,281.4,919.3,280.2z M919.3,293.9c-1.5,0.4-3.1,0.4-4.6,0.6
			c0-0.1,0-0.1,0-0.2c-0.7,0-1.4,0-2.1,0c-0.8,0-1.3-0.5-1.3-1.3c0-1-0.2-2.1,0-3.1c0.3-1.7-1.1-4.5,1.2-5c2.9-0.7,6.3-1,8.8,1.7
			C923.3,288.9,922.2,293.1,919.3,293.9z"/>
		<path d="M653.5,293c0.9-2,1.8-3.9,2.6-5.8c0.5-1.1,1-2.2-0.7-2.9c-0.8-0.4-0.4-1.6-0.4-2.4c0-1,0.3-1.7,1.5-1.7
			c2.3,0,4.6-0.1,6.8,0c0.8,0,1.9,0.1,1.9,1.3c0,1.1,0.7,2.7-0.9,3.2c-1.4,0.4-1.9,1.3-2.5,2.5c-1.3,2.7-2.5,5.5-4,8
			c-1.7,2.9-2.2,5.9-2,9.1c0.1,1,0,2.2,0.4,3c0.6,1.1,1.9,0.5,2.9,0.6c1.7,0.3,2.7,2.7,1.7,3.9c-0.3,0.4-0.9,0.7-1.3,0.7
			c-4.2,0.1-8.4,0-12.6,0c-1.1,0-1.5-0.7-1.6-1.7c-0.1-2,0.2-2.7,1.4-2.9c0.7-0.1,1.4,0,2.1-0.1c1-0.1,1.6-0.6,1.7-1.6
			c0.2-3.7,0.2-7.3-1.8-10.7c-1.5-2.5-2.7-5.3-4-8c-0.6-1.3-1.2-2.4-2.7-3c-0.9-0.4-1.3-2.9-0.6-3.7c0.3-0.4,0.9-0.6,1.3-0.6
			c2.3-0.1,4.6-0.1,6.8,0c1.3,0,1.7,0.7,1.7,2.1c0,0.4,0.1,0.8-0.1,1c-0.4,0.9-1.5,1.8-1.4,2.6c0.3,1.7,1.2,3.3,1.9,4.9
			C651.9,291.4,652,292.4,653.5,293z"/>
		<path d="M850.5,312.4c-1.9,0-3.9,0-5.8,0c-1.5,0-1.9-0.6-1.9-2.4s0.2-2,2-2.2c0.5-0.1,1.1,0,1.6-0.1c0.8-0.1,1.3-0.6,1.3-1.4
			c0.1-1,0.1-2.1,0.1-3.2c0-5.1,0-10.2,0-15.3c0-2.8-0.1-2.8-2.8-3.2c-1.9-0.3-2.8-1.7-2.1-3.6c0.1-0.4,0.7-0.9,1.1-0.9
			c4.4,0,8.8,0,13.1,0c1.1,0,1.3,1,1.2,1.9c0,1,0.1,2.1-1.3,2.5c-1.2,0.3-2.6-0.4-3.5,0.6c-1,1.2-0.5,2.7-0.5,4.1
			c0,5.4,0,10.9,0,16.3c0,1.7,0.3,1.9,2.2,2.1c0.5,0.1,1.1,0,1.6,0.1c1.4,0.2,1.4,1.2,1.5,2.3c0,1.2-0.3,2.1-1.6,2.2
			C854.7,312.4,852.6,312.3,850.5,312.4C850.5,312.3,850.5,312.3,850.5,312.4z"/>
		<path d="M1113.4,312.3c-1.9,0-3.9,0-5.8,0c-1.3,0-1.8-0.7-1.8-2c0-2.1,0.2-2.4,2.2-2.6c0.5-0.1,1,0,1.6-0.1
			c0.8-0.1,1.2-0.6,1.2-1.4c0-0.5,0.1-1,0.1-1.6c0-5.6,0-11.2,0-16.8c0-2.8-0.1-2.8-2.8-3.2c-0.2,0-0.4,0-0.5,0
			c-1.5-0.2-1.8-0.7-1.8-2.5c0-1.2,0.4-2.1,1.7-2.1c4.2,0,8.4,0,12.6,0.1c1.1,0,1.4,0.9,1.3,1.8c-0.1,1,0.3,2.2-1.1,2.6
			c-0.2,0-0.3,0.1-0.5,0.1c-1,0.1-2.2-0.1-3,0.4c-1.1,0.8-0.6,2.3-0.6,3.4c0,5.6,0,11.2,0,16.8c0,2.1,0.1,2.1,2.5,2.4
			c0.3,0,0.7,0,1,0c1.5,0.2,1.7,0.7,1.8,2.6c0,1.3-0.5,2-1.8,2C1117.6,312.4,1115.5,312.3,1113.4,312.3L1113.4,312.3z"/>
		<path d="M450.3,294.1c0,3.3,0,6.7,0,10c0,3.6,0.1,3.6,3.4,3.6s6.7,0,10,0c1.9,0,2.9,1.8,2.2,3.6c-0.2,0.4-0.7,0.8-1.2,0.9
			c-1,0.2-2.1,0.2-3.1,0.2c-4.7,0-9.5,0-14.2,0c-2,0-2.3-0.3-2.3-2.5c0-9.1,0-18.2,0-27.3c0-2.1,0.3-2.4,2.4-2.4
			c2.4-0.1,2.8,0.2,2.8,2.5C450.4,286.4,450.3,290.2,450.3,294.1z"/>
		<path d="M412.2,295.9c0-4.5,0-9.1,0-13.7c0-1.8,0.4-2.1,2.1-2.1c0.7,0,1.4,0,2.1,0.2c0.4,0.1,0.9,0.6,1,1c0.2,0.8,0.1,1.7,0.1,2.6
			c0,6.1,0,12.3,0,18.4c0,6.2-0.7,5.4,5.7,5.5c2.6,0,5.3,0,7.9,0c0.7,0,1.6,0.1,1.8,0.8c0.3,1,0.4,2.1-0.1,3
			c-0.2,0.4-0.9,0.7-1.3,0.7c-5.9,0-11.9,0-17.8,0c-1.1,0-1.4-0.8-1.4-1.7C412.2,305.6,412.2,300.7,412.2,295.9L412.2,295.9z"/>
		<path d="M1168.7,296.3c0-4.7,0-9.5,0-14.2c0-1.6,0.5-2,2.3-2c2.6,0,3,0.3,3,3c0,3.9,0,7.7,0,11.6c0,3.2,0,6.3,0,9.5
			c0,3.5,0.1,3.6,3.4,3.6c2.1,0,4.2,0,6.3,0c1.1,0,2.1,0,3.2,0c2.3,0.1,2.7,0.5,2.5,2.8c-0.1,1-0.3,1.8-1.4,1.8c-6,0-11.9,0-17.9,0
			c-1.1,0-1.4-0.9-1.4-1.8C1168.7,305.7,1168.7,301,1168.7,296.3L1168.7,296.3z"/>
	</g>
</g>
<g>
	<g>
		<path class="st2" d="M201.5,420.5c19.8-0.9,38.7-1.7,57.8-2.6c0-0.7,0-1.7,0.2-2.4c-1.9-0.2-3.8-0.9-5.7-0.9
			c-13.4-0.2-26.9-0.2-40.3-0.9c-13.9-0.7-25-9.7-29-22.9c-0.2-0.9-0.7-2.1-0.9-3.3c-1.7-33.3-22.6-55.7-43.9-77.8
			c-19.6-20.3-35.6-42.9-43.4-70.3c-13.4-47.6-8.3-93.4,18.2-135.6c23.6-37.5,57.3-63.5,100.3-75c54-14.6,104-3.3,148.8,30.2
			c28.8,21.5,50.5,48.8,60.4,83.5c15.6,54.5,6.8,104.5-31.4,147.9c-4.7,5.2-7.1,12.3-11.1,17.9c-5.9,8.5-12,17-18.4,25
			c-9.7,11.8-14.2,25.2-15.3,40.1c-0.2,3.5-0.2,7.1-0.7,10.6c-1.2,9.4-5.2,16.5-14.9,20.1c-2.6,0.9-5,2.8-9.4,5.4
			c5.9,1.4,9.4,2.4,13.9,3.5c-4.2,7.8-11.6,8.5-17.7,9.7c-34.2,6.8-68.9,6.6-103.6,6.6C206.4,429.2,204.3,427.4,201.5,420.5z
			 M225.5,260.8c-0.5,0.2-0.9,0.5-1.4,0.9c-4.7-6.8-9.7-13.7-13.9-20.8c-3.8-6.6-8.3-7.3-15.1-5c-8.5,3.1-17.2,5.7-26.2,6.8
			c-4.2,0.5-9-2.6-13.7-4.2c2.1-4.2,3.3-9.4,6.8-12.3c18.9-14.9,40.6-23.4,64.6-23.6c14.6-0.2,29.2,0.9,43.6,2.4
			c23.8,2.1,47.4,5.4,69.8,15.3c11.8,5.2,24.3,7.3,35.4-3.1c0.2-0.2,0.9,0,2.6,0.2c-0.9,18.2-15.3,21.7-29.2,26.2
			c11.1,6.4,19.3-1.9,28.5-4.7c-4.5,11.8-16.3,15.3-30,10.4c-10.9-4-21.9-7.1-32.8-10.9c-5.9-1.9-10.9-0.9-13,5.2
			c-6.6,18.2-15.8,36.3-18.6,55.2c-4.2,29.5-4.2,59.7-5.7,89.6c-0.5,8,0.7,16.3,0.9,25c4-0.2,6.6-0.5,8.5-0.5
			c-1.2-2.8-3.3-5-3.1-7.1c0.7-15.3,0.9-30.7,2.6-46c2.4-23.8,2.4-48.4,9.2-70.8c9-30.2,15.6-28.3,39.4-24.8
			c29.2,4.5,51-7.3,55.2-38.2c0.2-1.7,0.9-3.3,1.9-4.5c11.1-12.7,7.8-26.7,2.6-40.3c-0.7-2.1-3.8-3.5-7.5-6.6
			c-0.2,14.2,6.8,25.5,1.4,38.7c-2.1-3.3-3.1-5.2-4.2-7.1c-6.4-9.2-11.6-10.1-17.7-1.4c-4.7,6.8-11.6,5.2-16.5-0.9
			c4.2-4,9.7-7.1,11.8-11.6c2.4-5.2,1.4-11.8,1.9-17.7c14.9-3.5,18.4-8,17.9-23.1c-0.5-14.2-8-29-16.5-30.4c0,4.7,0,9.4,0,14.2
			c-3.5-3.8-5.2-8-8-11.6c-3.1-3.8-6.6-7.3-10.4-10.4c-2.4-1.9-5.9-2.4-8.7-3.5c-0.7,3.1-1.7,5.9-2.4,9c0,0.2-0.7,0.5-1.4,0.7
			c-3.3-10.1-10.9-16-20.1-20.8c-5.9-3.1-11.6-6.4-17.7-9.2c-3.3-1.4-6.8-2.1-10.1-3.3c-0.2,3.5-0.5,7.1-0.7,10.9
			c0,0.2-0.5,0.5-1.2,0.9c-1.2-2.4-2.4-4.5-3.3-6.8c-6.1-13.9-16.3-20.1-31.6-20.8c-27.8-0.9-56.6,24.8-65.6,42.9
			c-11.8-5.7-19.1-4-28.3,5.9c-6.1,6.6-8.3,14.6-8.7,23.4c-0.2,2.8-0.9,6.1-2.8,8c-9.2,8.7-12.5,18.9-7.5,30.2
			c1.9,4,7.1,6.4,11.1,9.4c1.4,0.9,3.8,1.4,4.2,2.6c2.8,7.1,7.8,10.6,16.3,9.7c-7.3,8.7-13.9,16.5-21.2,25.2
			c-0.2-3.8-0.5-6.6-0.5-9.7c0-6.8-3.3-11.1-10.1-11.6c-6.6-0.2-10.9,4-10.6,10.1c0.2,8,0.7,17,4.5,23.6c11.1,20.3,32.8,29,55,22.4
			c13.2-3.8,24.3-5.9,34.4,6.6c5,6.1,9,11.1,9,19.3c0,9,0.2,18.6,3.3,26.7c8.3,22.2,14.2,44.6,12.5,68.4c-0.2,3.8,0.9,7.5,1.4,11.6
			c0.9,0,1.9,0,2.6,0c0.5-2.4,1.4-4.7,1.7-7.3c1.4-19.1-0.2-38-4.7-56.6c-5.4-22.9-11.1-45.8-16.5-68.6c-0.2-0.7,0-1.7-0.2-2.4
			c-1.9-8.7-3.3-17.7-5.7-26.2c-1.2-4.2-3.3-10.1-9.4-7.1c-1.4,0.7-0.7,7.8,0.7,11.3C217.3,246.7,221.7,253.7,225.5,260.8z
			 M280.5,233.5c-2.8-1.7-5.9-3.8-9.2-5c-6.1-1.9-12.5-3.3-18.9-4.7c-2.8-0.5-6.8-1.9-8.3-0.5c-1.7,1.4-1.4,5.4-0.9,8.3
			c0.9,9,3.3,17.9,3.3,26.9c0,30.7,1.2,60.9,7.1,91.1c3.3,16.7,4,33.7,6.4,50.7c0.5,2.6,3.5,4.7,5.4,6.8c2.4-1.9,5-3.8,6.6-6.1
			c1.2-1.9,1.4-4.7,1.4-7.1c-0.5-18.4,0.5-37-2.4-55c-4.7-28.5-3.3-56.4,4-84.2C276.7,248.3,278.1,242,280.5,233.5z M272.9,315.1
			c0.9,0,1.7,0.2,2.6,0.2c0.5-4.5,1.4-9,1.7-13.4c0.5-15.8,4.5-30.9,10.9-45.3c2.6-5.7,5.7-11.3,7.5-17.2c0.7-1.9-0.7-4.7-1.2-7.1
			c-2.1,0.9-4.7,1.4-5.9,3.1c-2.4,3.1-3.8,6.6-5.4,10.1C272.9,267.9,270.3,291.3,272.9,315.1z M240.4,283.7c0.9,0,1.7-0.2,2.6-0.2
			c0.9-18.2,0.2-36.3-6.8-53.5c-0.7-1.7-1.9-3.5-3.3-4.7c-1.7-1.2-4.2-2.6-5.7-1.9c-1.2,0.5-2.1,3.5-2.1,5.4c0,2.1,1.2,4.2,1.9,6.4
			c3.5,10.9,7.5,21.7,10.6,32.8C239.4,273.1,239.7,278.5,240.4,283.7z M323.6,87.7c0.9-3.8,1.4-5.2,1.4-6.4
			c-0.7-9.2-15.8-24.5-25-25.2c-1.2,0-3.5,0.7-3.5,0.9c0.2,2.1,0.2,4.5,1.4,5.9c5.2,5.7,10.4,11.3,16,16.7
			C316.6,82,319.6,84.1,323.6,87.7z"/>
		<path class="st2" d="M318.2,603.3c-0.9,5-1.9,9.9-2.8,14.6c0.7,0.5,1.4,0.7,2.1,1.2c1.9-2.6,4-5.2,5.2-7.8
			c2.8-6.1,5.4-12.7,8-19.1c1.9-4.5,5-6.4,9.9-4.2c26.9,11.1,54,21.7,80.7,33.3c6.6,2.8,11.8,8.7,17.5,13.2c0.7-0.5,1.7-0.9,2.4-1.4
			c-1.4-2.6-2.1-6.1-4.2-7.5c-11.8-7.8-23.6-16.3-36.3-22.4c-16-7.8-33-13.4-49.5-20.3c-9-3.8-9.7-5.4-5.7-14.4
			c3.3-7.5,6.6-15.1,9.7-22.6c2.8-6.6,7.5-9.7,14.4-7.3c24.1,8.3,48.6,16.3,71.9,25.9c9.4,4,15.3,13.2,20.1,23.6
			c9.2,19.6,3.8,34.9-5.9,51.9c-32.3,56.8-63.9,114.4-95.5,171.5c-2.4,4-4.7,8.3-5.7,12.7c-2.1,11.3-9,15.1-19.8,14.6
			c-17.7-0.7-35.1-0.9-52.8-0.9c-30.2,0-60.4,0.7-90.6,0.9c-2.1,0-4.2,0-8,0c0.7-7.5,1.4-13.9,2.1-20.1c12,3.1,23.1,7.3,34.4,8.7
			c11.1,1.4,22.6,0.2,33.7,0.2c0-0.9,0.2-1.9,0.5-2.8c-3.1-0.7-6.4-1.7-9.4-2.1c-14.4-2.6-28.8-4.5-42.9-7.5
			c-9.7-2.1-14.4-9.2-15.8-19.6c5.4,0.5,8.3,2.4,8.7,7.8c0.2,2.6,2.6,6.4,5,7.3c13.9,5,28.3,5.7,42.7,3.3c0.2-0.9,0.5-1.7,0.5-2.6
			c-13.7-2.8-27.4-5.4-41-8.3c0-0.7,0.2-1.2,0.2-1.9c5,0,9.7,0,14.6,0c30,0.5,56.4-18.2,66.3-46.5c9.7-27.8,7.3-55.2-2.1-82.6
			c-2.4-7.1-2.4-12.3,3.5-17.7c4.7-4.5,7.8-10.9,12.7-14.9c2.8-2.4,9.2-3.8,12.3-2.1c28.5,15.3,56.8,31.1,85.2,46.9
			c0.9,0.5,1.7,1.7,2.8,1.9c1.9,0.5,4,0.5,5.9,0.5c-0.7-2.1-0.5-5.2-1.9-6.4c-10.4-7.3-20.5-15.1-31.6-21
			c-18.4-9.9-37.3-18.9-56.1-28.1c-8.3-4-9-5.7-5-13.9c2.1-4.2,4.2-8.3,6.4-12.5c0.5-0.9,1.2-1.9,1.7-2.8
			C317.3,603.1,317.7,603.3,318.2,603.3z M353.8,567.5c0.9,0.5,1.9,0.9,2.8,1.4c1.7-2.1,3.5-4.5,5.2-6.6c2.4-3.3,5.2-6.4,7.3-9.7
			c1.4-2.4,3.1-5,3.3-7.5c0.2-1.2-3.3-3.8-4.5-3.5c-2.8,0.7-7.1,2.1-7.8,4.2C357.4,552.8,356,560.2,353.8,567.5z"/>
		<path class="st2" d="M260.2,768.2c4.2-5.4,8.5-10.9,13.7-17.5c-9.2,32.6-44.1,51-73.4,39.6c-3.8-1.4-6.4-6.4-9.2-10.1
			c-1.7-2.4-2.4-5.7-4-7.8c-20.1-25.5-40.6-50.7-60.2-76.4c-17.7-23.1-34.4-46.9-51.4-70.5c-12-16.7-10.6-28.5,5-42.5
			c12.7-11.6,34-23.4,46-25.5c0.5,2.8,1.2,5.7,1.9,9.2c6.6-2.6,12.7-4.7,18.6-7.1c12.3-4.7,23.1-2.8,32.6,6.8
			c26.2,27.6,53.5,54.5,78.3,83.5c15.8,18.6,21.7,42.2,19.8,67.2c-1.2,15.8-8.7,28.8-17,41.5c-1.4,2.4-2.4,5-3.5,7.5
			C258.1,767,259,767.5,260.2,768.2z M135.6,593.4c-9.9,3.8-12,8.5-4.2,17.7c18.4,21.7,38,42.5,56.6,64.2c8,9.2,19.6,14.9,25.2,26.4
			c0.7,1.7,5.2,1.4,7.8,2.1c0.7-2.8,2.6-6.4,1.9-8.7c-1.4-3.3-4.7-5.9-7.1-8.7c-11.8-14.4-23.6-28.8-35.6-42.9
			c-2.1-2.6-6.4-3.1-8.5-5.7c-7.1-8.5-13.2-17.9-20.1-26.4C146.3,605.2,141.1,599.6,135.6,593.4z M235.4,709.5
			c-3.1-2.6-5.4-5.9-6.4-5.7c-2.4,0.9-4.7,3.3-5.4,5.7c-0.5,1.4,2.8,5.2,4,5.2C230,714.2,232.1,712.1,235.4,709.5z"/>
		<path class="st2" d="M460.7,576.7c-7.1-14.9-21-21-35.1-26.2c-19.3-7.3-38.9-13.2-58.5-20.1c-3.5-1.2-6.6-2.8-10.1-4.2
			c0.2-0.7,0.5-1.7,0.7-2.4c10.1,1.7,20.3,3.1,30.2,4.7c0.2-0.9,0.5-1.9,0.7-2.8c-1.7-0.9-3.1-2.4-4.7-2.8c-5-1.7-10.1-2.8-15.1-4.2
			c-14.4-4-15.8-5.9-13.4-20.3c0.9-6.6,1.9-13.2,4-19.3c0.9-2.8,5-7.1,7.3-6.8c7.5,0.5,14.9,2.8,22.4,4.2c1.9,0.5,3.8,0.2,5.7,0.2
			c0-2.1,0.5-4.5-0.5-6.1c-0.9-1.7-3.3-2.8-5.2-3.5c-2.6-0.9-5.4-1.2-8-1.4c-22.6-2.8-20.5-3.1-14.4-25.2c0.5-2.1,4.7-4.7,7.1-4.5
			c7.3,0.5,14.6,2.1,21.9,3.1c1.9,0.2,3.8-0.7,5.9-1.2c-1.4-1.7-2.6-4-4.5-4.5c-5.7-1.7-11.8-2.8-17.7-4.2
			c-6.1-1.2-9.2-4.5-8.3-11.1c1.2-9.4,2.1-18.9,3.3-30.2c9,3.3,16.3,6.4,24.1,9c1.9,0.7,4.5,0.5,6.4,0c2.6-0.7,4.7-2.8,7.3-3.5
			c9-2.4,10.6-0.5,9.7,9c-2.4,25.5-4.7,51-6.6,76.4c-0.9,12.3,7.5,23.1,19.8,25.2c9.9,1.9,20.1,2.6,30.2,4.7
			c3.3,0.7,7.5,2.8,9.4,5.4C487.3,532.1,480.5,563.5,460.7,576.7z"/>
		<path class="st2" d="M445.6,441.5c-2.4-1.4-4.7-3.1-7.1-4.5c-7.3-4.2-12-9.7-10.4-18.6c3.1-15.6,6.1-31.1,9.4-46.7
			c0.7-3.5,3.3-6.8,5.7-9.9c4.7-5.9,9.7-11.6,18.6-9.7c9.4,1.9,16,7.3,18.9,16.5c1.4,4.7,1.9,9.7,1.9,14.6
			c-1.7,34.7-3.5,69.1-5.4,103.8c-0.2,3.5-0.5,7.5-1.9,10.4c-1.2,2.4-5,5.4-7.1,5c-13-2.4-25.9-5.2-38.4-8.7c-7.5-2.1-9.4-9.2-9-16
			c0.5-9.9,2.1-19.6,3.3-29.5c0.9-8.5,2.4-9.4,10.6-6.4c3.1,1.2,6.6,1.7,9.9,2.4C444.9,443.6,445.4,442.5,445.6,441.5z"/>
		<path class="st2" d="M39.4,369.3c18.9,0.9,30.7,9.9,38.2,23.1c5.9,10.1,10.4,21.2,13.4,32.6c4.2,15.8,6.6,32.3,9.9,48.4
			c0.9,4.5,0.9,8.5-4,10.4c-14.6,5.4-29.2,11.1-43.9,16c-6.8,2.4-11.3-0.5-12.7-8.5c-5.2-30.7-10.6-61.3-15.8-91.8
			c-1.7-10.1-2.1-20.3,7.3-27.4C34.7,370.5,38.5,369.8,39.4,369.3z M42.7,384.7c6.6,14.9,15.6,30.9,21,47.9
			c5.2,17,7.1,34.9,10.1,51.7C84.9,466.5,67.2,402.4,42.7,384.7z"/>
		<path class="st2" d="M379.3,327.6c0.7,2.4,1.2,5,1.9,7.3c0.5,0,0.9,0,1.7,0c0.5-1.9,1.2-3.8,1.7-5.7c2.1-7.5,3.8-15.3,6.6-22.6
			c4-10.6,10.9-14.2,21.9-12.5c8,1.2,13.7,6.4,13.7,17c0,22.6-1.4,45.5-2.8,68.2c-0.2,2.6-3.8,6.6-6.1,6.8
			c-13.4,1.7-27.1,1.4-38.2-8.3c-2.8-2.6-6.1-6.6-6.1-9.9c0.5-13.4,2.1-26.9,3.5-40.6C377.9,327.3,378.6,327.6,379.3,327.6z"/>
		<path class="st2" d="M68.9,566.5c-6.4-15.1-12.7-30.4-19.3-45.5c-3.1-7.1-2.1-11.6,6.4-13.2c4.5-0.9,9-3.1,13.4-3.8
			c4-0.7,8.3-0.2,12.7-0.2c1.4-4,16-14.4,21.2-13.4c1.7,0.2,3.8,2.4,4.5,4c6.1,15.3,12.3,30.7,17.9,46c0.7,1.9-1.4,5.9-3.3,7.1
			c-13.7,8.7-27.6,16.7-41.5,25.2c-5.9,3.5-8.5-0.5-10.6-5C69.8,567.5,69.4,567,68.9,566.5z"/>
		<path class="st2" d="M226.5,449.8c-5.4-1.7-10.9-2.8-16-5c-2.4-0.9-3.8-4-5.7-5.9c2.4-0.9,4.7-2.4,7.1-2.4
			c16.3-0.7,32.6,0,48.6-1.4c22.9-2.4,45.8-6.1,68.4-9.2c2.6-0.2,5.2-0.2,9.4-0.5c-4.7,7.8-10.4,10.6-17,11.6
			c-21.5,3.3-42.9,6.1-64.4,9.4c-3.1,0.5-6.1,1.4-9.2,2.1c0,0.7,0,1.7,0,2.4c2.6,0.5,5.2,1.4,7.8,1.2c23.4-3.1,46.7-6.6,70.1-9.9
			c3.3-0.5,6.8-0.7,10.1-1.2c0.5,0.9,0.9,1.9,1.4,2.6c-3.1,2.1-5.7,5.4-9,6.1c-17.9,3.8-36.1,7.5-54.3,9.7
			c-17.9,2.4-36.1,2.8-54.3,4c-2.4,0.2-5.2,0.2-7.3-0.5c-2.4-0.9-4.5-3.1-6.6-4.7c2.4-1.7,4.2-4,6.8-4.5c4.7-0.9,9.4-0.9,14.2-1.4
			C226.7,451.2,226.7,450.5,226.5,449.8z"/>
		<path class="st2" d="M208.3,535.9c4.2-0.7,7.3-1.4,10.6-1.9c34-3.3,67.9-6.6,101.7-9.9c3.3-0.2,6.4-1.7,9.7-1.9
			c2.8-0.2,5.7,0,8.5,0.2c-0.9,2.8-1.2,6.4-3.1,8.5c-7.3,9-16.3,15.6-28.5,16.3c-23.1,1.4-46,3.8-69.1,5
			C226.2,552.8,217.3,547.4,208.3,535.9z"/>
		<path class="st2" d="M226.7,505.9c-5.4,0-11.1,0.5-16.5-0.2c-2.1-0.2-5.7-3.1-5.7-4.7c0-2.4,2.4-5.4,4.5-6.6
			c3.5-1.9,7.8-2.6,11.8-3.1c31.8-4,63.7-7.8,95.5-11.8c3.5-0.5,7.1-1.2,10.6-1.4c7.1-0.7,8.5,5,9.9,9.9c1.7,5.9-2.8,7.3-7.1,7.8
			c-24.1,3.1-47.9,5.9-71.9,8.5c-10.4,1.2-20.8,1.4-31.1,2.1C226.7,506.1,226.7,506.1,226.7,505.9z"/>
		<path class="st2" d="M215.4,485.6c-1.7,0-3.5,0.5-5,0c-2.6-1.2-5.2-3.1-7.5-4.7c2.1-2.8,4-7.3,6.4-7.8c11.1-2.1,22.4-2.6,33.5-4.2
			c28.3-4,56.6-8,84.7-12c0.7,0,1.7-0.5,2.4-0.2c3.5,1.2,7.1,2.4,10.4,3.8c-2.6,3.1-4.7,8.3-7.8,8.7c-21.9,4.5-44.1,8.5-66.5,11.8
			c-16.7,2.6-33.7,3.8-50.7,5.7C215.4,486.1,215.4,485.9,215.4,485.6z"/>
		<path class="st2" d="M238,561.8c24.1-2.8,47.2-4,70.8-0.7c-4.2,20.1-15.3,29-34.7,29.5C257.1,591.1,243.7,580.7,238,561.8z"/>
		<path class="st2" d="M223.9,526.2c-3.8-0.2-10.6-0.5-17-1.9c-2.4-0.5-4.2-3.8-6.4-5.7c2.4-1.4,4.7-3.5,7.1-3.8
			c27.4-2.1,54.7-3.8,82.1-6.1c13-0.9,25.7-3.1,38.4-4.2c2.6-0.2,5.7,2.1,8.3,3.3c-2.4,2.6-4.2,6.8-7.1,7.3
			c-13.2,2.4-26.7,4.2-40.1,5.4C268.9,522.9,247.7,524.3,223.9,526.2z"/>
		<path class="st2" d="M174.1,249.5c-11.1,5.7-28.5-0.9-34.9-12.7C150.5,240.8,162.1,245,174.1,249.5z"/>
		<path class="st2" d="M173.9,188.9c-0.5-5.9-0.9-11.8-1.2-17.9c0.7,0,1.4,0,2.1-0.2c0.5,5.9,1.2,11.8,1.7,17.7
			C175.5,188.6,174.8,188.9,173.9,188.9z"/>
	</g>
	<g>
		<path class="st3" d="M740.6,431.6c0-2.1,0.1-4.2,0.1-6.3c0-26.3,0-52.5,0-78.9c0-1.7,0-3.5,0.1-5.2c0-1.2,0.7-2,2-2
			c1.1,0,2.2-0.1,3.2-0.1c9.4,0,18.7,0,28.1,0c5.2,0,5.2,0,5.2,5.6c0,0.6,0,1.4,0,2c0,47.6,0,95.2,0,142.7c0,8.3,0.7,7.4-7.3,7.4
			c-9.1,0-18.3-0.1-27.4,0.1c-3,0.1-4.7-1-6.3-3.5c-11.5-17.2-23-34.2-34.5-51.4c-7.9-11.7-15.7-23.5-23.6-35.1
			c-0.7-1.1-1.5-2.1-2.3-3.1c-2,1.1-1.1,2.8-1.1,4.2c0,26.9,0,53.9,0,80.8c0,9.1,1.1,7.9-7.9,7.9c-8.3,0-16.6,0-24.7,0
			c-1.4,0-2.6,0-4-0.1c-0.5-0.1-1.1-0.7-1.2-1.2c-0.2-1.5-0.2-3-0.2-4.6c0-48.4,0-96.9,0-145.3c0-0.6,0-1.4,0-2
			c0.1-4.2,0.1-4.3,4.3-4.3c10.3,0,20.4,0,30.7,0c2.2,0,3.6,0.7,4.8,2.6c5.1,7.7,10.3,15.1,15.3,22.7c13.8,20.5,27.7,41,41.4,61.7
			c1.4,2,2.7,4,4.1,5.9C739.9,431.8,740.3,431.6,740.6,431.6z"/>
		<path class="st3" d="M837.3,403.7c0,2.7,0,4.9,0,7c0,26.7,0,53.5,0,80.2c0,6.2,0.1,5.8-5.6,5.8c-9.8,0-19.5,0-29.3,0
			c-2.7,0-3.1-0.4-3.2-3c0-1.5,0-3.1,0-4.6c0-47.6,0-95.2,0-142.7c0-8.3-0.9-7.3,7.2-7.4c8.5,0,16.9,0,25.5,0c6.1,0,5.1-0.6,8.4,4.3
			c11,16.4,22.1,32.8,33.1,49.2c8.2,12.1,16.2,24.1,24.3,36.2c0.7,1.1,1.5,2.1,2.3,3.2c2-1,1.1-2.7,1.1-4.1c0-26.9,0-53.9,0-80.8
			c0-9-1.1-7.9,7.9-8c8.9,0,17.8,0,26.7,0c3.7,0,3.8,0.2,4,4.2c0,1.1,0,2.2,0,3.2c0,47.6,0,95.2,0,142.7c0,8.3,0.7,7.4-7.2,7.4
			c-9.4,0-18.7-0.1-28.1,0c-2.5,0-4.1-0.7-5.3-2.8c-4.7-7-9.4-14.1-14.1-21.1c-14.7-21.8-29.4-43.6-44-65.4
			C840.3,406.3,839.8,404.8,837.3,403.7z"/>
		<path class="st3" d="M1100.3,365.3c0-2.1-0.4-4.3-0.5-6.4c-0.5-9.5-10-19.8-22.9-19.8c-31.5,0.1-63,0.2-94.5,0
			c-11.5-0.1-22.9,10-23,22c0,1.7,0,3.5,0,5.2c0,17.2,0,34.4,0,51.5c0,17.2,0,34.4,0,51.5c0,2.3,0.1,4.8,0.2,7.2
			c0.1,3.8,1.6,7.2,3.7,10.3c4.9,6.8,11.5,10.3,20,10.1c30.9-0.1,61.7,0,92.6,0c0.9,0,1.7,0,2.6,0c10.5-0.5,19.4-8.4,21.1-18.8
			c0.4-2.3,0.6-4.7,0.6-7.2C1100.3,435.6,1100.3,400.5,1100.3,365.3z M1061.5,459.1c-0.2,3-1.9,4.7-4.9,5.2c-1.2,0.1-2.6,0.1-4,0.1
			c-15.2,0-30.4-0.1-45.6,0c-6.9,0.1-9.4-1.5-9.3-9.6c0.2-24.6,0.1-49.2,0.1-73.7c0-8.4,1-9.5,9.3-9.5c15.2,0,30.4,0,45.6,0
			c0.2,0,0.5,0,0.6,0c6.8,0.1,8,1.2,8.2,7.9c0,12.9,0,25.7,0,38.4c0,12.1,0,24.3,0,36.5C1061.5,456,1061.6,457.6,1061.5,459.1z"/>
		<path class="st3" d="M1442.5,493.8c-16.9-51.5-34-103-51-154.5c-2-0.1-3.5-0.2-4.9-0.2c-17.2,0-34.4,0-51.5,0
			c-6.4,0-5.3-0.4-7.2,5.2c-6.4,19.4-12.7,38.8-19,58.1c-9.9,30.2-19.8,60.2-29.7,90.3c-0.4,1.2-1.2,2.3-0.2,3.8c1,0,2,0.1,3.1,0.1
			c10.6,0,21.3,0,32,0c0.5,0,0.9,0,1.4,0c3-0.1,3-0.1,4.1-3.1c0.4-1,0.6-2.1,1-3.1c2.1-6.4,4.1-12.9,6.4-19.2
			c1.6-4.3,0.6-4.4,5.8-4.4c18.9,0,37.8,0,56.7,0c3.8,0,4,0,5.1,3.6c2.6,7.5,5.2,15.2,7.8,22.9c1.1,3.3,1.2,3.3,4.6,3.5
			c9.4,0,18.7,0,28.1,0h7.9C1442.5,495.5,1442.8,494.5,1442.5,493.8z M1339.4,433.6c6.6-20.6,13.6-40.9,21.1-61.3
			c7.5,20.5,14.7,40.8,21.4,61.5C1374.7,434.6,1344.5,434.5,1339.4,433.6z"/>
		<path class="st3" d="M1655.1,418.3c0-23.7,0-47.3,0-71.1c0-1.7,0-3.5,0-5.2c0.1-2.3,0.5-2.7,2.6-2.8c1.5-0.1,3.1,0,4.6,0
			c38.7,0,77.4,0,116.1,0c8.2,0,7.2-0.9,7.3,7.4c0,7.4,0,14.8,0,22.1c0,2.3-0.5,2.7-2.6,2.8c-1.7,0.1-3.5,0-5.2,0
			c-25.5,0-50.8,0-76.3,0c-1.7,0-3.5,0-5.2,0c-2.2,0.1-2.7,0.5-2.7,2.7c0,5.8,0,11.7,0,17.6c0,2.6,0,5.2,0.1,7.8
			c0,1,0.6,1.6,1.6,1.7c1.7,0.1,3.5,0.1,5.2,0.1c18.3,0,36.5,0,54.8,0c1.1,0,2.2,0,3.2,0c5.2-0.1,5.1,0.2,4.9,5.1
			c0,8.3,0,16.6,0,24.7c0,2.7-0.4,3-3.1,3c-7.4,0-14.8,0-22.1,0c-12.6,0-25.2,0-37.8,0c-1.5,0-3.1,0-4.6,0c-1.6,0-2.3,1-2.3,2.5
			c0,1.7,0,3.5,0,5.2c0,6.3,0,12.6,0,18.9c0,3,0.4,3.2,3.5,3.3c1.5,0,3.1,0,4.6,0c25.5,0,50.8,0,76.3,0c9,0,7.8-1.1,7.8,8.2
			c0,7.2,0,14.3,0,21.5c0,2.2-0.6,2.6-2.7,2.7c-1.4,0.1-2.6,0-4,0c-39.1,0-78.2,0-117.3,0c-7.2,0-6.4,0.6-6.4-6.8
			C1655,466,1655.1,442.1,1655.1,418.3z"/>
		<path class="st3" d="M1111.7,339.1c3.1,0,6.4,0,9.6,0c8.7,0,17.4,0,26.1,0c3.5,0,3.5,0,4.6,3.3c5.2,15.2,10.3,30.4,15.3,45.6
			c8,24.1,16.2,48.1,24.2,72.2c0.4,1.1,0.2,2.6,1.7,3.5c1.5,0,1.2-1.5,1.6-2.3c0.4-0.7,0.6-1.6,0.9-2.5c10-29.8,20-59.6,30.2-89.4
			c3-8.9,5.9-17.7,9-26.4c1.2-3.7,1.4-3.8,4.8-3.8c11.1,0,22.1,0,33.2,0c0.9,0,1.6,0.2,2.3,0.2c0.7,2.1-0.2,3.6-0.9,5.2
			c-8.9,27.2-17.8,54.4-26.8,81.6c-6.8,20.6-13.6,41.2-20.4,61.8c-0.5,1.5-1,2.8-1.5,4.3c-1.7,5.1-1.6,4.3-5.8,4.3
			c-18,0-36.1,0-54.1,0c-3.3,0-3.5,0-4.6-3.3c-5.3-15.8-10.5-31.8-15.8-47.6c-7.9-23.9-15.7-47.8-23.6-71.7
			c-3.2-9.6-6.4-19.4-9.5-29C1112,343.4,1110.8,341.5,1111.7,339.1z"/>
		<path class="st3" d="M1573.6,339.1c21.1,0,42.1,0,63.3,0c1.5,0,3.1,0,4.6,0c2.2,0.1,2.7,0.6,2.8,2.6c0.1,2.2,0,4.3,0,6.6
			c0,6.8,0,13.5,0,20.3c0,2.5-0.5,3-3.2,3c-12.9,0-25.7,0-38.4,0c-2.8,0-6.2-1.1-8.2,0.6c-2.3,2-1,5.7-1,8.7
			c-0.1,36.3,0,72.7,0,108.9c0,7.7,0.6,7-6.9,7c-9.5,0-19.2,0-28.7,0c-2.7,0-3.1-0.4-3.2-3c0-1.7,0-3.5,0-5.2c0-36.3,0-72.7,0-108.9
			c0-1.7,0-3.5,0-5.2c-0.1-2.5-0.4-2.8-3.2-3c-3.7-0.1-7.4,0-11.1,0c-10.4,0-20.9,0-31.3,0c-1.1,0-2.2,0-3.2,0c-1.6,0-2.2-1-2.2-2.5
			c0-0.9,0-1.7,0-2.6c0-8,0-16.1,0-24.1c0-2.7,0.5-3.1,3-3.1c5.4,0,10.9,0,16.3,0C1539.7,339.1,1556.6,339.1,1573.6,339.1z"/>
		<path class="st3" d="M618.4,418c0,24.3,0,48.7,0,72.9c0,6.2,0,5.8-5.6,5.8c-9.1,0-18.3,0-27.3,0c-1.1,0-2.2,0-3.2,0
			c-1.2,0-2-0.7-2.1-2c-0.1-1.5-0.1-3.1-0.1-4.6c0-48.2,0-96.4,0-144.6c0-7-0.4-6.4,6.2-6.4c8.9,0,17.8,0,26.7,0c1.1,0,2.2,0,3.2,0
			c1.2,0,2,0.7,2.1,2c0.1,1.7,0.1,3.5,0.1,5.2C618.4,370.2,618.4,394.1,618.4,418z"/>
		<path class="st3" d="M1492.2,418.6c0,24.1,0,48.2,0,72.3c0,6.2,0.1,5.8-5.6,5.8c-9.8,0-19.5,0-29.3,0c-2.7,0-3.1-0.4-3.2-3
			c0-1.5,0-3.1,0-4.6c0-47.6,0-95.2,0-142.7c0-8.4-1-7.4,7.2-7.4c8.5,0,16.9,0,25.5,0c1.1,0,2.2,0,3.2,0c1.2,0,2.1,0.6,2.1,1.9
			c0.1,1.7,0.1,3.5,0.1,5.2C1492.2,370.3,1492.2,394.5,1492.2,418.6z"/>
		<path class="st3" d="M1536.6,546.3c0,5.8,0,11.6,0,17.3c0,1.7,0,3.5,0,5.2c-0.1,2.5-0.5,2.8-3.2,2.7c-0.6,0-1.2-0.1-2-0.1
			c-0.9,0-1.1-0.7-1.2-1.2c-0.2-0.6-0.1-1.2-0.1-2c0-11.1,0-22.1,0-33.2c0-1.1-0.2-2.5,0.7-3c2.1-0.7,4.3-0.7,6.4-0.1
			c1.4,0.4,1.6,1.9,2.1,3.1c2.5,6.1,4.8,12.1,7.3,18c0.2,0.6,0.4,1.2,0.7,1.9c0.1,0.2,0.6,0.6,1,0.6c0.6,0.1,0.7-0.2,0.7-0.7
			c0-5.8,0-11.7,0-17.6c0-1.4,0-2.6,0.1-4c0.1-0.5,0.5-1.4,1-1.5c1.5-0.4,3.1-0.5,4.4,0.1c0.5,0.2,0.9,1,0.9,1.5c0,12,0,23.9,0,35.8
			c0,1.2-0.7,2-2,2.1c-1.2,0.1-2.6,0-4,0c-1,0-1.6-0.6-2-1.5c-0.7-1.6-1.4-3.2-2-4.8c-2.6-6.4-5.2-12.9-7.8-19.3
			C1537.4,546.1,1537.1,546.2,1536.6,546.3z"/>
		<path class="st3" d="M904.6,571.2c-1.4,0.7-2.8,0.4-4.3,0.5c-1.7,0-2.6-0.7-3.3-2.5c-2.5-6.3-4.9-12.5-7.5-18.7
			c-0.5-1.4-1.1-2.7-1.7-4.1c-1.7,0.5-1.2,1.7-1.2,2.6c-0.1,6.1-0.1,12.1,0,18.3c0,4.1-0.2,4.8-4.9,4.3c-1-0.1-1.5-0.7-1.5-1.7
			c0-2,0-4,0-5.8c0-9.8,0-19.5,0-29.3c0-2.6,0.4-2.8,3.1-3c0.9,0,1.7,0,2.6,0c1.5,0,2.3,0.7,2.8,2.1c1.2,3.2,2.6,6.4,3.8,9.6
			c1.7,4.1,3.5,8.3,5.2,12.5c1.6-0.9,1.1-2.1,1.1-3c0.1-6.1,0-12.1,0-18.3c0-2.7,0.4-3,3-3.1c0.6,0,1.4,0,2,0.1
			c1.1,0,1.5,0.7,1.5,1.7c0.1,0.9,0,1.7,0,2.6c0,10.6,0,21.3,0,31.9C905.1,569.1,905.3,570.2,904.6,571.2z"/>
		<path class="st3" d="M947.2,539c0,1.5,0.1,3.1,0,4.6c0,1-0.1,2.2-1.6,2.5c-2.2,0.4-3.5-0.1-4.2-1.7c-0.5-1.2-0.9-2.5-1.5-3.6
			c-2.6-4.7-9.6-4.8-12.5-0.4c-1.5,2.2-2,4.8-2.5,7.4c-0.6,4.1-0.4,8.3,1,12.2c1.1,3.6,3.2,6.2,7.3,6.6c4.2,0.4,6.8-1.2,8.8-5.3
			c0.5-1,0.7-2,0.9-3.1c0.1-0.7-0.5-1.2-1-1.4c-1.2-0.1-2.6-0.1-4-0.1c-2.7-0.1-3.1-0.7-3-3.7c0-1.6,0.7-2.3,2.3-2.3
			c3.2,0,6.6,0,9.8,0c1.7,0,2.2,0.7,2.2,2.5c-0.1,4-0.7,7.8-2.6,11.4c-2.7,5.3-7,8-13.1,8c-5.8,0-9.9-3-12.6-7.8
			c-1.7-3.1-2.3-6.6-2.7-10c-0.5-4.3,0.1-8.7,1.4-12.9c1.1-3.6,3-6.8,6.3-8.8c4.4-2.6,8.9-3.2,13.3,0.2c1,0.7,1.6,0.9,2.3-0.6
			c0.9-1.6,2.7-0.9,4.1-0.7c0.7,0,1.2,0.7,1.2,1.2C947.2,535.1,947.2,537.1,947.2,539L947.2,539z"/>
		<path class="st3" d="M1182.1,557.4c-1-1.5-0.7-2.1,1-3c0.6-0.2,1.2-0.4,1.9-0.6c5.1-2.6,7-6.9,6.1-13.1c-0.7-4.7-4.1-7.9-9.1-8.8
			c-1.1-0.2-2.1-0.2-3.2-0.4c-3.7,0-7.4,0-11.1,0c-2.7,0-3,0.2-3,3.1c0,11.2,0,22.6,0,33.9c0,0.4,0,0.9,0,1.2
			c0.1,0.9,0.5,1.6,1.6,1.6c0.6,0,1.2,0.1,2,0.1c2.6-0.1,3-0.4,3-3.1c0-3.5,0-6.9,0-10.4c0-1.1-0.1-2.3,1.4-2.5
			c0.9-0.1,1.6,0.5,2.1,1.2c2.2,3.5,4.3,6.9,6.6,10.5c2.8,4.6,2.8,4.6,8.3,4.2c0.4,0,0.7-0.4,1.1-0.5c0.4-1.2-0.5-2-1.1-3
			C1187.1,564.6,1184.6,561,1182.1,557.4z M1181,549.2c-2.2,0.9-4.7,0.9-7,0.7c-2.6,0-2.8-0.4-3-3.1c0-1.5,0-3,0-4.6
			c-0.1-5.7,0.2-4.9,5.4-5.1c0.5,0,1.6,0,2.7,0.1c4.1,0.7,5.9,3.3,5.3,7.4C1184.2,547.1,1183.1,548.4,1181,549.2z"/>
		<path class="st3" d="M1108.8,539.9c-2.5-5.8-6.8-8.9-13.1-9c-6.3,0-10.9,3.1-13.2,8.8c-3.2,7.9-3.2,16.1,0,24.1
			c2.3,5.8,6.9,8.8,13.2,8.7c6.1-0.1,10.3-3,12.7-8.5c1.7-3.8,2.5-7.8,2.5-13.7C1111.2,547.8,1110.4,543.7,1108.8,539.9z
			 M1102.9,561.2c-1.2,3.6-4,5.2-7.4,5.2s-5.7-1.7-6.9-4.8c-2.5-6.6-2.6-13.1,0-19.5c1.1-2.7,3-4.7,6.2-4.9c3.8-0.4,6.6,1.4,8,5.2
			c1.1,3,1.9,6.2,1.6,9.5C1104.7,554.8,1104,558.1,1102.9,561.2z"/>
		<path class="st3" d="M1434.2,540.3c-2.2-6.1-7.4-9.5-13.5-9.4c-6.3,0.1-10.6,3.3-13.1,9c-1.7,3.8-2.1,7.9-2,12.7
			c0,3.1,0.4,6.7,1.7,10.3c2.5,6.2,7.2,9.5,13.2,9.6c6.2,0.1,11.2-3.2,13.5-9.3C1437,555.6,1437,547.8,1434.2,540.3z M1427.9,561.5
			c-1.2,3-3.5,4.8-6.9,4.8s-5.9-1.5-7-4.7c-2.5-6.7-2.6-13.5,0.1-20.1c1.2-3.1,3.7-4.7,7-4.6c3.5,0,5.6,2,6.9,4.9
			c1.4,3,1.7,6.2,1.6,9.6C1429.7,554.8,1429.3,558.3,1427.9,561.5z"/>
		<path class="st3" d="M676.6,551.8c0-5.8,0-11.7,0-17.6c0-2.1,0.5-2.5,2.7-2.6c0.5,0,0.9,0,1.4,0c1.5,0,2.5,0.6,2.5,2.2
			c0,3.7,0,7.4,0,11.1c0,2.8,0.2,3.1,3,3c11.1-0.2,9,2,9.3-9c0-1.5,0-3.1,0-4.6c0-1.1,0.1-2.2,1.5-2.6c1.5-0.4,3-0.6,4.3,0.2
			c0.9,0.5,0.7,1.5,0.7,2.3c0,7.8,0,15.7,0,23.5c0,3.7,0,7.4,0,11.1c0,2-0.6,2.5-2.8,2.5c-0.5,0-0.9,0-1.4,0
			c-1.5-0.1-2.3-0.9-2.3-2.5c0-4.1,0-8.3,0-12.4c0-2.2-0.5-2.6-2.7-2.6c-2.6,0-5.2,0-7.8,0.1c-1,0-1.6,0.7-1.6,1.7
			c0,4.3,0,8.7-0.1,13c0,2.1-0.5,2.6-2.7,2.6c-3.5,0.1-3.7-0.1-3.8-3.5C676.6,562.6,676.6,557.2,676.6,551.8z"/>
		<path class="st3" d="M1489.4,551.5c0-5.7,0-11.2,0-16.9c0-2.5,0.4-2.8,2.5-2.8c6.9,0,13.8,0,20.9,0c2.1,0,3.5,3,2.2,4.8
			c-0.5,0.7-1.5,0.9-2.3,0.9c-4.6,0-9.1,0-13.7,0c-2.7,0-2.8,0.2-3,3.1c0,0.6,0,1.4,0,2c0,5.9-0.7,5.7,5.6,5.7c2.2,0,4.3,0,6.6,0
			c1.1,0,2.2,0.1,2.6,1.5c0.4,1.2,0.4,2.6-0.2,3.8c-0.2,0.4-1.1,0.7-1.6,0.7c-3.7,0.1-7.4,0.1-11.1,0.1c-1,0-1.6,0.6-1.6,1.6
			c0,2.8,0,5.7,0,8.4c0,1,0.7,1.5,1.7,1.5c4.8,0,9.5,0,14.3,0.1c2.6,0,3.1,0.6,3.1,3c0,2.1-0.5,2.7-2.7,2.7c-6.9,0-13.8,0-20.9,0
			c-1.6,0-2.2-0.9-2.2-2.5C1489.4,563.3,1489.4,557.4,1489.4,551.5z"/>
		<path class="st3" d="M1149.1,546.8c0,3.5,0,6.9,0,10.4c0,1.5,0,3.1-0.2,4.6c-1.5,8.9-10.9,13.5-18.8,9.1c-3.3-1.7-4.9-4.7-5.7-8.3
			c-0.4-1.5-0.5-3-0.5-4.6c0-7.8,0-15.6,0-23.4c0-2.6,0.5-3.1,3-3.1c3,0,3.6,0.5,3.6,3.2c0,6.9,0,13.8,0,20.8c0,2,0,4,0.4,5.8
			c0.5,3.1,2.5,4.7,5.3,4.8c3.1,0.1,5.4-1.5,6.1-4.7c0.4-1.9,0.4-3.8,0.4-5.8c0-6.9,0-13.8,0-20.8c0-3,0.5-3.3,3.3-3.3
			c2.7,0,3.1,0.2,3.2,2.7C1149.1,538.5,1149.1,542.6,1149.1,546.8L1149.1,546.8z"/>
		<path class="st3" d="M961,551.4c0-5.8,0-11.7,0-17.6c0-1.2,0.6-2.1,1.9-2.1c7.2,0,14.3-0.1,21.5,0c2,0,2.5,0.9,2.3,3
			c-0.1,2.1-0.5,2.6-2.7,2.7c-4.6,0.1-9.1,0-13.7,0c-2.3,0-2.7,0.4-2.8,2.5c-0.1,2,0,4,0,5.8c0,1.7,0.9,2.2,2.5,2.2
			c3.1,0,6.1,0,9.1,0c2.8,0,3.3,0.6,3.3,3.5c0,1.7-0.6,2.5-2.1,2.5c-3.2,0-6.6,0-9.8,0c-2.6,0-3,0.2-2.8,3.1
			c0.1,10.1-1.6,8.4,8.5,8.7c3.1,0,6.1,0,9.1,0.1c1.4,0,1.6,1.2,1.6,2.3c0,1.2,0.2,2.7-1.6,3.1c-1.2,0.2-2.6,0.2-3.8,0.2
			c-5.8,0-11.7,0-17.6,0c-2.5,0-2.7-0.4-2.7-2.6C961,563.1,961,557.3,961,551.4L961,551.4z"/>
		<path class="st3" d="M1583.8,531.7c4.1,0,8.3,0,12.4,0c1,0,1.6,0.6,1.6,1.6c0,3.7,0,7.4,0,11.1c0,1.7-1.4,2-2.7,2
			c-1.4,0-2.7,0-2.8-1.9c-0.1-1.5,0-3.1-0.1-4.6c-0.1-2.1-1.2-2.8-3.6-2.5c-0.7,0.1-1.2,0.5-1.4,1.1c-0.2,0.6-0.2,1.2-0.2,2
			c0,7.4,0,14.7,0,22.1c0,2.8,0.1,2.8,3.5,3.2c0.6,0.1,1.4,0,2,0.2c1.5,0.7,1.1,2.2,1.1,3.5c0,1-0.5,1.6-1.4,1.9
			c-0.2,0-0.4,0.1-0.6,0.1c-5.2,0-10.4,0-15.6-0.1c-1,0-1.6-0.7-1.5-1.7c0-1.1,0-2.2,0.4-3.1c0.5-1.2,1.9-0.6,2.8-0.7
			c2.5-0.4,2.8-0.6,2.8-2.6c0-7.8,0-15.6,0-23.5c0-1.1-0.4-2.1-1.7-2.3c-2.1-0.5-3.3,0.2-3.5,2.5c-0.1,1.1,0,2.2,0,3.2
			c-0.1,2.7-2.3,4-4.9,2.8c-0.4-0.1-0.7-0.5-0.9-0.9c-0.2-0.9-0.4-1.7-0.2-2.6c0.2-3.5-0.6-6.9,0.5-10.3c3.3-1.6,6.8-0.4,10.1-0.7
			C1581.2,531.6,1582.4,531.6,1583.8,531.7L1583.8,531.7z"/>
		<path class="st3" d="M1680.1,569.3c-3.6-11.7-7.3-23.6-10.9-35.3c-0.4-1.4-1.2-2.2-2.8-2.2c-0.6,0-1.4,0-2,0c-3.2,0-3.3,0-4.3,3.5
			c-3.5,11.1-6.9,22.2-10.5,33.5c-0.2,0.7-0.7,1.6-0.1,2.7c0.6,0.1,1.5,0.4,2.3,0.4c3.3,0,3.5-0.1,4.6-3.3c0.6-1.9,1.1-3.7,1.9-6.1
			h6.4c6.6,0,6.6,0,8.8,6.4c0.9,2.7,1.1,2.8,4.1,3c0.2,0,0.5,0,0.6,0C1679.9,571.5,1680.6,570.9,1680.1,569.3z M1660.3,556
			c1.1-4.9,2.1-9.9,4.8-15c1,3,1.7,5.4,2.5,7.9C1670.1,557.3,1670.1,557.4,1660.3,556z"/>
		<path class="st3" d="M867.4,569.9c-0.2-1.1-0.5-2.1-0.7-3.1c-3.1-9.9-6.2-19.8-9.3-29.8c-0.1-0.4-0.2-0.9-0.5-1.2
			c-1.4-4.2-1.5-4.3-5.9-4.1c-2.5,0.1-2.7,0.2-3.6,2.8c-3.6,11.6-7.3,23.1-10.9,34.7c-0.1,0.6-0.1,1.2-0.2,2c1,0.1,1.7,0.4,2.6,0.4
			c3.3,0,3.5-0.1,4.6-3.3c0.6-1.9,1.1-3.7,1.9-6.1c4.1,0,7.4,0,10.9,0c1.5,0,2.5,0.6,2.8,2.1c0.5,1.9,1.1,3.7,1.6,5.6
			c0.2,1,1,1.5,1.9,1.6c1.1,0.1,2.1,0.1,3.2,0.1C867.1,571.5,867.7,570.9,867.4,569.9z M855.3,556.5c-2.1,0.1-4.3,0.1-6.4,0
			c-1,0-1.5-1-1.2-1.9c1.2-4.3,2.2-8.7,4.6-14.1c1.7,5.6,3,9.9,4.2,14.1C856.8,555.5,856.3,556.3,855.3,556.5z"/>
		<path class="st3" d="M1458.2,551.5c0-4,0-7.8,0-11.7c0-1.9-0.5-2.2-2.3-2.3c-2.2,0-2.7,0.4-2.8,2.6c0,1.1,0,2.2,0,3.2
			c-0.1,2.8-0.7,3.2-3.6,3.1c-1.4-0.1-2-0.7-2.1-2c-0.1-3.2-0.1-6.6-0.1-9.8c0-2.8,0.1-2.8,3.1-3c7.7,0,15.2,0,22.9,0
			c2.2,0,2.7,0.6,2.8,2.6c0,3.2,0,6.6,0,9.8c0,1.9-0.7,2.2-3.2,2.2c-1.4,0-2.6-0.2-2.7-2c-0.1-1.5,0-3.1-0.1-4.6
			c-0.1-2-0.9-2.5-3-2.3c-1.2,0.1-2.1,0.5-2.1,1.9c0,8,0,16.1-0.1,24.1c0,1.6,0.7,2.5,2.3,2.5c0.5,0,0.9,0,1.4,0
			c2.7,0.2,2.8,0.6,2.8,3.1c0,1.5-0.4,2.6-2.1,2.6c-4.9,0-10,0-15,0c-1.6,0-2.2-0.7-2.2-2.5c-0.1-2.2,0.4-2.8,2.2-3.2
			c0.6-0.1,1.4-0.1,2,0c1.4,0,2-0.7,2-2c0-3.2,0-6.6,0.1-9.8C1458.2,553.2,1458.2,552.4,1458.2,551.5L1458.2,551.5z"/>
		<path class="st3" d="M738.8,547.8c-1.4-4.6-2.8-9-4.3-13.6c-0.2-0.7-0.2-1.7-1.2-2.1c-1.9-0.7-3.8-0.6-5.8-0.2
			c-1.7,0.4-1.9,2.2-2.3,3.6c-2.8,9-5.7,18.2-8.4,27.3c-0.9,2.7-1.6,5.3-2.5,8c5.8,1.4,5.9,1.2,7.3-2.3c2.5-7.2,0.5-6.2,8.9-6.2
			c2,0,3.8,0,5.6,0c1.9,2.5,2,5.2,3,7.5c0.5,1.1,1.1,1.9,2.3,1.9c1.5,0,3.1,0.5,4.4-1C743.6,563.1,741.3,555.5,738.8,547.8z
			 M733,556.5c-2.3,0.1-4.7,0-7.9,0c1.6-5.6,3-10.1,4.3-14.6c1.5,0.1,1.7,1.1,2.1,2.1c1,3.6,2,7,3,10.6
			C734.6,555.6,734,556.5,733,556.5z"/>
		<path class="st3" d="M1267.1,547.8c-1.4-4.6-2.8-9-4.3-13.6c-0.2-0.7-0.4-1.7-1.2-2.1c-1.9-0.7-3.8-0.6-5.8-0.2
			c-1.7,0.4-1.9,2.2-2.3,3.6c-3,9.3-5.9,18.5-8.7,27.9c-0.7,2.5-2.1,4.8-2,7.4c0.4,0.2,0.7,0.6,1.1,0.7c0.6,0.1,1.2,0.1,2,0.1
			c2.7-0.1,2.7-0.2,3.7-2.6c0.9-2.2,0.5-5.3,2.7-6.4c2-0.9,4.7-0.4,7-0.5c1.7,0,3.5,0,4.9,0c1.7,2.3,2,4.8,2.7,7
			c0.6,1.6,1.5,2.6,3.2,2.5c1-0.1,2.1-0.1,4.1-0.2C1271.8,563,1269.5,555.5,1267.1,547.8z M1261.3,556.5c-9.1,0.1-8.2,0.9-5.8-7.2
			c0.7-2.5,1.5-4.9,2.6-8.9c2.5,5.9,4,10.5,4.6,15.3C1262.1,556.1,1261.7,556.5,1261.3,556.5z"/>
		<path class="st3" d="M662.5,539.6c0,1.5,0,3.1,0,4.6c0,1.1,0.1,2.2-1.4,2.5c-2.2,0.5-3.8,0-4.4-1.5c-0.5-1.2-0.6-2.6-1.1-3.7
			c-1.2-2.7-3.3-4.4-6.6-4.6c-3.2-0.1-5.6,1.2-6.8,4.1c-3.1,6.9-3.2,14-0.2,20.8c2.6,5.8,10.1,6.2,13.8,1c0.6-0.9,1-1.9,1.6-2.8
			c1.4-2.3,3-2.7,5.1-1c0.5,0.4,0.9,0.9,0.7,1.6c-1.5,6.2-6.6,11-12.5,11.6c-6.3,0.7-11.9-2.3-14.7-8.5c-3.6-8.2-3.5-16.3-0.1-24.6
			c0.7-1.9,2-3.3,3.3-4.8c3.6-3.6,10-5.1,14.3-2c1.6,1.1,2.6,1.9,4-0.4c0.6-1,2.3-0.5,3.7-0.4c0.7,0.1,1.2,0.6,1.2,1.2
			C662.5,535.3,662.4,537.4,662.5,539.6L662.5,539.6z"/>
		<path class="st3" d="M1384.3,531.9c-0.6-0.1-1.2-0.2-2-0.2c-4.1,0-8.3,0-12.4,0c-1.6,0-2.3,0.7-2.3,2.3c0,5.8,0,11.7,0,17.6l0,0
			c0,5.8,0,11.7,0,17.6c0,2.1,0.6,2.5,2.8,2.5c0.2,0,0.4,0,0.6,0c2.5-0.1,3-0.5,3.1-3.1c0.1-3.7,0-7.4,0.1-11c0-1.2,0.6-2,2-2
			c2.2,0,4.3,0.1,6.4-0.1c3.7-0.4,7.3-1.2,9.6-4.6C1397.7,543.2,1393.5,533.3,1384.3,531.9z M1384.3,548.8c-1.9,0.5-3.8,0.5-5.7,0.7
			c0-0.1,0-0.1,0-0.2c-0.9,0-1.7,0-2.6,0c-1,0-1.6-0.6-1.6-1.6c0-1.2-0.2-2.6,0-3.8c0.4-2.1-1.4-5.6,1.5-6.2
			c3.6-0.9,7.8-1.2,10.9,2.1C1389.2,542.6,1387.9,547.8,1384.3,548.8z"/>
		<path class="st3" d="M1055.8,547.7c1.1-2.5,2.2-4.8,3.2-7.2c0.6-1.4,1.2-2.7-0.9-3.6c-1-0.5-0.5-2-0.5-3c0-1.2,0.4-2.1,1.9-2.1
			c2.8,0,5.7-0.1,8.4,0c1,0,2.3,0.1,2.3,1.6c0,1.4,0.9,3.3-1.1,4c-1.7,0.5-2.3,1.6-3.1,3.1c-1.6,3.3-3.1,6.8-4.9,9.9
			c-2.1,3.6-2.7,7.3-2.5,11.2c0.1,1.2,0,2.7,0.5,3.7c0.7,1.4,2.3,0.6,3.6,0.7c2.1,0.4,3.3,3.3,2.1,4.8c-0.4,0.5-1.1,0.9-1.6,0.9
			c-5.2,0.1-10.4,0-15.6,0c-1.4,0-1.9-0.9-2-2.1c-0.1-2.5,0.2-3.3,1.7-3.6c0.9-0.1,1.7,0,2.6-0.1c1.2-0.1,2-0.7,2.1-2
			c0.2-4.6,0.2-9-2.2-13.2c-1.9-3.1-3.3-6.6-4.9-9.9c-0.7-1.6-1.5-3-3.3-3.7c-1.1-0.5-1.6-3.6-0.7-4.6c0.4-0.5,1.1-0.7,1.6-0.7
			c2.8-0.1,5.7-0.1,8.4,0c1.6,0,2.1,0.9,2.1,2.6c0,0.5,0.1,1-0.1,1.2c-0.5,1.1-1.9,2.2-1.7,3.2c0.4,2.1,1.5,4.1,2.3,6.1
			C1053.8,545.7,1053.9,546.9,1055.8,547.7z"/>
		<path class="st3" d="M1299.3,571.7c-2.3,0-4.8,0-7.2,0c-1.9,0-2.3-0.7-2.3-3c0-2.2,0.2-2.5,2.5-2.7c0.6-0.1,1.4,0,2-0.1
			c1-0.1,1.6-0.7,1.6-1.7c0.1-1.2,0.1-2.6,0.1-4c0-6.3,0-12.6,0-18.9c0-3.5-0.1-3.5-3.5-4c-2.3-0.4-3.5-2.1-2.6-4.4
			c0.1-0.5,0.9-1.1,1.4-1.1c5.4,0,10.9,0,16.2,0c1.4,0,1.6,1.2,1.5,2.3c0,1.2,0.1,2.6-1.6,3.1c-1.5,0.4-3.2-0.5-4.3,0.7
			c-1.2,1.5-0.6,3.3-0.6,5.1c0,6.7,0,13.5,0,20.1c0,2.1,0.4,2.3,2.7,2.6c0.6,0.1,1.4,0,2,0.1c1.7,0.2,1.7,1.5,1.9,2.8
			c0,1.5-0.4,2.6-2,2.7C1304.5,571.7,1301.9,571.5,1299.3,571.7C1299.3,571.5,1299.3,571.5,1299.3,571.7z"/>
		<path class="st3" d="M1624.2,571.5c-2.3,0-4.8,0-7.2,0c-1.6,0-2.2-0.9-2.2-2.5c0-2.6,0.2-3,2.7-3.2c0.6-0.1,1.2,0,2-0.1
			c1-0.1,1.5-0.7,1.5-1.7c0-0.6,0.1-1.2,0.1-2c0-6.9,0-13.8,0-20.8c0-3.5-0.1-3.5-3.5-4c-0.2,0-0.5,0-0.6,0
			c-1.9-0.2-2.2-0.9-2.2-3.1c0-1.5,0.5-2.6,2.1-2.6c5.2,0,10.4,0,15.6,0.1c1.4,0,1.7,1.1,1.6,2.2c-0.1,1.2,0.4,2.7-1.4,3.2
			c-0.2,0-0.4,0.1-0.6,0.1c-1.2,0.1-2.7-0.1-3.7,0.5c-1.4,1-0.7,2.8-0.7,4.2c0,6.9,0,13.8,0,20.8c0,2.6,0.1,2.6,3.1,3
			c0.4,0,0.9,0,1.2,0c1.9,0.2,2.1,0.9,2.2,3.2c0,1.6-0.6,2.5-2.2,2.5C1629.4,571.7,1626.8,571.5,1624.2,571.5L1624.2,571.5z"/>
		<path class="st3" d="M804.7,549c0,4.1,0,8.3,0,12.4c0,4.4,0.1,4.4,4.2,4.4c4.1,0,8.3,0,12.4,0c2.3,0,3.6,2.2,2.7,4.4
			c-0.2,0.5-0.9,1-1.5,1.1c-1.2,0.2-2.6,0.2-3.8,0.2c-5.8,0-11.7,0-17.6,0c-2.5,0-2.8-0.4-2.8-3.1c0-11.2,0-22.5,0-33.7
			c0-2.6,0.4-3,3-3c3-0.1,3.5,0.2,3.5,3.1C804.8,539.5,804.7,544.2,804.7,549z"/>
		<path class="st3" d="M757.6,551.3c0-5.6,0-11.2,0-16.9c0-2.2,0.5-2.6,2.6-2.6c0.9,0,1.7,0,2.6,0.2c0.5,0.1,1.1,0.7,1.2,1.2
			c0.2,1,0.1,2.1,0.1,3.2c0,7.5,0,15.2,0,22.7c0,7.7-0.9,6.7,7,6.8c3.2,0,6.6,0,9.8,0c0.9,0,2,0.1,2.2,1c0.4,1.2,0.5,2.6-0.1,3.7
			c-0.2,0.5-1.1,0.9-1.6,0.9c-7.3,0-14.7,0-22,0c-1.4,0-1.7-1-1.7-2.1C757.6,563.3,757.6,557.2,757.6,551.3L757.6,551.3z"/>
		<path class="st3" d="M1692.5,551.8c0-5.8,0-11.7,0-17.6c0-2,0.6-2.5,2.8-2.5c3.2,0,3.7,0.4,3.7,3.7c0,4.8,0,9.5,0,14.3
			c0,4,0,7.8,0,11.7c0,4.3,0.1,4.4,4.2,4.4c2.6,0,5.2,0,7.8,0c1.4,0,2.6,0,4,0c2.8,0.1,3.3,0.6,3.1,3.5c-0.1,1.2-0.4,2.2-1.7,2.2
			c-7.4,0-14.7,0-22.1,0c-1.4,0-1.7-1.1-1.7-2.2C1692.5,563.4,1692.5,557.6,1692.5,551.8L1692.5,551.8z"/>
	</g>
</g>
</svg>
